<?xml version="1.0" encoding="UTF-8" standalone="no"?>
<svg
   version="1.1"
   width="3.1666615in"
   height="3.1666615in"
   viewBox="0 0 228.00008 227.9999"
   id="svg62"
   sodipodi:docname="marca.svg"
   inkscape:version="1.4 (e7c3feb100, 2024-10-09)"
   xmlns:inkscape="http://www.inkscape.org/namespaces/inkscape"
   xmlns:sodipodi="http://sodipodi.sourceforge.net/DTD/sodipodi-0.dtd"
   xmlns="http://www.w3.org/2000/svg"
   xmlns:svg="http://www.w3.org/2000/svg">
  <defs
     id="defs62" />
  <sodipodi:namedview
     id="namedview62"
     pagecolor="#ffffff"
     bordercolor="#666666"
     borderopacity="1.0"
     inkscape:showpageshadow="2"
     inkscape:pageopacity="0.0"
     inkscape:pagecheckerboard="0"
     inkscape:deskcolor="#d1d1d1"
     inkscape:document-units="in"
     inkscape:zoom="0.7536625"
     inkscape:cx="151.92477"
     inkscape:cy="152.58819"
     inkscape:window-width="1920"
     inkscape:window-height="1054"
     inkscape:window-x="0"
     inkscape:window-y="0"
     inkscape:window-maximized="1"
     inkscape:current-layer="Layer1000" />
  <g
     id="Layer1000"
     transform="translate(-183.6378,-306.9446)">
    <path
       d="M 299.3883,529.6633 C 239.3159,530.632 189.8325,482.7192 188.8638,422.6468 187.8951,362.5744 235.808,313.091 295.8803,312.1223 c 60.0724,-0.9687 109.5558,46.9442 110.5245,107.0164 0.9687,60.0724 -46.9441,109.5559 -107.0165,110.5246 z"
       style="fill:none"
       id="path1" />
    <path
       d="m 224.7736,489.5203 c 0.5686,-0.5601 0.8632,-0.941 0.8839,-1.1429 0.0207,-0.2019 -0.1955,-0.6173 -0.6481,-1.246 l 0.2535,-0.2497 2.7919,2.8355 c 0.8249,0.8375 1.4434,1.7078 1.8557,2.6107 0.4125,0.9031 0.1732,1.7933 -0.7182,2.6711 -0.5993,0.5901 -1.2058,0.8657 -1.8193,0.8265 -0.6137,-0.039 -1.2199,-0.2782 -1.819,-0.7174 l -1.7037,5.8547 -1.3147,-1.3274 1.5853,-5.5679 -0.7036,-0.7145 -3.5847,3.5297 -1.2484,-1.2679 z m -0.8147,3.2993 0.6469,0.6569 c 0.4766,0.4841 0.9966,0.8009 1.5598,0.9501 0.563,0.1492 1.1328,-0.0601 1.709,-0.6274 0.5841,-0.5752 0.8495,-1.1277 0.7963,-1.6581 -0.0529,-0.5304 -0.3405,-1.0607 -0.8627,-1.5909 -0.3556,-0.3611 -0.6347,-0.5178 -0.8371,-0.4698 -0.2024,0.0482 -0.5225,0.2878 -0.9605,0.719 z m 7.6256,3.2829 c 0.5058,-0.6033 0.7589,-1.0103 0.7595,-1.2208 7e-4,-0.2105 -0.2501,-0.6039 -0.7524,-1.1797 l 0.2285,-0.2727 5.9378,4.9777 -1.5008,1.8659 -0.3471,-0.291 c 0.388,-0.4628 0.5461,-0.8824 0.4749,-1.2587 -0.0714,-0.3765 -0.3261,-0.7485 -0.7641,-1.1157 l -0.9669,-0.8105 c -0.3222,-0.2702 -0.5641,-0.4096 -0.7257,-0.4184 -0.1615,-0.009 -0.3601,0.1273 -0.5956,0.4082 l -2.0681,2.4669 1.4999,1.2575 c 0.3719,0.3118 0.6948,0.4344 0.9682,0.3683 0.2737,-0.0662 0.5564,-0.223 0.8486,-0.4708 l 0.347,0.2909 -2.1824,2.6034 -0.3471,-0.2911 c 0.2909,-0.347 0.4343,-0.6773 0.4296,-0.9908 -0.005,-0.3134 -0.1887,-0.6226 -0.5522,-0.9274 l -1.4999,-1.2575 -2.3175,2.7644 c -0.2842,0.3388 -0.4101,0.5816 -0.378,0.7279 0.032,0.1464 0.2174,0.3617 0.5562,0.6458 l 1.376,1.1535 c 0.3801,0.3188 0.7338,0.4675 1.0611,0.4462 0.3273,-0.0209 0.6849,-0.263 1.0729,-0.7257 l 0.3472,0.2909 -1.5442,1.7662 -4.9458,-4.1463 z m 6.688,9.1734 0.6932,0.4763 c 0.6044,0.4153 1.1784,0.6035 1.7219,0.5648 0.5433,-0.0388 1.0685,-0.427 1.5753,-1.1647 0.4826,-0.7023 0.6567,-1.2791 0.5224,-1.7313 -0.1343,-0.452 -0.5303,-0.904 -1.188,-1.356 -0.3377,-0.232 -0.587,-0.3215 -0.7478,-0.2683 -0.1607,0.0529 -0.348,0.2351 -0.5618,0.5461 z m 0.2832,-3.5539 c 0.4518,-0.6579 0.6688,-1.0879 0.6505,-1.2899 -0.018,-0.2022 -0.3135,-0.572 -0.8862,-1.1096 l 0.2015,-0.2932 4.1597,2.858 c 0.8355,0.5741 1.3473,1.2431 1.5354,2.007 0.1884,0.7639 0.0137,1.5368 -0.5237,2.3191 -0.7633,1.1109 -1.5627,1.5887 -2.3981,1.4334 -0.8353,-0.1553 -1.8307,-0.6297 -2.9863,-1.4237 l -0.4666,-0.3206 -2.7389,3.9864 -1.4664,-1.0076 z m 11.924,12.6046 c -0.679,1.2264 -1.4043,2.0575 -2.1755,2.4932 -0.7714,0.4359 -1.8741,0.2566 -3.308,-0.5374 -1.2077,-0.6686 -1.9242,-1.4228 -2.1495,-2.2625 -0.2252,-0.8398 -0.035,-1.8068 0.5709,-2.9012 l 2.5075,-4.5283 c 0.3239,-0.5849 0.4562,-0.974 0.3967,-1.1671 -0.0594,-0.1932 -0.4074,-0.5276 -1.0439,-1.0033 l 0.1724,-0.3113 3.1547,1.3152 -3.2375,5.8468 c -0.7641,1.3798 -1.1013,2.3672 -1.0129,2.9646 0.0882,0.5975 0.4862,1.0921 1.1938,1.4839 0.9622,0.5328 1.7046,0.6111 2.2274,0.2349 0.5226,-0.3763 1.0556,-1.0549 1.5989,-2.036 l 3.3301,-6.0144 1.0189,0.5643 z m 1.4939,-10.6119 c 0.1791,-0.2123 0.342,-0.3561 0.4915,-0.4368 0.1481,-0.0781 0.3447,-0.0495 0.5899,0.0863 0.1699,0.094 0.2962,0.2224 0.3785,0.3853 0.0811,0.1651 0.0728,0.3361 -0.0264,0.5153 -0.0158,0.0283 -0.0623,0.0734 -0.141,0.1377 -0.0774,0.0618 -0.1878,0.1332 -0.3312,0.2142 l -1.7196,1.0015 -0.5943,-0.329 z m 3.4219,7.9622 c 0.317,-0.7324 0.4472,-1.1961 0.3905,-1.3909 -0.0568,-0.1949 -0.4128,-0.4988 -1.0684,-0.9119 l 0.1413,-0.3265 4.4091,1.9081 c 1.0392,0.4497 1.8113,0.9867 2.3167,1.6108 0.5055,0.6243 0.559,1.3965 0.1608,2.3169 -0.2828,0.653 -0.6723,1.078 -1.1685,1.2744 -0.4964,0.1965 -1.0261,0.2668 -1.5895,0.2111 0.6086,0.4397 1.0413,0.9471 1.2976,1.522 0.2563,0.5752 0.2004,1.2884 -0.168,2.1395 -0.3855,0.8906 -1.0076,1.4117 -1.8662,1.5629 -0.8587,0.1513 -2.0302,-0.0943 -3.5146,-0.7367 l -2.791,-1.2079 z m 0.6178,3.0523 0.9945,0.4304 c 0.7029,0.3042 1.3156,0.4019 1.8385,0.2933 0.5228,-0.1087 0.9341,-0.5093 1.234,-1.2021 0.2784,-0.6433 0.3033,-1.1759 0.0748,-1.598 -0.2287,-0.4221 -0.6992,-0.7873 -1.4118,-1.0957 -0.4849,-0.2099 -0.8139,-0.3053 -0.9866,-0.286 -0.1729,0.0193 -0.3364,0.207 -0.4906,0.5632 z m -1.8697,4.3199 c -0.1198,0.2771 -0.0849,0.495 0.105,0.6534 0.1899,0.1586 0.5421,0.3493 1.0568,0.5721 0.8115,0.3511 1.4811,0.4264 2.0086,0.2259 0.5275,-0.2007 0.958,-0.6869 1.2921,-1.459 0.3,-0.6927 0.2957,-1.2939 -0.0126,-1.8031 -0.3082,-0.5096 -0.8187,-0.9185 -1.5313,-1.2269 l -1.3509,-0.5846 z m 10.5971,-3.6564 c 0.204,-0.6367 0.2581,-1.0442 0.1622,-1.222 -0.0958,-0.1779 -0.5021,-0.4383 -1.2189,-0.7814 l 0.1086,-0.3388 3.3501,0.6772 -2.7761,8.6623 c -0.1843,0.5751 -0.2484,0.9253 -0.1925,1.0509 0.0561,0.1255 0.3408,0.2706 0.8543,0.4352 l 1.3249,0.4245 c 0.6262,0.2007 1.1131,0.2633 1.46,0.1876 0.3469,-0.0757 0.6275,-0.4471 0.8414,-1.1147 l 0.4313,0.1382 -0.7621,2.2188 -6.2539,-2.0042 z m 8.5354,2.5765 c 0.1398,-0.654 0.1533,-1.0646 0.0403,-1.2321 -0.113,-0.1675 -0.5432,-0.3863 -1.2904,-0.6564 l 0.0743,-0.348 3.4009,0.3413 -2.3153,10.8249 -1.7401,-0.3722 z m 10.9544,10.5131 c -0.3507,0.0743 -0.8295,0.1305 -1.4365,0.1688 -0.6071,0.0383 -1.2512,0.002 -1.9326,-0.1082 -1.5966,-0.2587 -2.6741,-0.9248 -3.2321,-1.9983 -0.5581,-1.0736 -0.6863,-2.542 -0.3846,-4.4048 0.2708,-1.6712 0.8124,-2.9409 1.6248,-3.8087 0.8125,-0.8682 2.0437,-1.1685 3.6937,-0.9011 1.1603,0.1879 1.9977,0.5474 2.5126,1.0787 0.5148,0.5313 0.7632,1.156 0.7453,1.874 l -1.9162,-0.3104 c 0.002,-0.4147 -0.106,-0.8119 -0.3233,-1.1911 -0.2171,-0.3792 -0.6449,-0.6206 -1.2837,-0.7241 -0.745,-0.1206 -1.4093,0.1185 -1.9925,0.7179 -0.5831,0.5992 -0.9964,1.6492 -1.2395,3.1501 -0.2259,1.3947 -0.2156,2.6635 0.0307,3.8068 0.2463,1.1433 1.0403,1.8235 2.3815,2.0407 0.6068,0.0983 1.1617,0.0953 1.6646,-0.009 0.503,-0.1041 0.9208,-0.2387 1.2534,-0.4033 z m 5.4836,-7.9482 c 0.012,-0.021 0.0699,-0.1742 0.1761,-0.4593 0.1061,-0.2828 0.1588,-0.4417 0.1608,-0.4741 0.0167,-0.2797 -0.0643,-0.4627 -0.2427,-0.549 -0.1785,-0.0865 -0.4968,-0.1811 -0.9552,-0.2843 l 0.0213,-0.3551 3.0356,0.1817 3.2893,11.1027 -1.6682,-0.1051 -1.0157,-3.4261 -4.1282,-0.2472 -1.4066,3.2864 -1.0116,-0.0659 z m -1.007,4.6417 3.5631,0.2134 -1.5477,-4.8245 z m 14.349,-4.4225 c 0.009,-0.0225 0.0427,-0.1826 0.1045,-0.4807 0.0622,-0.2955 0.0903,-0.4605 0.0872,-0.4929 -0.0256,-0.2791 -0.1334,-0.4477 -0.3228,-0.5061 -0.1896,-0.0583 -0.5186,-0.1039 -0.9873,-0.1364 l -0.0326,-0.3543 3.0281,-0.2794 4.9305,10.4775 -1.6649,0.1482 -1.522,-3.2329 -4.1183,0.38 -0.8933,3.4613 -1.0099,0.0878 z m -0.2935,4.7407 3.5542,-0.328 -2.2593,-4.5349 z m 8.449,-5.4492 c -0.1133,-0.79 -0.2451,-1.2531 -0.3953,-1.3895 -0.1503,-0.1365 -0.6129,-0.2089 -1.3876,-0.2177 l -0.0505,-0.3522 3.9389,-0.5652 c 1.1636,-0.1668 2.2311,-0.1484 3.2025,0.0555 0.9718,0.2037 1.5464,0.9246 1.724,2.1628 0.1195,0.8326 -0.0186,1.4844 -0.414,1.9551 -0.3955,0.4707 -0.9478,0.8168 -1.6569,1.0384 l 3.702,4.8453 -1.8485,0.2706 -3.5413,-4.5797 -0.9927,0.1425 0.7144,4.9797 -1.7613,0.2527 z m 2.1726,2.6132 0.9127,-0.1308 c 0.6724,-0.0964 1.2358,-0.3269 1.6902,-0.6917 0.4541,-0.3648 0.6238,-0.9476 0.509,-1.7481 -0.1164,-0.8113 -0.4039,-1.353 -0.8624,-1.6248 -0.4582,-0.2721 -1.0558,-0.3552 -1.7923,-0.2494 -0.5019,0.0718 -0.7934,0.2037 -0.8749,0.3951 -0.0814,0.1915 -0.0785,0.5913 0.009,1.1998 z m 16.4988,1.8083 c -0.5761,0.3651 -1.175,0.6828 -1.7969,0.9535 -0.6217,0.2709 -1.1471,0.4593 -1.5763,0.5657 -1.6225,0.402 -2.8956,0.2066 -3.8198,-0.5865 -0.9245,-0.7931 -1.6122,-2.1003 -2.0636,-3.9215 -0.4202,-1.6958 -0.4167,-3.0826 0.0105,-4.1606 0.4271,-1.0779 1.4574,-1.8194 3.0902,-2.2239 1.1095,-0.275 2.0033,-0.2659 2.6815,0.0268 0.6781,0.2931 1.138,0.7709 1.3799,1.4331 l -1.8841,0.4668 c -0.1378,-0.3769 -0.3923,-0.6972 -0.7632,-0.9608 -0.3707,-0.2636 -0.8544,-0.3215 -1.4511,-0.1736 -0.9944,0.2464 -1.545,0.8496 -1.6515,1.8092 -0.1065,0.9596 0.009,2.1199 0.346,3.4805 0.3605,1.4549 0.8803,2.554 1.5587,3.2968 0.6785,0.7428 1.5881,0.973 2.7291,0.6901 0.3139,-0.0778 0.558,-0.1577 0.7321,-0.2396 0.1742,-0.0821 0.3948,-0.2118 0.662,-0.3891 l -0.7899,-3.1874 c -0.192,-0.7744 -0.4134,-1.1861 -0.6644,-1.235 -0.2511,-0.049 -0.6891,-0.057 -1.3143,-0.0243 l -0.0856,-0.3454 3.2971,-0.8172 z m 0.8221,-9.0979 c -0.2644,-0.7416 -0.4873,-1.1659 -0.6685,-1.273 -0.1813,-0.1071 -0.6474,-0.0898 -1.3982,0.0518 l -0.1196,-0.3352 7.2985,-2.6013 0.8496,2.2387 -0.4267,0.152 c -0.2028,-0.5689 -0.4845,-0.9176 -0.8453,-1.0466 -0.3608,-0.129 -0.8104,-0.0975 -1.3489,0.0943 l -1.1884,0.4236 c -0.396,0.1412 -0.6388,0.2791 -0.7282,0.414 -0.0893,0.135 -0.0724,0.3752 0.0506,0.7205 l 1.0809,3.0322 1.8436,-0.6572 c 0.4572,-0.1629 0.7264,-0.3792 0.8077,-0.6486 0.0814,-0.2694 0.0893,-0.5927 0.0234,-0.9701 l 0.4266,-0.1521 1.1406,3.1998 -0.4266,0.1521 c -0.152,-0.4266 -0.3644,-0.7174 -0.6371,-0.8719 -0.2726,-0.1548 -0.6325,-0.1525 -1.0793,0.007 l -1.8437,0.6571 1.2111,3.398 c 0.1484,0.4164 0.2939,0.6479 0.4364,0.6944 0.1426,0.0465 0.4221,-0.005 0.8386,-0.153 l 1.6912,-0.6028 c 0.4674,-0.1665 0.7746,-0.3963 0.922,-0.6892 0.1475,-0.2929 0.1198,-0.7239 -0.0828,-1.2928 l 0.4266,-0.152 0.7416,2.2256 -6.0794,2.167 z m 8.2337,-3.4327 c -0.345,-0.7316 -0.6454,-1.0967 -0.9011,-1.0953 -0.2558,0.001 -0.6867,0.0796 -1.2934,0.2344 l -0.1517,-0.3218 3.0869,-1.4561 8.3693,5.7997 -3.7316,-7.9872 0.9216,-0.4346 4.6442,9.846 -1.4046,0.6624 -8.7542,-6.0471 3.8971,8.3381 -0.9216,0.4348 z m 10.6077,-7.147 -0.9584,0.5719 c -0.5465,0.326 -0.8736,0.6562 -0.9818,0.9907 -0.108,0.3344 -0.0101,0.7565 0.2937,1.2657 l -0.3889,0.2322 -1.1462,-2.0474 7.1122,-4.2435 1.2821,2.0227 -0.3889,0.232 c -0.3148,-0.5277 -0.6489,-0.8245 -1.002,-0.8902 -0.3531,-0.0654 -0.8028,0.0646 -1.3491,0.3906 l -0.9447,0.5637 5.1882,8.6959 -1.5279,0.9116 z m 6.3727,-2.6152 c -0.3962,-0.5386 -0.6944,-0.8213 -0.8947,-0.8479 -0.2004,-0.0268 -0.6497,0.1498 -1.3476,0.5293 l -0.2107,-0.2865 2.5124,-2.3171 6.5596,8.9168 -1.4333,1.0544 z m 3.9616,-2.8712 c -0.5392,-0.6027 -0.9313,-0.8669 -1.1759,-0.7928 -0.2449,0.0745 -0.6357,0.2723 -1.1729,0.5938 l -0.2372,-0.2653 2.5433,-2.2759 9.6759,3.1717 -5.8547,-6.5911 0.7594,-0.6795 7.2594,8.1125 -1.1571,1.0354 -10.1156,-3.2992 6.1136,6.8803 -0.7594,0.6796 z m 9.4667,-8.7627 c -0.009,-0.0227 -0.0904,-0.1644 -0.244,-0.4273 -0.1516,-0.261 -0.2413,-0.4024 -0.265,-0.4245 -0.206,-0.19 -0.399,-0.2434 -0.5787,-0.16 -0.1799,0.0836 -0.4547,0.27 -0.8248,0.5596 l -0.2615,-0.2414 2.0628,-2.2345 10.6762,4.4843 -1.1377,1.2245 -3.2948,-1.3833 -2.8052,3.0389 1.6528,3.1696 -0.6914,0.7411 z m 2.9552,3.7186 2.4212,-2.6228 -4.7141,-1.8569 z"
       style="fill:#1b1918;fill-rule:evenodd"
       id="path2" />
    <path
       d="m 198.9958,437.2106 c 1.5937,-0.3678 2.8804,-0.3871 3.8602,-0.058 0.9798,0.3289 1.6848,1.4251 2.1149,3.2885 0.3622,1.5692 0.2671,2.7791 -0.2855,3.6296 -0.5525,0.8507 -1.5399,1.4402 -2.962,1.7684 l -5.8843,1.3582 c -0.7601,0.1755 -1.2007,0.3644 -1.3218,0.5666 -0.1212,0.2024 -0.1398,0.765 -0.0558,1.6882 l -0.4045,0.0935 -1.3205,-3.7627 7.5975,-1.7536 c 1.7929,-0.4139 2.9126,-0.8917 3.3619,-1.4346 0.4493,-0.5425 0.5678,-1.2738 0.3555,-2.1931 -0.2886,-1.2505 -0.8,-1.9555 -1.534,-2.1155 -0.7342,-0.1597 -1.7387,-0.0923 -3.0137,0.2018 l -7.8152,1.804 -0.3057,-1.3241 z m -5.8513,-3.6014 c -0.941,0.0716 -1.4639,0.2471 -1.5687,0.5262 -0.1052,0.2792 -0.1994,0.7818 -0.2829,1.5073 l -0.4142,0.0314 -0.3019,-3.9704 9.8049,-6.7076 -10.2585,0.7422 -0.0901,-1.1854 12.6643,-0.963 0.1375,1.8066 -10.2351,7.0239 10.7102,-0.7765 0.0901,1.1855 z m -0.587,-13.7169 c -0.7798,-0.0197 -1.2535,0.0532 -1.4213,0.2188 -0.1679,0.1658 -0.3262,0.7062 -0.4752,1.6211 l -0.4151,-0.0105 -0.34,-3.9731 12.9106,0.3265 -0.0524,2.0753 z m -0.005,-6.1836 c -0.8478,0.1842 -1.3761,0.3738 -1.5848,0.5692 -0.2083,0.1923 -0.4376,0.6738 -0.6872,1.441 l -0.4119,-0.0524 0.4614,-3.6319 10.7484,-2.3694 -9.8225,-4.9166 0.1542,-1.2138 12.0193,6.1693 -0.2074,1.6318 z m 1.9091,-12.7145 c -0.8951,-0.2066 -1.4521,-0.2544 -1.6713,-0.1435 -0.2194,0.1106 -0.4953,0.5796 -0.8284,1.4065 l -0.4046,-0.0932 2.0332,-8.8082 2.7343,0.5729 -0.1188,0.5149 c -0.6865,-0.1585 -1.2067,-0.1009 -1.5604,0.1726 -0.3535,0.2733 -0.6054,0.7349 -0.7554,1.3847 l -0.331,1.4344 c -0.1105,0.4781 -0.1273,0.8034 -0.0511,0.976 0.0766,0.1726 0.323,0.307 0.7399,0.4032 l 3.6593,0.8446 0.5135,-2.2249 c 0.1275,-0.5518 0.0843,-0.9523 -0.1293,-1.2018 -0.2134,-0.2494 -0.5264,-0.4603 -0.9385,-0.6331 l 0.119,-0.5147 3.8615,0.8912 -0.1188,0.5149 c -0.5149,-0.1188 -0.9341,-0.0928 -1.2576,0.0778 -0.3234,0.1706 -0.5475,0.5257 -0.672,1.0652 l -0.5136,2.2249 4.1007,0.9465 c 0.5028,0.1161 0.8217,0.1186 0.957,0.008 0.1353,-0.1107 0.2611,-0.4175 0.377,-0.9201 l 0.4711,-2.041 c 0.1302,-0.564 0.0977,-1.0105 -0.0975,-1.3396 -0.1952,-0.3291 -0.636,-0.5729 -1.3226,-0.7314 l 0.119,-0.5149 2.6535,0.6708 -1.6935,7.3369 z m 2.7205,-10.8417 c -0.8819,-0.2984 -1.4336,-0.4054 -1.6547,-0.3208 -0.2212,0.0844 -0.5405,0.5277 -0.958,1.3294 l -0.3932,-0.1331 1.488,-4.3976 c 0.4395,-1.299 1.0216,-2.4004 1.7457,-3.3042 0.7242,-0.9038 1.7776,-1.122 3.16,-0.6542 0.9296,0.3146 1.5351,0.8017 1.8166,1.4614 0.2815,0.6598 0.3505,1.4171 0.2076,2.2718 l 6.9942,-1.2991 -0.6926,2.0667 -6.6332,1.272 -0.3751,1.1081 5.5596,1.8814 -0.6653,1.9664 z m 3.8651,-0.8838 0.3449,-1.0189 c 0.2541,-0.7508 0.3109,-1.4588 0.1706,-2.1238 -0.14,-0.665 -0.6571,-1.1488 -1.551,-1.4513 -0.9057,-0.3064 -1.621,-0.2927 -2.1456,0.0411 -0.5246,0.3338 -0.9262,0.9119 -1.2045,1.7341 -0.1895,0.5602 -0.206,0.9332 -0.0497,1.1188 0.1562,0.1857 0.5742,0.3935 1.2535,0.6234 z m 1.9448,-16.4353 c -0.3379,0.2891 -0.7185,0.6728 -1.142,1.151 -0.4232,0.4782 -0.7645,1.004 -1.0235,1.5772 -0.2229,0.493 -0.2627,0.9549 -0.1191,1.3856 0.1435,0.4309 0.4904,0.7706 1.0407,1.0195 0.7107,0.3212 1.5485,0.1407 2.5128,-0.5418 0.9643,-0.6823 1.9008,-1.3567 2.8095,-2.0228 1.1513,-0.6532 2.2486,-0.7439 3.2919,-0.2723 1.1694,0.5288 1.8476,1.3117 2.0345,2.3489 0.1869,1.0372 -0.0125,2.2034 -0.5982,3.499 -0.254,0.5618 -0.5206,1.0451 -0.8006,1.4503 -0.2798,0.405 -0.6155,0.8573 -1.0069,1.3569 l -1.393,-0.6298 c 0.4108,-0.2975 0.8681,-0.6982 1.372,-1.2022 0.504,-0.504 0.8855,-1.0425 1.1447,-1.6158 0.2798,-0.619 0.357,-1.2021 0.2315,-1.749 -0.1255,-0.5468 -0.5495,-0.9835 -1.2718,-1.31 -0.7564,-0.3421 -1.6506,-0.1663 -2.682,0.5271 -0.9089,0.6662 -1.8232,1.3297 -2.7433,1.9907 -1.1515,0.653 -2.2372,0.7489 -3.2575,0.2876 -0.9516,-0.4301 -1.5324,-1.0999 -1.7425,-2.0095 -0.2101,-0.9097 -0.0379,-1.9777 0.5167,-3.2046 0.2332,-0.5158 0.4745,-0.9729 0.7235,-1.3711 0.2492,-0.3984 0.5257,-0.8117 0.83,-1.2403 z m 2.9856,-3.3084 c -0.6764,-0.3888 -1.1277,-0.5503 -1.3541,-0.4846 -0.2265,0.0657 -0.6232,0.4654 -1.19,1.1989 l -0.36,-0.207 1.5938,-3.6554 11.1961,6.4375 -1.0348,1.7998 z m 11.0038,-2.5479 c 0.3794,0.2698 0.6818,0.4037 0.9071,0.4017 0.2251,-0.002 0.5127,-0.249 0.8628,-0.7411 0.955,-1.3433 1.2654,-2.485 0.9306,-3.4255 -0.3347,-0.9406 -1.3171,-1.9903 -2.9473,-3.1497 -1.5484,-1.101 -2.8228,-1.7022 -3.8235,-1.8041 -1.0005,-0.1017 -1.9748,0.5138 -2.9227,1.8467 -0.3426,0.4819 -0.5266,0.8491 -0.5515,1.1015 -0.0251,0.2523 0.1365,0.5024 0.4852,0.7504 z m -7.724,-2.9457 c -0.7485,-0.5322 -1.2452,-0.7889 -1.4901,-0.7701 -0.2451,0.0187 -0.679,0.347 -1.3022,0.9845 l -0.3384,-0.2406 3.0295,-4.2603 c 1.1812,-1.6609 2.43,-2.6681 3.7464,-3.0212 1.3161,-0.3529 2.9843,0.1887 5.0041,1.6251 1.5278,1.0864 2.4964,2.1343 2.9058,3.1431 0.4095,1.0091 0.4473,1.9816 0.1135,2.9177 -0.3335,0.936 -0.9269,2.0038 -1.78,3.2035 l -1.6296,2.2915 z m 9.6071,-12.8532 c -0.009,-0.0264 -0.1026,-0.1932 -0.2767,-0.5029 -0.172,-0.3073 -0.2738,-0.474 -0.3011,-0.5001 -0.2369,-0.2256 -0.4608,-0.2914 -0.6723,-0.1975 -0.2112,0.094 -0.5354,0.3064 -0.9725,0.6373 l -0.3005,-0.2865 2.4483,-2.5679 12.3699,5.4316 -1.3502,1.4071 -3.8175,-1.6755 -3.3295,3.492 1.8686,3.7286 -0.8205,0.8518 z m 3.3772,4.3934 2.8737,-3.014 -5.4642,-2.2548 z m 10.3876,-6.6477 c 0.3047,0.3519 0.5668,0.5535 0.7862,0.6048 0.2192,0.0515 0.557,-0.1205 1.0135,-0.5159 1.2459,-1.079 1.8173,-2.1151 1.7146,-3.1081 -0.1027,-0.993 -0.8089,-2.2454 -2.1187,-3.7575 -1.244,-1.4361 -2.3399,-2.3217 -3.2881,-2.6573 -0.9482,-0.3355 -2.0404,0.0321 -3.2767,1.103 -0.4468,0.3871 -0.7124,0.7004 -0.7964,0.9397 -0.084,0.2393 0.014,0.5205 0.294,0.8438 z m -6.8081,-4.6891 c -0.6015,-0.6943 -1.0232,-1.061 -1.2657,-1.1007 -0.2425,-0.0398 -0.7419,0.1764 -1.4982,0.6485 l -0.2718,-0.3139 3.9513,-3.4227 c 1.5406,-1.3344 2.9921,-2.0175 4.3546,-2.0491 1.3624,-0.0316 2.8551,0.8892 4.4779,2.7625 1.2274,1.4169 1.9205,2.6641 2.0798,3.7413 0.159,1.0774 -0.0342,2.0312 -0.58,2.8618 -0.5454,0.8305 -1.3745,1.7276 -2.4872,2.6913 l -2.1254,1.8411 z m 15.9178,-12.4621 c -0.4703,-0.8181 -0.8543,-1.2141 -1.1513,-1.1884 -0.2973,0.0257 -0.7913,0.1574 -1.4819,0.3949 l -0.207,-0.3599 3.4521,-1.9849 10.2802,5.9533 -5.0939,-8.9354 1.0307,-0.5925 6.3308,11.0106 -1.5707,0.9031 -10.7514,-6.2049 5.3197,9.328 -1.0305,0.5925 z m 14.486,-7.5595 c 0.003,-0.0279 -0.0118,-0.2184 -0.0398,-0.5726 -0.0269,-0.3511 -0.0492,-0.5451 -0.0632,-0.5804 -0.1198,-0.3043 -0.2955,-0.458 -0.5269,-0.4615 -0.2311,-0.004 -0.6147,0.053 -1.1502,0.1694 l -0.1524,-0.3862 3.3008,-1.3015 8.9424,10.1268 -1.8165,0.7096 -2.7601,-3.1247 -4.4887,1.7697 0.1289,4.1687 -1.1025,0.428 z m 1.2185,5.4059 3.8741,-1.5275 -4.0108,-4.3422 z m 18.8718,-1.7705 c -0.3339,0.2518 -0.8121,0.5479 -1.4348,0.8882 -0.6228,0.3404 -1.3215,0.6204 -2.0961,0.8404 -1.8154,0.5153 -3.2832,0.3436 -4.4034,-0.5154 -1.1202,-0.859 -1.981,-2.3475 -2.5825,-4.4655 -0.5395,-1.9001 -0.5942,-3.5096 -0.1642,-4.8284 0.4296,-1.3188 1.5826,-2.2445 3.4585,-2.7771 1.3192,-0.3746 2.3823,-0.4083 3.1887,-0.1011 0.8066,0.3072 1.3778,0.8446 1.7135,1.6126 l -2.1785,0.6187 c -0.2033,-0.4394 -0.5134,-0.8059 -0.9301,-1.0995 -0.4169,-0.2936 -0.9885,-0.3373 -1.7147,-0.1312 -0.8472,0.2407 -1.4309,0.8217 -1.7512,1.7431 -0.3206,0.9215 -0.2384,2.2354 0.2463,3.942 0.4502,1.5856 1.0878,2.9217 1.913,4.0083 0.8251,1.0866 2.0003,1.4134 3.5252,0.9804 0.6898,-0.196 1.2749,-0.4733 1.7551,-0.8318 0.4801,-0.3587 0.8552,-0.7073 1.1254,-1.0455 z m 0.8593,-10.0023 c -0.137,-0.768 -0.3035,-1.2174 -0.4995,-1.3486 -0.196,-0.1312 -0.7572,-0.1779 -1.6834,-0.1403 l -0.0729,-0.4087 3.8241,-1.1301 2.2701,12.7136 -2.0438,0.3649 z m 5.9423,2.7391 c -0.1659,-2.1827 0.0917,-3.8552 0.7731,-5.0173 0.6812,-1.1621 1.9942,-1.8173 3.9386,-1.9651 1.8568,-0.1413 3.2134,0.3171 4.0696,1.375 0.8565,1.0577 1.3668,2.6656 1.5309,4.8233 0.1623,2.1328 -0.0975,3.777 -0.7796,4.9331 -0.6817,1.1557 -1.9571,1.8048 -3.8263,1.9468 -1.8943,0.144 -3.2785,-0.3026 -4.1523,-1.3402 -0.8738,-1.0375 -1.3917,-2.6228 -1.554,-4.7556 z m 5.639,5.2114 c 1.2797,-0.0972 2.0649,-0.6805 2.3558,-1.7501 0.2908,-1.0693 0.3734,-2.4319 0.2475,-4.088 -0.1288,-1.6935 -0.4215,-3.0529 -0.878,-4.0781 -0.4564,-1.0252 -1.3183,-1.4895 -2.5853,-1.3932 -1.0035,0.0763 -1.7478,0.5366 -2.2324,1.381 -0.4845,0.8445 -0.6436,2.3642 -0.4766,4.5598 0.121,1.5931 0.4296,2.9104 0.9251,3.9516 0.4956,1.041 1.3768,1.5133 2.6439,1.417 z m 8.0932,-10.0548 c 0.0238,-0.9433 -0.0979,-1.4811 -0.3651,-1.6138 -0.2671,-0.1326 -0.7575,-0.2771 -1.471,-0.4336 l 0.0105,-0.4152 3.9807,0.1007 5.6828,10.4324 0.2978,-10.2811 1.1886,0.0301 -0.3212,12.6969 -1.8112,-0.0457 -5.9542,-10.8923 -0.3093,10.7338 -1.1885,-0.0301 z m 16.3514,1.1492 c 0.0167,-0.0224 0.1045,-0.1921 0.2665,-0.5083 0.1613,-0.313 0.244,-0.49 0.2506,-0.5272 0.0575,-0.322 -0.0113,-0.5451 -0.2064,-0.6694 -0.195,-0.1243 -0.5512,-0.2773 -1.0683,-0.4592 l 0.073,-0.4088 3.4929,0.6237 2.3004,13.3126 -1.9185,-0.3488 -0.7107,-4.1082 -4.7498,-0.8481 -2.0772,3.6167 -1.1632,-0.2141 z m -1.7987,5.2415 4.0997,0.732 -1.1369,-5.8007 z m 11.5893,-3.2427 c 0.2131,-0.7505 0.2604,-1.2274 0.1416,-1.4311 -0.1187,-0.2038 -0.6026,-0.4915 -1.4519,-0.8635 l 0.1133,-0.3994 3.9329,0.6589 -2.8988,10.2089 c -0.1924,0.6777 -0.2534,1.0887 -0.1834,1.2329 0.0702,0.1442 0.4081,0.3022 1.0131,0.474 l 1.5614,0.4434 c 0.7382,0.2096 1.3082,0.2636 1.7098,0.1618 0.4017,-0.1018 0.7142,-0.5461 0.9376,-1.3326 l 0.5082,0.1443 -0.8019,2.6169 -7.3706,-2.093 z m 15.2312,13.8378 c -0.2123,0.4143 -0.301,0.7327 -0.2667,0.9553 0.0344,0.2227 0.3205,0.4716 0.858,0.7469 1.4669,0.7513 2.6415,0.8935 3.5239,0.4265 0.8822,-0.4669 1.7794,-1.5906 2.6913,-3.3711 0.866,-1.691 1.2771,-3.0388 1.2333,-4.0438 -0.0437,-1.0047 -0.7933,-1.88 -2.2491,-2.6255 -0.5263,-0.2695 -0.9162,-0.3985 -1.1694,-0.3868 -0.2535,0.0117 -0.4776,0.2077 -0.6726,0.5884 z m 1.8,-8.0683 c 0.4188,-0.8176 0.6009,-1.3461 0.547,-1.5857 -0.0538,-0.2398 -0.4412,-0.6219 -1.1621,-1.1467 l 0.1893,-0.3695 4.6529,2.3831 c 1.814,0.929 2.9907,2.0194 3.5301,3.2711 0.5392,1.2514 0.244,2.9804 -0.8858,5.1863 -0.8546,1.6686 -1.7516,2.7782 -2.6908,3.3289 -0.9396,0.5508 -1.8964,0.7287 -2.8708,0.5335 -0.9743,-0.195 -2.1165,-0.6281 -3.4268,-1.2992 l -2.5027,-1.2818 z m 11.68,6.2062 c 0.4958,-0.7733 0.7282,-1.2818 0.6977,-1.5255 -0.0304,-0.2439 -0.3791,-0.6616 -1.0459,-1.2535 l 0.2241,-0.3496 7.6102,4.8788 -1.4597,2.382 -0.4449,-0.2852 c 0.3802,-0.5931 0.5011,-1.1022 0.3627,-1.5272 -0.1386,-0.4251 -0.4885,-0.8175 -1.0499,-1.1774 l -1.2391,-0.7945 c -0.4133,-0.2648 -0.7138,-0.3903 -0.902,-0.3765 -0.1883,0.0139 -0.3978,0.2009 -0.6287,0.561 l -2.0269,3.1615 1.9224,1.2325 c 0.4767,0.3056 0.8684,0.3998 1.175,0.2825 0.3069,-0.1171 0.6109,-0.3406 0.912,-0.6706 l 0.4449,0.2852 -2.1389,3.3364 -0.4448,-0.2852 c 0.2851,-0.4448 0.4018,-0.8484 0.35,-1.2104 -0.0518,-0.3619 -0.3109,-0.6924 -0.777,-0.9912 l -1.9224,-1.2325 -2.2712,3.5429 c -0.2785,0.4344 -0.3882,0.7338 -0.3294,0.8987 0.0588,0.1647 0.3053,0.3862 0.7395,0.6647 l 1.7636,1.1305 c 0.4871,0.3124 0.9187,0.4319 1.2942,0.3589 0.3757,-0.073 0.7535,-0.4062 1.1338,-0.9991 l 0.4449,0.2851 -1.5247,2.2731 -6.339,-4.0639 z m 14.7822,10.5375 c 0.5382,-0.5646 0.8023,-0.9646 0.7921,-1.2003 -0.01,-0.2356 -0.3038,-0.7157 -0.8819,-1.4406 l 0.2865,-0.3005 3.1723,2.4161 -7.3232,7.6809 c -0.486,0.5099 -0.7317,0.8449 -0.7369,1.0052 -0.005,0.1604 0.2202,0.4576 0.6754,0.8917 l 1.1747,1.12 c 0.5553,0.5295 1.0345,0.8429 1.4373,0.94 0.4027,0.0972 0.8863,-0.1501 1.4506,-0.7419 l 0.3824,0.3646 -1.9292,1.9414 -5.5455,-5.2872 z m 9.499,9.3782 c 0.0272,-0.007 0.2022,-0.0836 0.527,-0.2274 0.3223,-0.1419 0.4979,-0.2275 0.5265,-0.2522 0.2472,-0.2143 0.3341,-0.4311 0.2605,-0.6505 -0.0734,-0.2192 -0.254,-0.5621 -0.5416,-1.0288 l 0.3139,-0.2718 2.323,2.6818 -6.5853,11.7963 -1.2721,-1.478 2.0316,-3.6407 -3.1591,-3.647 -3.8897,1.505 -0.7696,-0.898 z m -4.6951,2.9434 2.7265,3.1477 2.765,-5.2246 z m 14.9785,10.3771 c 0.818,-0.4702 1.2158,-0.8512 1.1931,-1.1429 -0.0225,-0.2919 -0.1527,-0.7831 -0.3901,-1.4738 l 0.3599,-0.2069 2.1307,3.7056 -7.1686,8.432 10.8812,-1.9751 1.2684,2.206 -11.0107,6.3308 -0.9408,-1.6361 9.7345,-5.597 -11.7287,2.1287 -0.6679,-1.1616 7.6704,-8.9602 -9.6552,5.5081 -0.5927,-1.0308 z m 8.8655,17.3666 c 0.0279,0.003 0.2185,-0.0118 0.5726,-0.0396 0.3511,-0.0271 0.5451,-0.0494 0.5804,-0.0634 0.3043,-0.1198 0.4581,-0.2955 0.4616,-0.5269 0.004,-0.231 -0.0531,-0.6147 -0.1696,-1.1502 l 0.3864,-0.1524 1.3014,3.3008 -10.1267,8.9425 -0.7095,-1.8165 3.1245,-2.7602 -1.7697,-4.4885 -4.1687,0.1288 -0.428,-1.1024 z m -5.4059,1.2185 1.5275,3.8743 4.3422,-4.011 z m 10.7567,9.8178 -0.3556,-1.2527 c -0.2027,-0.7142 -0.4765,-1.1824 -0.8208,-1.405 -0.3444,-0.2228 -0.8494,-0.2395 -1.515,-0.0505 l -0.1444,-0.5083 2.6531,-0.6749 2.6393,9.2951 -2.6664,0.8356 -0.1443,-0.5083 c 0.6899,-0.1959 1.125,-0.483 1.3054,-0.8612 0.1803,-0.3781 0.1691,-0.9243 -0.0336,-1.6384 l -0.3505,-1.2344 -11.3647,3.227 -0.567,-1.997 z m 1.0206,11.5869 c 0.0265,0.009 0.2146,0.0423 0.5647,0.1027 0.347,0.0604 0.5406,0.0866 0.5781,0.0817 0.3244,-0.0412 0.5168,-0.1735 0.5773,-0.3967 0.0605,-0.2232 0.1001,-0.6088 0.1193,-1.1566 l 0.4119,-0.0525 0.4473,3.5198 -12.0191,6.169 -0.2398,-1.9351 3.7088,-1.9046 -0.6082,-4.7863 -4.0717,-0.9031 -0.143,-1.1739 z m -5.5394,-0.1523 0.525,4.1312 5.1971,-2.8164 z m 6.6797,10.0613 c 0.9434,-0.024 1.4745,-0.1727 1.5933,-0.4463 0.1192,-0.2735 0.2387,-0.7706 0.3589,-1.4909 l 0.4151,-0.0107 0.1007,3.9808 -10.1316,6.2029 10.2828,-0.2223 0.0301,1.1885 -12.6969,0.3212 -0.0457,-1.8111 10.5771,-6.4972 -10.7356,0.2336 -0.0301,-1.1885 z m -9.1617,12.1338 10.2092,7.1168 0.2418,-3.1804 c 0.0564,-0.7402 -0.002,-1.3029 -0.1745,-1.6882 -0.1725,-0.3853 -0.6728,-0.6094 -1.5007,-0.6725 l 0.04,-0.5269 2.7229,0.2829 -0.6211,8.1668 -0.9974,-0.0759 -10.2974,-7.199 -0.2934,3.8575 c -0.0573,0.7528 0.004,1.3189 0.1832,1.6984 0.1793,0.3797 0.6767,0.6004 1.4921,0.6624 l -0.0401,0.5269 -2.7229,-0.2827 0.6668,-8.7692 z m 7.2808,15.6649 c 0.0216,0.0179 0.1866,0.1141 0.4943,0.2917 0.3046,0.1768 0.4772,0.2681 0.514,0.2767 0.3187,0.0736 0.5449,0.0161 0.6789,-0.1726 0.134,-0.1884 0.3047,-0.5365 0.5122,-1.0438 l 0.4046,0.0933 -0.798,3.4572 -13.4112,1.6302 0.4446,-1.8987 4.1386,-0.504 1.0852,-4.7011 -3.5079,-2.2561 0.2719,-1.1508 z m -5.1448,-2.0591 -0.9365,4.0577 5.8504,-0.8446 z"
       style="fill:#1b1918;fill-rule:evenodd"
       id="path3" />
    <path
       d="m 297.6378,326.0507 c 52.4085,0 94.8939,42.4853 94.8939,94.8939 0,52.4084 -42.4854,94.8937 -94.8939,94.8937 -52.4084,0 -94.8937,-42.4853 -94.8937,-94.8937 0,-52.4086 42.4853,-94.8939 94.8937,-94.8939 z"
       style="fill:none"
       id="path4" />
    <path
       d="m 277.647,485.0003 c 0,-0.4303 -0.0816,-0.7531 -0.2447,-0.9682 -0.1634,-0.2152 -0.4824,-0.3229 -0.9573,-0.3229 -0.1632,0 -0.3932,0.0298 -0.6901,0.089 -0.2967,0.0594 -0.5046,0.0965 -0.6232,0.1114 v -0.601 l 3.9845,-1.6028 h 0.9795 v 14.0018 h -2.4487 z m 8.4368,9.5276 c 0.3857,0.1038 0.7827,0.1928 1.1908,0.2671 0.4082,0.0741 0.7978,0.1112 1.1688,0.1112 1.8698,0 3.0868,-0.5491 3.6506,-1.6472 0.564,-1.0982 0.8459,-2.5377 0.8459,-4.3185 -0.4304,0.4303 -0.8607,0.7568 -1.2911,0.9795 -0.4304,0.2226 -1.0759,0.3338 -1.9366,0.3338 -1.2911,0 -2.2817,-0.3525 -2.9718,-1.0573 -0.6901,-0.705 -1.0351,-1.7326 -1.0351,-3.0831 0,-2.9384 1.6027,-4.4076 4.8083,-4.4076 1.9143,0 3.2054,0.6011 3.8733,1.8032 0.6678,1.202 1.0017,2.8789 1.0017,5.0308 0,2.5229 -0.4638,4.389 -1.3912,5.5985 -0.9276,1.2094 -2.356,1.8142 -4.2852,1.8142 -0.6085,0 -1.2355,-0.0445 -1.8811,-0.1335 -0.6455,-0.089 -1.228,-0.193 -1.7473,-0.3118 z m 4.3853,-5.3203 c 0.6083,0 1.1167,-0.1744 1.5248,-0.5231 0.408,-0.3489 0.7235,-0.7235 0.946,-1.1242 0,-1.202 -0.1484,-2.304 -0.4451,-3.3057 -0.2969,-1.0016 -0.987,-1.5026 -2.0702,-1.5026 -0.8311,0 -1.4174,0.3229 -1.7586,0.9684 -0.3414,0.6456 -0.512,1.4283 -0.512,2.3484 0,0.9499 0.1929,1.7105 0.5787,2.2817 0.3859,0.5714 0.9646,0.8571 1.7364,0.8571 z m 7.88,2.8271 c 0,-0.9201 0.1819,-1.6732 0.5455,-2.2595 0.3635,-0.5862 1.1167,-1.0202 2.2593,-1.3022 -0.7865,-0.2226 -1.4172,-0.5787 -1.8921,-1.0685 -0.4748,-0.4897 -0.7123,-1.2392 -0.7123,-2.2483 0,-1.217 0.4156,-2.0962 1.2466,-2.6378 0.8311,-0.5418 1.9069,-0.8126 3.2278,-0.8126 1.2762,0 2.3409,0.2708 3.1943,0.8126 0.8533,0.5416 1.2801,1.4208 1.2801,2.6378 0,1.0387 -0.2486,1.8142 -0.7459,2.3262 -0.4971,0.512 -1.1316,0.8274 -1.9032,0.9461 0.8905,0.2671 1.588,0.6419 2.0925,1.1241 0.5046,0.4824 0.7568,1.3097 0.7568,2.4821 0,1.3949 -0.4081,2.3967 -1.2243,3.005 -0.8161,0.6085 -1.9662,0.9128 -3.4503,0.9128 -1.4396,0 -2.5786,-0.3005 -3.4171,-0.9015 -0.8383,-0.601 -1.2577,-1.6065 -1.2577,-3.0163 z m 4.7193,-4.0737 c 0.7568,0 1.2762,-0.2597 1.5582,-0.7791 0.282,-0.5195 0.423,-1.1946 0.423,-2.0257 0,-0.742 -0.1708,-1.3282 -0.512,-1.7586 -0.3414,-0.4304 -0.846,-0.6456 -1.5137,-0.6456 -1.3505,0 -2.0257,0.8015 -2.0257,2.4042 0,0.8607 0.1521,1.5433 0.4562,2.048 0.3044,0.5046 0.8423,0.7568 1.614,0.7568 z m -0.0445,6.9452 c 0.7716,0 1.3356,-0.2671 1.6917,-0.8013 0.3562,-0.5343 0.5342,-1.2244 0.5342,-2.0702 0,-0.9499 -0.1557,-1.7104 -0.4673,-2.2817 -0.3118,-0.5714 -0.8979,-0.857 -1.7586,-0.857 -0.8756,0 -1.4655,0.282 -1.7697,0.8458 -0.3043,0.5639 -0.4564,1.3283 -0.4564,2.2929 0,0.8458 0.1706,1.5359 0.512,2.0702 0.3414,0.5342 0.9127,0.8013 1.7141,0.8013 z m 7.8133,-0.3783 c 0.3858,0.1038 0.7828,0.1928 1.1909,0.2671 0.4082,0.0741 0.7978,0.1112 1.1688,0.1112 1.8698,0 3.0868,-0.5491 3.6506,-1.6472 0.5639,-1.0982 0.8459,-2.5377 0.8459,-4.3185 -0.4304,0.4303 -0.8607,0.7568 -1.2911,0.9795 -0.4304,0.2226 -1.076,0.3338 -1.9366,0.3338 -1.2912,0 -2.2817,-0.3525 -2.9718,-1.0573 -0.6901,-0.705 -1.0351,-1.7326 -1.0351,-3.0831 0,-2.9384 1.6027,-4.4076 4.8083,-4.4076 1.9143,0 3.2054,0.6011 3.8733,1.8032 0.6677,1.202 1.0017,2.8789 1.0017,5.0308 0,2.5229 -0.4639,4.389 -1.3912,5.5985 -0.9276,1.2094 -2.356,1.8142 -4.2852,1.8142 -0.6085,0 -1.2356,-0.0445 -1.8811,-0.1335 -0.6456,-0.089 -1.2281,-0.193 -1.7474,-0.3118 z m 4.3854,-5.3203 c 0.6083,0 1.1167,-0.1744 1.5247,-0.5231 0.4081,-0.3489 0.7235,-0.7235 0.9461,-1.1242 0,-1.202 -0.1484,-2.304 -0.4451,-3.3057 -0.2969,-1.0016 -0.987,-1.5026 -2.0702,-1.5026 -0.8311,0 -1.4174,0.3229 -1.7586,0.9684 -0.3414,0.6456 -0.5121,1.4283 -0.5121,2.3484 0,0.9499 0.193,1.7105 0.5788,2.2817 0.3859,0.5714 0.9646,0.8571 1.7364,0.8571 z"
       style="fill:#1b1918;fill-rule:evenodd"
       id="path5" />
    <path
       d="m 260.6517,423.937 c 0,3.3389 -0.5522,5.9072 -1.6566,7.7052 -1.1044,1.7979 -3.6085,2.6968 -7.5125,2.6968 -3.2877,0 -5.6505,-0.7448 -7.0888,-2.2345 -1.4384,-1.4897 -2.1574,-3.7241 -2.1574,-6.7035 v -12.3284 c 0,-1.5924 -0.1734,-2.5555 -0.5203,-2.8894 -0.3467,-0.3338 -1.4574,-0.6293 -3.3324,-0.8861 v -0.8476 l 8.0905,-0.899 v 15.9178 c 0,3.7562 0.4366,6.2026 1.3099,7.3456 0.8732,1.1429 2.273,1.7144 4.1992,1.7144 2.6199,0 4.2573,-0.6935 4.9121,-2.0804 0.655,-1.387 0.9825,-3.4161 0.9825,-6.0871 v -16.3736 h 2.7738 z m 6.7035,-11.0185 c 0,-1.9263 -0.276,-3.0178 -0.8281,-3.2747 -0.5523,-0.2567 -1.5604,-0.5264 -3.0244,-0.809 v -0.8476 h 8.1289 l 12.1358,20.9967 0.077,-20.9967 h 2.4271 v 25.928 h -3.6984 l -12.7136,-21.9213 -0.077,21.9213 h -2.4273 z m 25.774,0.1541 c 0,-1.5924 -0.1735,-2.5555 -0.5202,-2.8894 -0.3467,-0.3338 -1.4574,-0.6293 -3.3324,-0.8861 v -0.8476 l 8.0904,-0.899 v 21.6646 c 0,1.4383 0.1091,2.2794 0.3275,2.5234 0.2183,0.244 0.9696,0.366 2.2539,0.366 h 3.3131 c 1.5667,0 2.7161,-0.2119 3.4481,-0.6357 0.732,-0.4237 1.098,-1.4703 1.098,-3.1399 h 1.0787 l -0.1156,5.5863 h -15.6415 z m 28.4322,18.5696 c -0.7192,0.8476 -1.4062,1.509 -2.0612,1.9841 -0.6548,0.4752 -1.6245,0.7127 -2.9087,0.7127 -1.4639,0 -2.6904,-0.4431 -3.6792,-1.3291 -0.9888,-0.8861 -1.4833,-1.92 -1.4833,-3.1014 0,-1.8236 0.8862,-3.2683 2.6583,-4.3341 1.7723,-1.066 4.2635,-1.5989 7.4741,-1.5989 v -1.9648 c 0,-1.7208 -0.1284,-3.0051 -0.3853,-3.8527 -0.2567,-0.8474 -0.9374,-1.2713 -2.0419,-1.2713 -1.1301,0 -1.8621,0.3532 -2.1959,1.0595 -0.3339,0.7064 -0.5009,1.6631 -0.5009,2.8702 h -4.5845 c 0.2568,-1.5668 0.8988,-2.8317 1.9262,-3.7948 1.0273,-0.9631 2.7996,-1.4447 5.3166,-1.4447 2.5171,0 4.1994,0.5586 5.0469,1.6758 0.8476,1.1173 1.2713,2.7675 1.2713,4.9506 v 11.7119 h -3.8525 z m 0,-6.2798 c -1.4126,0 -2.7482,0.2504 -4.0067,0.7513 -1.2586,0.5008 -1.8877,1.5474 -1.8877,3.1398 0,0.899 0.2054,1.6246 0.6164,2.1767 0.4109,0.5523 0.976,0.8284 1.695,0.8284 1.0788,0 1.9457,-0.4431 2.6006,-1.3291 0.6549,-0.8861 0.9824,-1.997 0.9824,-3.3325 z m 10.0168,-12.4439 c 0,-1.9263 -0.2696,-3.0178 -0.809,-3.2747 -0.5394,-0.2567 -1.541,-0.5264 -3.005,-0.809 v -0.8476 h 8.7261 l 7.6282,21.2663 7.5767,-21.2663 h 5.1946 v 25.928 h -3.8525 v -22.923 l -8.1675,22.923 h -2.7354 l -8.052,-22.6918 -0.0771,22.6918 h -2.4271 z"
       style="fill:#1b1918;fill-rule:evenodd"
       id="path6" />
    <path
       d="m 297.6378,328.5983 c 51.0015,0 92.3463,41.3447 92.3463,92.3463 0,51.0015 -41.3448,92.3463 -92.3463,92.3463 -51.0016,0 -92.3463,-41.3448 -92.3463,-92.3463 0,-51.0016 41.3447,-92.3463 92.3463,-92.3463 z m -1e-4,2.5473 c 49.5944,0 89.799,40.2045 89.799,89.799 0,49.5943 -40.2046,89.7989 -89.799,89.7989 -49.5943,0 -89.7989,-40.2046 -89.7989,-89.7989 0,-49.5945 40.2046,-89.799 89.7989,-89.799 z"
       style="fill:#1b1918;fill-rule:evenodd"
       id="path7" />
    <path
       d="m 297.6378,306.9446 c 62.9606,0 114,51.0394 114,114 0,62.9606 -51.0394,114 -114,114 -62.9606,0 -114,-51.0394 -114,-114 0,-62.9606 51.0394,-114 114,-114 z m -1e-4,2.4782 c 61.5918,0 111.5218,49.93 111.5218,111.5218 0,61.5917 -49.93,111.5217 -111.5218,111.5217 -61.5917,0 -111.5217,-49.93 -111.5217,-111.5217 0,-61.5918 49.93,-111.5218 111.5217,-111.5218 z"
       style="fill:#1b1918;fill-rule:evenodd"
       id="path8" />
    <g
       id="Layer1001">
      <g
         id="Layer1002">
        <path
           d="m 269.4708,486.2893 c -22.4746,-4.8418 -41.0202,-24.3862 -46.5374,-52.3189 -3.2717,-16.5486 -1.2228,-34.5275 5.7748,-49.2902 6.8261,-14.3914 18.3475,-25.1957 31.0387,-31.0133 2.3049,-1.052 4.6485,-2.0912 7.0271,-2.8577 0.932,-0.3103 1.4709,-0.991 0.5373,-0.6893 -12.4313,4.0283 -24.8142,11.3503 -33.4723,22.9653 -8.5738,11.5093 -13.1538,26.3577 -13.8196,41.7236 -1.3499,31.0908 14.9233,60.057 38.9484,70.8243 3.2988,1.4817 6.5736,1.8746 10.0374,2.5749 z"
           style="fill:#1b1918;fill-rule:evenodd"
           id="path9" />
        <path
           d="m 240.1397,487.3782 c 0,0 0.3653,0.2039 1.0157,0.5176 0.6542,0.3016 1.5684,0.7706 2.6953,1.227 1.1407,0.4241 2.4314,0.9665 3.8749,1.3455 0.713,0.1999 1.4494,0.3996 2.1934,0.5748 0.7598,0.155 1.5236,0.2934 2.2851,0.4121 0.756,0.1343 1.5273,0.1999 2.2814,0.2402 0.7519,0.0367 1.4898,0.0738 2.2009,0.0491 1.4393,-0.0858 2.7481,-0.2119 3.8771,-0.5666 1.1325,-0.3507 2.0546,-0.8036 2.699,-1.3821 0.6445,-0.5831 1.0217,-1.3046 1.0469,-2.1283 -3.7148,-0.8072 -6.9452,-1.3128 -9.8377,-1.5329 -1.4357,-0.1303 -2.8008,-0.1508 -4.043,-0.1793 -0.6268,-0.008 -1.2324,0.0123 -1.8184,0.0367 -0.58,0.0243 -1.1268,0.0367 -1.656,0.0775 -2.1231,0.1792 -3.8128,0.4565 -4.992,0.7499 -1.1818,0.2855 -1.8226,0.5588 -1.8226,0.5588 z"
           style="fill:#1b1918;fill-rule:evenodd"
           id="path10" />
        <path
           d="m 228.6985,474.7846 c 0,0 0.305,0.2647 0.8439,0.7339 0.5352,0.4566 1.2926,1.1168 2.2597,1.814 0.955,0.7136 2.0665,1.5127 3.3183,2.2425 1.2208,0.7782 2.5781,1.4714 3.9318,2.0958 0.6657,0.3299 1.3768,0.5747 2.0527,0.8233 0.6893,0.2402 1.3473,0.4808 2.0135,0.6398 1.3397,0.3098 2.5605,0.5547 3.6757,0.534 1.1018,-0.012 2.037,-0.171 2.7402,-0.5216 0.7051,-0.3548 1.1874,-0.9215 1.3731,-1.6636 -3.2693,-1.7817 -6.1522,-3.1432 -8.7853,-4.1135 -2.5995,-1.0072 -4.9415,-1.6348 -6.9141,-2.0424 -0.9842,-0.2083 -1.8847,-0.3469 -2.6893,-0.4283 -0.7986,-0.0936 -1.4786,-0.1468 -2.0448,-0.1633 -1.1329,-0.0404 -1.7754,0.0494 -1.7754,0.0494 z"
           style="fill:#1b1918;fill-rule:evenodd"
           id="path11" />
        <path
           d="m 219.9487,459.5123 c 0,0 0.2265,0.3218 0.6347,0.8886 0.3948,0.5791 1.0199,1.3456 1.7657,2.2421 0.3731,0.4489 0.7639,0.942 1.2129,1.4272 0.4532,0.473 0.9259,0.9703 1.424,1.4919 0.9727,1.0398 2.1171,2.0061 3.2304,2.9557 1.1501,0.9136 2.3278,1.7411 3.4666,2.4137 1.1677,0.6485 2.2518,1.1985 3.2653,1.4842 2.0351,0.583 3.5646,0.4157 4.1952,-0.8806 -2.6657,-2.5483 -5.0642,-4.5703 -7.3142,-6.1604 -1.0837,-0.8315 -2.1799,-1.5 -3.172,-2.1197 -0.9857,-0.6238 -1.9491,-1.1336 -2.8278,-1.5696 -1.7188,-0.9094 -3.2304,-1.4269 -4.248,-1.7697 -1.0291,-0.326 -1.6328,-0.4034 -1.6328,-0.4034 z"
           style="fill:#1b1918;fill-rule:evenodd"
           id="path12" />
        <path
           d="m 214.3007,442.3484 c 0,0 0.0352,0.0857 0.1033,0.2567 0.0722,0.1632 0.1698,0.4162 0.3222,0.7175 0.2851,0.6156 0.7013,1.4842 1.2147,2.5074 0.5023,1.0232 1.188,2.1526 1.8926,3.3513 0.7189,1.1983 1.5801,2.3892 2.4221,3.5553 0.9019,1.125 1.8065,2.2136 2.7342,3.135 0.9472,0.905 1.8457,1.6879 2.717,2.2342 1.7518,1.0883 3.187,1.345 4.0036,0.3383 -1.9667,-3.0657 -3.7831,-5.5731 -5.5586,-7.6281 -0.863,-1.0397 -1.6972,-1.9689 -2.5328,-2.7843 -0.7912,-0.8358 -1.5606,-1.5617 -2.2972,-2.1853 -1.4509,-1.2596 -2.6776,-2.1608 -3.5896,-2.7072 -0.4574,-0.2852 -0.8167,-0.4809 -1.055,-0.6115 -0.2459,-0.1224 -0.3765,-0.1793 -0.3765,-0.1793 z"
           style="fill:#1b1918;fill-rule:evenodd"
           id="path13" />
        <path
           d="m 212.0507,424.2075 c 0.005,0.0252 0.0831,0.3808 0.2205,0.9973 0.1579,0.6281 0.3341,1.5288 0.656,2.585 0.3204,1.0556 0.6721,2.2791 1.1253,3.5424 0.4843,1.2721 0.9705,2.5973 1.5704,3.8731 1.1815,2.5523 2.6073,4.8846 3.9684,6.3602 1.3967,1.4678 2.6564,2.0958 3.5939,1.4068 -0.2931,-0.836 -0.594,-1.6392 -0.9102,-2.4015 -0.3204,-0.7623 -0.5898,-1.5124 -0.9042,-2.2099 -0.6369,-1.3981 -1.2054,-2.6949 -1.8322,-3.8727 -1.1995,-2.3565 -2.4352,-4.2726 -3.5097,-5.8059 -0.5426,-0.7582 -1.0838,-1.4267 -1.5546,-1.9891 -0.4652,-0.5669 -0.8907,-1.0401 -1.25,-1.4068 -0.7057,-0.7265 -1.1596,-1.0695 -1.1736,-1.0801 z"
           style="fill:#1b1918;fill-rule:evenodd"
           id="path14" />
        <path
           d="m 213.2067,406.0719 c 0,0 -0.006,0.3464 0.0218,0.958 0.0367,0.6115 0.0876,1.4801 0.1695,2.5197 0.0647,1.031 0.2167,2.2342 0.4083,3.498 0.0939,0.6276 0.1913,1.2841 0.3069,1.9364 0.1343,0.6606 0.281,1.3169 0.4315,1.9729 0.1542,0.6527 0.3144,1.2968 0.4824,1.9248 0.1931,0.6317 0.3963,1.2432 0.6036,1.8262 0.414,1.1662 0.8398,2.2137 1.3495,3.0662 0.9862,1.708 2.0097,2.6291 2.9939,2.2665 -0.9041,-6.727 -2.4236,-11.5252 -3.9294,-14.8929 -0.6995,-1.6677 -1.4162,-2.948 -1.9569,-3.8039 -0.2717,-0.4199 -0.4843,-0.7421 -0.6389,-0.9539 -0.1542,-0.2119 -0.2422,-0.318 -0.2422,-0.318 z"
           style="fill:#1b1918;fill-rule:evenodd"
           id="path15" />
        <path
           d="m 217.7066,388.8017 c 0,0 -0.2171,1.2803 -0.4494,3.1841 -0.0839,0.9625 -0.1736,2.0837 -0.2459,3.2697 -0.0644,1.1908 -0.0449,2.4749 -0.0273,3.7263 0.0957,2.5322 0.3884,5.0066 0.9786,6.8168 0.2848,0.9053 0.6074,1.6347 0.9903,2.1283 0.3922,0.5015 0.8259,0.7582 1.3027,0.7257 0.0977,-1.5901 0.156,-3.074 0.1408,-4.4644 0.0231,-1.3779 -0.0588,-2.6867 -0.1374,-3.889 -0.0681,-1.195 -0.1969,-2.3158 -0.3627,-3.3514 -0.1351,-1.0235 -0.3012,-1.9692 -0.4906,-2.8173 -0.3945,-1.7166 -0.7732,-3.0291 -1.1111,-3.9422 -0.3338,-0.9094 -0.588,-1.3866 -0.588,-1.3866 z"
           style="fill:#1b1918;fill-rule:evenodd"
           id="path16" />
        <path
           d="m 225.2806,373.3299 c 0,0 -0.1015,0.2732 -0.283,0.7503 -0.1778,0.4686 -0.4176,1.1538 -0.662,1.9974 -0.2482,0.8402 -0.5453,1.8102 -0.8069,2.8663 -0.2459,1.0598 -0.488,2.2016 -0.6912,3.3348 -0.1777,1.1496 -0.3084,2.3038 -0.3847,3.3839 -0.0861,1.0804 -0.0472,2.1201 0.0333,3.0007 0.1463,1.7652 0.6602,2.9924 1.5291,3.1881 1.5333,-5.6058 1.9454,-10.0251 1.8749,-13.2987 -0.0333,-1.6231 -0.199,-2.9437 -0.3281,-3.8326 -0.1389,-0.8929 -0.2814,-1.3902 -0.2814,-1.3902 z"
           style="fill:#1b1918;fill-rule:evenodd"
           id="path17" />
        <path
           d="m 235.4542,360.4104 c 0,0 -0.1347,0.2118 -0.379,0.5908 -0.2302,0.3915 -0.5524,0.9541 -0.9256,1.6351 -0.7675,1.3331 -1.6541,3.2286 -2.4161,5.1492 -0.3532,0.9782 -0.6814,1.973 -0.9472,2.9232 -0.2653,0.9334 -0.4199,1.8753 -0.5115,2.6825 -0.1838,1.6186 0.0351,2.8499 0.7792,3.2616 2.416,-4.6028 3.5683,-8.4515 4.0604,-11.4114 0.256,-1.4516 0.3398,-2.6705 0.3555,-3.5227 0.027,-0.8316 -0.0157,-1.3083 -0.0157,-1.3083 z"
           style="fill:#1b1918;fill-rule:evenodd"
           id="path18" />
        <path
           d="m 247.6904,350.6419 c 0,0 -0.6309,0.6482 -1.531,1.6553 -0.4535,0.4891 -0.961,1.1089 -1.4726,1.7896 -0.5139,0.6852 -1.0625,1.3903 -1.5546,2.1687 -0.4925,0.7874 -0.9593,1.5782 -1.3578,2.3484 -0.4042,0.7627 -0.7088,1.5539 -0.9337,2.2506 -0.4469,1.3982 -0.4921,2.5277 0.0962,3.0984 2.9921,-3.4448 4.6989,-6.5594 5.6327,-9.0993 0.9666,-2.4423 1.1208,-4.2117 1.1208,-4.2117 z"
           style="fill:#1b1918;fill-rule:evenodd"
           id="path19" />
        <path
           d="m 261.3641,344.5264 c 0,0 -0.6677,0.3997 -1.6347,1.0438 -0.9472,0.7096 -2.2028,1.6265 -3.3379,2.7398 -0.574,0.5584 -1.119,1.1373 -1.6133,1.7039 -0.4862,0.5749 -0.8983,1.1905 -1.2227,1.7369 -0.6407,1.1294 -0.8884,2.104 -0.4783,2.76 0.832,-0.5423 1.5704,-1.1047 2.2305,-1.6919 0.6737,-0.5543 1.2773,-1.1089 1.8144,-1.6755 0.5333,-0.5789 1.0115,-1.1253 1.4374,-1.6432 0.4218,-0.5255 0.7851,-1.0518 1.0977,-1.5449 0.6227,-1.0071 1.0661,-1.8144 1.3341,-2.442 0.2672,-0.6115 0.3728,-0.9869 0.3728,-0.9869 z"
           style="fill:#1b1918;fill-rule:evenodd"
           id="path20" />
        <path
           d="m 252.136,466.0599 c 0,0 0.7342,0.9948 1.8806,2.552 0.5939,0.7339 1.2481,1.696 2.0216,2.6176 0.3806,0.4766 0.7714,0.978 1.1755,1.4959 0.4162,0.4892 0.8361,0.999 1.2582,1.5248 0.4139,0.5422 0.8495,1.0441 1.2792,1.5576 0.4315,0.5176 0.8472,1.0598 1.2575,1.5819 0.8341,0.9824 1.592,2.0546 2.2424,3.0002 0.6481,0.9585 1.156,1.9001 1.4356,2.793 0.2791,0.8888 0.3357,1.7043 0.0407,2.4584 -3.492,-1.3861 -6.121,-3.5548 -7.9978,-5.7854 -0.9334,-1.1534 -1.7032,-2.2709 -2.2908,-3.4325 -0.3009,-0.5707 -0.5647,-1.1212 -0.7994,-1.6593 -0.2302,-0.5506 -0.4176,-1.0966 -0.5837,-1.6145 -0.6756,-2.0591 -0.8769,-3.8732 -0.9413,-5.1125 -0.0625,-1.2515 0.0217,-1.9772 0.0217,-1.9772 z"
           style="fill:#1b1918;fill-rule:evenodd"
           id="path21" />
        <path
           d="m 243.6887,457.9958 c 0,0 0.1288,0.281 0.3532,0.7784 0.2287,0.5056 0.5333,1.2477 0.9495,2.0957 0.4061,0.8601 0.869,1.8956 1.412,2.9678 0.5214,1.1212 1.1269,2.2667 1.711,3.4738 0.2829,0.6114 0.6093,1.178 0.906,1.7858 0.2871,0.5951 0.5801,1.1987 0.8713,1.7936 0.5879,1.1498 1.0838,2.3526 1.5097,3.4042 0.4218,1.0644 0.7088,2.0752 0.7949,2.9764 0.0921,0.8967 -0.0157,1.6553 -0.4297,2.2704 -2.9493,-2.2503 -4.9669,-4.9657 -6.2929,-7.5338 -1.3068,-2.6091 -1.9415,-5.0841 -2.1836,-7.1799 -0.1209,-1.0634 -0.156,-2.0096 -0.1486,-2.8375 0.018,-0.8351 0.0999,-1.5654 0.1782,-2.1604 0.168,-1.1822 0.369,-1.8345 0.369,-1.8345 z"
           style="fill:#1b1918;fill-rule:evenodd"
           id="path22" />
        <path
           d="m 236.8973,447.7544 c 0,0 0.0666,0.3057 0.1841,0.8319 0.0992,0.5418 0.2969,1.2757 0.5157,2.1848 0.1131,0.4528 0.2148,0.9626 0.3473,1.4842 0.1348,0.5139 0.2778,1.0723 0.4278,1.647 0.2736,1.1782 0.6486,2.3727 0.9532,3.6572 0.3496,1.2596 0.6912,2.5481 0.9963,3.7954 0.3259,1.2149 0.5661,2.4585 0.7596,3.5472 0.369,2.1851 0.3182,4.048 -0.6601,4.9333 -2.2754,-2.8908 -3.623,-5.9322 -4.3847,-8.6435 -0.3439,-1.3903 -0.5919,-2.6702 -0.6896,-3.881 -0.0918,-1.2233 -0.1014,-2.3281 -0.0353,-3.3228 0.1778,-2.0303 0.5352,-3.5512 0.9121,-4.6151 0.3712,-1.0599 0.6736,-1.6186 0.6736,-1.6186 z"
           style="fill:#1b1918;fill-rule:evenodd"
           id="path23" />
        <path
           d="m 232.1456,435.8497 c 0,0 0.004,0.0776 0.008,0.216 0,0.1429 0,0.3466 0.0181,0.5955 0.0269,0.5174 0.062,1.2555 0.0856,2.1608 0.0214,0.909 0.1231,1.9363 0.1579,3.0983 0.0551,1.1456 0.1722,2.3603 0.219,3.6324 0.1055,1.2312 0.1624,2.5238 0.2207,3.7551 0.0742,1.2107 0.0742,2.4053 0.0372,3.4614 -0.0622,2.1077 -0.4588,3.7951 -1.5255,4.3378 -1.543,-3.266 -2.2128,-6.4134 -2.4119,-9.112 -0.0782,-1.3618 -0.0315,-2.6216 0.0662,-3.7469 0.1366,-1.1455 0.3421,-2.177 0.5782,-3.0699 0.4846,-1.8061 1.1563,-3.1474 1.6486,-4.0156 0.2518,-0.4323 0.4745,-0.7664 0.6406,-0.9827 0.1639,-0.2202 0.2575,-0.3302 0.2575,-0.3302 z"
           style="fill:#1b1918;fill-rule:evenodd"
           id="path24" />
        <path
           d="m 229.7512,422.8157 c 0,0 -0.1681,1.0887 -0.4236,2.7806 -0.1194,0.8357 -0.2658,1.8222 -0.4162,2.9027 -0.1149,1.0639 -0.3065,2.2342 -0.451,3.3961 -0.3106,2.3484 -0.6249,4.7701 -1.1111,6.6903 -0.4513,1.9121 -1.1332,3.3473 -2.2054,3.5389 -0.1815,-0.8522 -0.3398,-1.68 -0.4569,-2.479 -0.125,-0.799 -0.164,-1.5901 -0.2032,-2.3401 -0.1014,-1.4962 0.0139,-2.8944 0.1643,-4.1627 0.3495,-2.5317 1.0352,-4.5414 1.8259,-6.0743 0.3907,-0.7627 0.7717,-1.4151 1.1545,-1.9531 0.3944,-0.5461 0.7597,-0.9825 1.0741,-1.3166 0.6306,-0.677 1.0486,-0.9828 1.0486,-0.9828 z"
           style="fill:#1b1918;fill-rule:evenodd"
           id="path25" />
        <path
           d="m 229.8294,409.3172 c 0,0 -0.0996,0.2403 -0.2481,0.6684 -0.1408,0.4282 -0.3537,1.0396 -0.619,1.7818 -0.2851,0.738 -0.5624,1.6103 -0.8847,2.5601 -0.1658,0.473 -0.3398,0.9581 -0.5194,1.4719 -0.1602,0.5015 -0.3282,1.0149 -0.5038,1.5408 -0.3555,1.0033 -0.723,2.0388 -1.0901,3.0781 -0.3691,0.9951 -0.7833,1.9367 -1.1523,2.744 -0.7755,1.6185 -1.6699,2.7315 -2.6796,2.6174 0.006,-1.6553 0.0468,-3.1717 0.3006,-4.562 0.1134,-0.6972 0.242,-1.3537 0.3868,-1.9775 0.1427,-0.6238 0.3459,-1.2148 0.5315,-1.769 0.7361,-2.2301 1.7963,-3.8816 2.7282,-5.0882 1.006,-1.2069 1.9337,-1.9651 2.6129,-2.43 0.3343,-0.2364 0.6273,-0.3955 0.8245,-0.4931 0.1991,-0.0977 0.3125,-0.1427 0.3125,-0.1427 z"
           style="fill:#1b1918;fill-rule:evenodd"
           id="path26" />
        <path
           d="m 232.4465,396.1036 c 0,0 -0.4685,0.8035 -1.2365,2.0099 -0.3532,0.6198 -0.7773,1.3417 -1.2556,2.112 -0.4767,0.7746 -0.9412,1.6309 -1.4726,2.4748 -1.0056,1.6919 -2.0917,3.4366 -3.0841,4.6963 -0.5075,0.6279 -1.021,1.1298 -1.5094,1.4315 -0.4786,0.3095 -0.9509,0.4075 -1.4004,0.2118 0.2714,-1.5004 0.6662,-2.8457 1.0936,-4.0526 0.4805,-1.1905 0.9633,-2.238 1.5156,-3.1392 0.5625,-0.9049 1.1347,-1.6755 1.6954,-2.3154 0.5938,-0.6444 1.1758,-1.1661 1.7188,-1.5902 1.0718,-0.8562 2.1014,-1.2926 2.8027,-1.541 0.7069,-0.2531 1.1325,-0.2979 1.1325,-0.2979 z"
           style="fill:#1b1918;fill-rule:evenodd"
           id="path27" />
        <path
           d="m 237.5383,383.8359 c 0,0 -2.2267,2.3121 -4.7891,4.9658 -0.6073,0.6486 -1.2244,1.2885 -1.8554,1.8716 -0.6347,0.5831 -1.2032,1.1414 -1.787,1.5654 -1.1658,0.8481 -2.1852,1.2803 -2.9259,0.689 0.5102,-1.284 1.1449,-2.3685 1.7347,-3.3513 0.6403,-0.9416 1.3046,-1.7447 1.9393,-2.4336 1.3495,-1.3252 2.623,-2.1688 3.791,-2.6295 1.1464,-0.4858 2.0995,-0.6691 2.8023,-0.7017 0.6935,-0.0408 1.0901,0.0243 1.0901,0.0243 z"
           style="fill:#1b1918;fill-rule:evenodd"
           id="path28" />
        <path
           d="m 244.8488,373.1548 c 0,0 -0.1583,0.0938 -0.4375,0.269 -0.2814,0.1751 -0.6736,0.436 -1.1545,0.7459 -0.9824,0.5913 -2.2421,1.464 -3.6017,2.263 -0.6561,0.4278 -1.3357,0.8398 -2.0074,1.1984 -0.674,0.3589 -1.2911,0.7136 -1.8925,0.9336 -0.594,0.2324 -1.1464,0.3669 -1.6172,0.3589 -0.4651,-0.008 -0.8536,-0.1632 -1.1309,-0.5258 2.8378,-4.0283 6.0252,-5.3126 8.2205,-5.6098 1.1231,-0.1347 2.0236,-0.0491 2.6407,0.0692 0.6329,0.1384 0.9805,0.2976 0.9805,0.2976 z"
           style="fill:#1b1918;fill-rule:evenodd"
           id="path29" />
        <path
           d="m 254.042,364.6542 c 0,0 -0.6287,0.2242 -1.6054,0.5176 -0.4922,0.1389 -1.0588,0.3222 -1.6699,0.5299 -0.6018,0.2043 -1.2833,0.3753 -1.9494,0.5876 -0.6658,0.2118 -1.3473,0.4035 -2.0116,0.5505 -0.6643,0.1426 -1.2754,0.2971 -1.8494,0.342 -1.1427,0.0936 -2.0647,-0.1017 -2.4143,-0.8846 3.2521,-2.817 6.3145,-3.135 8.3205,-2.8743 2.0601,0.3388 3.1795,1.2313 3.1795,1.2313 z"
           style="fill:#1b1918;fill-rule:evenodd"
           id="path30" />
        <path
           d="m 264.6764,358.8527 c 0,0 -0.6033,0.0367 -1.5231,0.0409 -0.4569,0.0206 -0.9921,0.0531 -1.5726,0.0651 -0.5778,0.0165 -1.2106,0 -1.8338,0.0284 -0.6286,0.008 -1.2657,0.005 -1.8786,-0.0404 -0.6134,-0.0408 -1.1819,-0.0696 -1.6973,-0.1797 -1.0254,-0.2117 -1.797,-0.6317 -1.967,-1.4183 0.8458,-0.3795 1.6542,-0.6527 2.4064,-0.8443 0.7635,-0.1632 1.4825,-0.2159 2.1426,-0.2242 0.6519,-0.016 1.2634,0.0734 1.8203,0.2118 0.5565,0.1306 1.0524,0.2979 1.4879,0.4813 0.8731,0.3589 1.5356,0.8847 1.969,1.2437 0.4314,0.3708 0.6462,0.6357 0.6462,0.6357 z"
           style="fill:#1b1918;fill-rule:evenodd"
           id="path31" />
        <path
           d="m 272.958,341.2331 c -0.0921,0.0557 -0.5901,0.3588 -1.2822,0.82 -0.751,0.5636 -1.7502,1.2926 -2.6548,2.1766 -0.4517,0.4439 -0.8892,0.9037 -1.2802,1.3539 -0.3882,0.4571 -0.7138,0.9462 -0.9701,1.3799 -0.5104,0.8975 -0.7059,1.6718 -0.3813,2.1931 0.6609,-0.4307 1.2458,-0.8777 1.7716,-1.3443 0.5371,-0.4405 1.0165,-0.881 1.442,-1.3312 0.4236,-0.46 0.802,-0.8941 1.1403,-1.3053 0.3353,-0.418 0.6238,-0.8357 0.8754,-1.2275 0.4936,-0.8006 0.8442,-1.4416 1.0579,-1.9405 0.1911,-0.436 0.2782,-0.7209 0.2941,-0.7747 z"
           style="fill:#1b1918;fill-rule:evenodd"
           id="path32" />
        <path
           d="m 275.6035,352.6063 c 0,0 -0.4779,0.0292 -1.2103,0.0326 -0.3614,0.0161 -0.7851,0.0419 -1.2462,0.0516 -0.4592,0.0131 -0.9651,0 -1.4584,0.0228 -0.4981,0.006 -1.0075,0.003 -1.4914,-0.0325 -0.4887,-0.0322 -0.9404,-0.055 -1.3499,-0.1422 -0.8116,-0.1688 -1.4281,-0.5023 -1.5628,-1.1277 0.6718,-0.3011 1.3129,-0.5183 1.9101,-0.6702 0.6082,-0.1294 1.1793,-0.1717 1.704,-0.1781 0.5183,-0.0132 1.0037,0.058 1.4479,0.1683 0.4405,0.1034 0.8331,0.2366 1.1822,0.3822 0.6939,0.2851 1.2182,0.7028 1.5628,0.988 0.3429,0.2945 0.512,0.5052 0.512,0.5052 z"
           style="fill:#1b1918;fill-rule:evenodd"
           id="path33" />
        <path
           d="m 286.6597,344.9295 c 0,0 -0.6871,-0.11 -1.7859,-0.2395 -0.5494,-0.0813 -1.1964,-0.0939 -1.9135,-0.1168 -0.3611,-0.003 -0.7372,-0.016 -1.1215,-0.0131 -0.3882,0.0263 -0.7841,0.052 -1.1856,0.0812 -0.4054,0.0323 -0.8181,0.0614 -1.2294,0.1165 -0.4095,0.0681 -0.8238,0.1426 -1.2336,0.2234 -0.8206,0.1426 -1.6185,0.3952 -2.3602,0.6639 -0.7493,0.253 -1.4259,0.6062 -2.0079,0.9688 -0.2934,0.1783 -0.5602,0.3724 -0.8008,0.5637 -0.2343,0.2006 -0.436,0.421 -0.6097,0.6381 0.5135,0.0614 1.1202,0.0614 1.7735,-0.003 0.658,-0.0809 1.3642,-0.2365 2.1138,-0.3854 0.3708,-0.0745 0.7492,-0.1719 1.1358,-0.2755 0.3817,-0.0936 0.7709,-0.1879 1.1619,-0.2815 0.3916,-0.1002 0.7838,-0.2073 1.1719,-0.3241 0.388,-0.0905 0.7757,-0.1845 1.1608,-0.275 0.3802,-0.1037 0.7542,-0.2044 1.1172,-0.3016 0.3645,-0.0775 0.7185,-0.1617 1.0598,-0.2366 0.6811,-0.1617 1.3005,-0.3334 1.8266,-0.4243 1.0521,-0.2168 1.7268,-0.3788 1.7268,-0.3788 z"
           style="fill:#1b1918;fill-rule:evenodd"
           id="path34" />
      </g>
      <g
         id="Layer1003">
        <path
           d="m 325.8047,486.2893 c 22.4746,-4.8418 41.0202,-24.3862 46.5374,-52.3189 3.2716,-16.5486 1.2227,-34.5275 -5.7749,-49.2902 -6.8261,-14.3914 -18.3474,-25.1957 -31.0387,-31.0133 -2.3048,-1.052 -4.6484,-2.0912 -7.0271,-2.8577 -0.9319,-0.3103 -1.4708,-0.991 -0.5373,-0.6893 12.4314,4.0283 24.8142,11.3503 33.4724,22.9653 8.5738,11.5093 13.1537,26.3577 13.8195,41.7236 1.3499,31.0908 -14.9232,60.057 -38.9484,70.8243 -3.2988,1.4817 -6.5736,1.8746 -10.0373,2.5749 z"
           style="fill:#1b1918;fill-rule:evenodd"
           id="path35" />
        <path
           d="m 355.1357,487.3782 c 0,0 -0.3652,0.2039 -1.0156,0.5176 -0.6542,0.3016 -1.5685,0.7706 -2.6953,1.227 -1.1407,0.4241 -2.4314,0.9665 -3.8749,1.3455 -0.713,0.1999 -1.4495,0.3996 -2.1934,0.5748 -0.7598,0.155 -1.5236,0.2934 -2.2852,0.4121 -0.7559,0.1343 -1.5273,0.1999 -2.2813,0.2402 -0.7519,0.0367 -1.4898,0.0738 -2.2009,0.0491 -1.4394,-0.0858 -2.7481,-0.2119 -3.8772,-0.5666 -1.1324,-0.3507 -2.0545,-0.8036 -2.699,-1.3821 -0.6444,-0.5831 -1.0217,-1.3046 -1.0468,-2.1283 3.7147,-0.8072 6.9452,-1.3128 9.8377,-1.5329 1.4356,-0.1303 2.8008,-0.1508 4.0429,-0.1793 0.6269,-0.008 1.2324,0.0123 1.8184,0.0367 0.5801,0.0243 1.1269,0.0367 1.6561,0.0775 2.1231,0.1792 3.8128,0.4565 4.992,0.7499 1.1818,0.2855 1.8225,0.5588 1.8225,0.5588 z"
           style="fill:#1b1918;fill-rule:evenodd"
           id="path36" />
        <path
           d="m 366.577,474.7846 c 0,0 -0.305,0.2647 -0.8439,0.7339 -0.5352,0.4566 -1.2926,1.1168 -2.2597,1.814 -0.9551,0.7136 -2.0665,1.5127 -3.3183,2.2425 -1.2208,0.7782 -2.5782,1.4714 -3.9318,2.0958 -0.6658,0.3299 -1.3769,0.5747 -2.0527,0.8233 -0.6894,0.2402 -1.3473,0.4808 -2.0135,0.6398 -1.3397,0.3098 -2.5605,0.5547 -3.6757,0.534 -1.1018,-0.012 -2.037,-0.171 -2.7403,-0.5216 -0.705,-0.3548 -1.1874,-0.9215 -1.373,-1.6636 3.2693,-1.7817 6.1521,-3.1432 8.7852,-4.1135 2.5995,-1.0072 4.9415,-1.6348 6.9142,-2.0424 0.9842,-0.2083 1.8846,-0.3469 2.6893,-0.4283 0.7986,-0.0936 1.4786,-0.1468 2.0448,-0.1633 1.1328,-0.0404 1.7754,0.0494 1.7754,0.0494 z"
           style="fill:#1b1918;fill-rule:evenodd"
           id="path37" />
        <path
           d="m 375.3268,459.5123 c 0,0 -0.2265,0.3218 -0.6347,0.8886 -0.3949,0.5791 -1.0199,1.3456 -1.7658,2.2421 -0.3731,0.4489 -0.7638,0.942 -1.2128,1.4272 -0.4532,0.473 -0.9259,0.9703 -1.424,1.4919 -0.9727,1.0398 -2.1171,2.0061 -3.2305,2.9557 -1.15,0.9136 -2.3278,1.7411 -3.4666,2.4137 -1.1676,0.6485 -2.2517,1.1985 -3.2652,1.4842 -2.0352,0.583 -3.5647,0.4157 -4.1952,-0.8806 2.6656,-2.5483 5.0642,-4.5703 7.3141,-6.1604 1.0838,-0.8315 2.1799,-1.5 3.172,-2.1197 0.9858,-0.6238 1.9491,-1.1336 2.8278,-1.5696 1.7189,-0.9094 3.2305,-1.4269 4.248,-1.7697 1.0292,-0.326 1.6329,-0.4034 1.6329,-0.4034 z"
           style="fill:#1b1918;fill-rule:evenodd"
           id="path38" />
        <path
           d="m 380.9748,442.3484 c 0,0 -0.0352,0.0857 -0.1033,0.2567 -0.0723,0.1632 -0.1699,0.4162 -0.3222,0.7175 -0.2852,0.6156 -0.7013,1.4842 -1.2148,2.5074 -0.5023,1.0232 -1.1879,2.1526 -1.8925,3.3513 -0.7189,1.1983 -1.5801,2.3892 -2.4221,3.5553 -0.9019,1.125 -1.8065,2.2136 -2.7342,3.135 -0.9472,0.905 -1.8458,1.6879 -2.717,2.2342 -1.7518,1.0883 -3.187,1.345 -4.0037,0.3383 1.9667,-3.0657 3.7832,-5.5731 5.5586,-7.6281 0.863,-1.0397 1.6973,-1.9689 2.5329,-2.7843 0.7912,-0.8358 1.5606,-1.5617 2.2971,-2.1853 1.4509,-1.2596 2.6777,-2.1608 3.5897,-2.7072 0.4573,-0.2852 0.8166,-0.4809 1.055,-0.6115 0.2459,-0.1224 0.3765,-0.1793 0.3765,-0.1793 z"
           style="fill:#1b1918;fill-rule:evenodd"
           id="path39" />
        <path
           d="m 383.2247,424.2075 c -0.005,0.0252 -0.083,0.3808 -0.2204,0.9973 -0.158,0.6281 -0.3342,1.5288 -0.656,2.585 -0.3204,1.0556 -0.6722,2.2791 -1.1254,3.5424 -0.4842,1.2721 -0.9704,2.5973 -1.5703,3.8731 -1.1815,2.5523 -2.6074,4.8846 -3.9684,6.3602 -1.3967,1.4678 -2.6565,2.0958 -3.5939,1.4068 0.2931,-0.836 0.5939,-1.6392 0.9102,-2.4015 0.3203,-0.7623 0.5898,-1.5124 0.9041,-2.2099 0.637,-1.3981 1.2055,-2.6949 1.8323,-3.8727 1.1995,-2.3565 2.4352,-4.2726 3.5097,-5.8059 0.5426,-0.7582 1.0837,-1.4267 1.5545,-1.9891 0.4652,-0.5669 0.8907,-1.0401 1.25,-1.4068 0.7058,-0.7265 1.1596,-1.0695 1.1736,-1.0801 z"
           style="fill:#1b1918;fill-rule:evenodd"
           id="path40" />
        <path
           d="m 382.0687,406.0719 c 0,0 0.006,0.3464 -0.0217,0.958 -0.0367,0.6115 -0.0876,1.4801 -0.1695,2.5197 -0.0647,1.031 -0.2168,2.2342 -0.4084,3.498 -0.0938,0.6276 -0.1912,1.2841 -0.3069,1.9364 -0.1343,0.6606 -0.281,1.3169 -0.4314,1.9729 -0.1542,0.6527 -0.3144,1.2968 -0.4825,1.9248 -0.193,0.6317 -0.3962,1.2432 -0.6036,1.8262 -0.4139,1.1662 -0.8397,2.2137 -1.3495,3.0662 -0.9861,1.708 -2.0096,2.6291 -2.9939,2.2665 0.9042,-6.727 2.4236,-11.5252 3.9295,-14.8929 0.6995,-1.6677 1.4162,-2.948 1.9569,-3.8039 0.2717,-0.4199 0.4843,-0.7421 0.6388,-0.9539 0.1543,-0.2119 0.2422,-0.318 0.2422,-0.318 z"
           style="fill:#1b1918;fill-rule:evenodd"
           id="path41" />
        <path
           d="m 377.5689,388.8017 c 0,0 0.217,1.2803 0.4493,3.1841 0.084,0.9625 0.1737,2.0837 0.2459,3.2697 0.0644,1.1908 0.0449,2.4749 0.0274,3.7263 -0.0958,2.5322 -0.3885,5.0066 -0.9786,6.8168 -0.2848,0.9053 -0.6074,1.6347 -0.9903,2.1283 -0.3922,0.5015 -0.826,0.7582 -1.3027,0.7257 -0.0977,-1.5901 -0.1561,-3.074 -0.1408,-4.4644 -0.0231,-1.3779 0.0588,-2.6867 0.1374,-3.889 0.0681,-1.195 0.1969,-2.3158 0.3627,-3.3514 0.135,-1.0235 0.3012,-1.9692 0.4905,-2.8173 0.3945,-1.7166 0.7733,-3.0291 1.1111,-3.9422 0.3339,-0.9094 0.5881,-1.3866 0.5881,-1.3866 z"
           style="fill:#1b1918;fill-rule:evenodd"
           id="path42" />
        <path
           d="m 369.9949,373.3299 c 0,0 0.1014,0.2732 0.2829,0.7503 0.1778,0.4686 0.4177,1.1538 0.6621,1.9974 0.2481,0.8402 0.5453,1.8102 0.8069,2.8663 0.2459,1.0598 0.488,2.2016 0.6912,3.3348 0.1777,1.1496 0.3084,2.3038 0.3847,3.3839 0.0861,1.0804 0.0472,2.1201 -0.0333,3.0007 -0.1463,1.7652 -0.6602,2.9924 -1.5291,3.1881 -1.5334,-5.6058 -1.9454,-10.0251 -1.875,-13.2987 0.0334,-1.6231 0.1991,-2.9437 0.3282,-3.8326 0.1388,-0.8929 0.2814,-1.3902 0.2814,-1.3902 z"
           style="fill:#1b1918;fill-rule:evenodd"
           id="path43" />
        <path
           d="m 359.8212,360.4104 c 0,0 0.1348,0.2118 0.3791,0.5908 0.2302,0.3915 0.5524,0.9541 0.9256,1.6351 0.7675,1.3331 1.654,3.2286 2.416,5.1492 0.3533,0.9782 0.6815,1.973 0.9472,2.9232 0.2654,0.9334 0.4199,1.8753 0.5116,2.6825 0.1837,1.6186 -0.0351,2.8499 -0.7792,3.2616 -2.4161,-4.6028 -3.5684,-8.4515 -4.0605,-11.4114 -0.256,-1.4516 -0.3398,-2.6705 -0.3555,-3.5227 -0.0269,-0.8316 0.0157,-1.3083 0.0157,-1.3083 z"
           style="fill:#1b1918;fill-rule:evenodd"
           id="path44" />
        <path
           d="m 347.5851,350.6419 c 0,0 0.6309,0.6482 1.531,1.6553 0.4535,0.4891 0.961,1.1089 1.4725,1.7896 0.5139,0.6852 1.0626,1.3903 1.5547,2.1687 0.4924,0.7874 0.9592,1.5782 1.3578,2.3484 0.4042,0.7627 0.7087,1.5539 0.9336,2.2506 0.447,1.3982 0.4921,2.5277 -0.0961,3.0984 -2.9921,-3.4448 -4.699,-6.5594 -5.6327,-9.0993 -0.9667,-2.4423 -1.1208,-4.2117 -1.1208,-4.2117 z"
           style="fill:#1b1918;fill-rule:evenodd"
           id="path45" />
        <path
           d="m 333.9114,344.5264 c 0,0 0.6677,0.3997 1.6347,1.0438 0.9472,0.7096 2.2028,1.6265 3.3379,2.7398 0.574,0.5584 1.119,1.1373 1.6133,1.7039 0.4862,0.5749 0.8982,1.1905 1.2226,1.7369 0.6408,1.1294 0.8885,2.104 0.4784,2.76 -0.8321,-0.5423 -1.5704,-1.1047 -2.2306,-1.6919 -0.6736,-0.5543 -1.2772,-1.1089 -1.8143,-1.6755 -0.5333,-0.5789 -1.0115,-1.1253 -1.4375,-1.6432 -0.4217,-0.5255 -0.7851,-1.0518 -1.0976,-1.5449 -0.6227,-1.0071 -1.0661,-1.8144 -1.3341,-2.442 -0.2672,-0.6115 -0.3728,-0.9869 -0.3728,-0.9869 z"
           style="fill:#1b1918;fill-rule:evenodd"
           id="path46" />
        <path
           d="m 343.1394,466.0599 c 0,0 -0.7342,0.9948 -1.8805,2.552 -0.594,0.7339 -1.2481,1.696 -2.0217,2.6176 -0.3806,0.4766 -0.7713,0.978 -1.1755,1.4959 -0.4161,0.4892 -0.836,0.999 -1.2581,1.5248 -0.414,0.5422 -0.8495,1.0441 -1.2792,1.5576 -0.4315,0.5176 -0.8473,1.0598 -1.2575,1.5819 -0.8341,0.9824 -1.592,2.0546 -2.2424,3.0002 -0.6482,0.9585 -1.156,1.9001 -1.4356,2.793 -0.2791,0.8888 -0.3357,1.7043 -0.0408,2.4584 3.4921,-1.3861 6.1211,-3.5548 7.9979,-5.7854 0.9333,-1.1534 1.7032,-2.2709 2.2908,-3.4325 0.3008,-0.5707 0.5647,-1.1212 0.7993,-1.6593 0.2302,-0.5506 0.4177,-1.0966 0.5838,-1.6145 0.6755,-2.0591 0.8769,-3.8732 0.9413,-5.1125 0.0625,-1.2515 -0.0218,-1.9772 -0.0218,-1.9772 z"
           style="fill:#1b1918;fill-rule:evenodd"
           id="path47" />
        <path
           d="m 351.5868,457.9958 c 0,0 -0.1288,0.281 -0.3533,0.7784 -0.2287,0.5056 -0.5333,1.2477 -0.9494,2.0957 -0.4061,0.8601 -0.8691,1.8956 -1.412,2.9678 -0.5214,1.1212 -1.1269,2.2667 -1.711,3.4738 -0.2829,0.6114 -0.6094,1.178 -0.9061,1.7858 -0.287,0.5951 -0.5801,1.1987 -0.8713,1.7936 -0.5879,1.1498 -1.0837,2.3526 -1.5096,3.4042 -0.4218,1.0644 -0.7089,2.0752 -0.7949,2.9764 -0.0921,0.8967 0.0157,1.6553 0.4296,2.2704 2.9494,-2.2503 4.967,-4.9657 6.2929,-7.5338 1.3069,-2.6091 1.9416,-5.0841 2.1836,-7.1799 0.121,-1.0634 0.1561,-2.0096 0.1487,-2.8375 -0.0181,-0.8351 -0.1,-1.5654 -0.1782,-2.1604 -0.1681,-1.1822 -0.369,-1.8345 -0.369,-1.8345 z"
           style="fill:#1b1918;fill-rule:evenodd"
           id="path48" />
        <path
           d="m 358.3782,447.7544 c 0,0 -0.0666,0.3057 -0.1842,0.8319 -0.0992,0.5418 -0.2968,1.2757 -0.5157,2.1848 -0.113,0.4528 -0.2148,0.9626 -0.3473,1.4842 -0.1347,0.5139 -0.2777,1.0723 -0.4277,1.647 -0.2736,1.1782 -0.6486,2.3727 -0.9533,3.6572 -0.3495,1.2596 -0.6911,2.5481 -0.9962,3.7954 -0.3259,1.2149 -0.5662,2.4585 -0.7597,3.5472 -0.3689,2.1851 -0.3181,4.048 0.6602,4.9333 2.2754,-2.8908 3.623,-5.9322 4.3846,-8.6435 0.344,-1.3903 0.592,-2.6702 0.6897,-3.881 0.0918,-1.2233 0.1014,-2.3281 0.0352,-3.3228 -0.1778,-2.0303 -0.5352,-3.5512 -0.912,-4.6151 -0.3713,-1.0599 -0.6736,-1.6186 -0.6736,-1.6186 z"
           style="fill:#1b1918;fill-rule:evenodd"
           id="path49" />
        <path
           d="m 363.1299,435.8497 c 0,0 -0.004,0.0776 -0.008,0.216 0,0.1429 0,0.3466 -0.018,0.5955 -0.0269,0.5174 -0.0621,1.2555 -0.0856,2.1608 -0.0214,0.909 -0.1232,1.9363 -0.158,3.0983 -0.055,1.1456 -0.1721,2.3603 -0.2189,3.6324 -0.1056,1.2312 -0.1624,2.5238 -0.2208,3.7551 -0.0741,1.2107 -0.0741,2.4053 -0.0371,3.4614 0.0622,2.1077 0.4588,3.7951 1.5255,4.3378 1.543,-3.266 2.2128,-6.4134 2.4119,-9.112 0.0782,-1.3618 0.0315,-2.6216 -0.0662,-3.7469 -0.1366,-1.1455 -0.3421,-2.177 -0.5783,-3.0699 -0.4846,-1.8061 -1.1563,-3.1474 -1.6485,-4.0156 -0.2518,-0.4323 -0.4745,-0.7664 -0.6406,-0.9827 -0.1639,-0.2202 -0.2575,-0.3302 -0.2575,-0.3302 z"
           style="fill:#1b1918;fill-rule:evenodd"
           id="path50" />
        <path
           d="m 365.5243,422.8157 c 0,0 0.168,1.0887 0.4236,2.7806 0.1193,0.8357 0.2657,1.8222 0.4162,2.9027 0.1149,1.0639 0.3064,2.2342 0.4509,3.3961 0.3106,2.3484 0.625,4.7701 1.1112,6.6903 0.4512,1.9121 1.1331,3.3473 2.2053,3.5389 0.1815,-0.8522 0.3398,-1.68 0.4569,-2.479 0.1251,-0.799 0.164,-1.5901 0.2033,-2.3401 0.1014,-1.4962 -0.0139,-2.8944 -0.1643,-4.1627 -0.3496,-2.5317 -1.0352,-4.5414 -1.8259,-6.0743 -0.3908,-0.7627 -0.7717,-1.4151 -1.1546,-1.9531 -0.3944,-0.5461 -0.7596,-0.9825 -1.0741,-1.3166 -0.6305,-0.677 -1.0485,-0.9828 -1.0485,-0.9828 z"
           style="fill:#1b1918;fill-rule:evenodd"
           id="path51" />
        <path
           d="m 365.446,409.3172 c 0,0 0.0996,0.2403 0.2482,0.6684 0.1407,0.4282 0.3536,1.0396 0.619,1.7818 0.2851,0.738 0.5624,1.6103 0.8847,2.5601 0.1658,0.473 0.3398,0.9581 0.5194,1.4719 0.1602,0.5015 0.3282,1.0149 0.5038,1.5408 0.3555,1.0033 0.7229,2.0388 1.0901,3.0781 0.3691,0.9951 0.7833,1.9367 1.1523,2.744 0.7754,1.6185 1.6698,2.7315 2.6795,2.6174 -0.006,-1.6553 -0.0467,-3.1717 -0.3005,-4.562 -0.1134,-0.6972 -0.2421,-1.3537 -0.3869,-1.9775 -0.1427,-0.6238 -0.3458,-1.2148 -0.5315,-1.769 -0.7361,-2.2301 -1.7963,-3.8816 -2.7281,-5.0882 -1.006,-1.2069 -1.9337,-1.9651 -2.613,-2.43 -0.3342,-0.2364 -0.6272,-0.3955 -0.8245,-0.4931 -0.1991,-0.0977 -0.3125,-0.1427 -0.3125,-0.1427 z"
           style="fill:#1b1918;fill-rule:evenodd"
           id="path52" />
        <path
           d="m 362.8289,396.1036 c 0,0 0.4686,0.8035 1.2365,2.0099 0.3533,0.6198 0.7773,1.3417 1.2557,2.112 0.4767,0.7746 0.9411,1.6309 1.4726,2.4748 1.0056,1.6919 2.0917,3.4366 3.0841,4.6963 0.5075,0.6279 1.0209,1.1298 1.5093,1.4315 0.4787,0.3095 0.951,0.4075 1.4005,0.2118 -0.2714,-1.5004 -0.6662,-2.8457 -1.0937,-4.0526 -0.4804,-1.1905 -0.9632,-2.238 -1.5156,-3.1392 -0.5624,-0.9049 -1.1347,-1.6755 -1.6953,-2.3154 -0.5939,-0.6444 -1.1758,-1.1661 -1.7189,-1.5902 -1.0718,-0.8562 -2.1013,-1.2926 -2.8026,-1.541 -0.707,-0.2531 -1.1326,-0.2979 -1.1326,-0.2979 z"
           style="fill:#1b1918;fill-rule:evenodd"
           id="path53" />
        <path
           d="m 357.7371,383.8359 c 0,0 2.2267,2.3121 4.7892,4.9658 0.6073,0.6486 1.2244,1.2885 1.8554,1.8716 0.6347,0.5831 1.2032,1.1414 1.787,1.5654 1.1657,0.8481 2.1852,1.2803 2.9259,0.689 -0.5102,-1.284 -1.1449,-2.3685 -1.7347,-3.3513 -0.6403,-0.9416 -1.3046,-1.7447 -1.9393,-2.4336 -1.3495,-1.3252 -2.6231,-2.1688 -3.7911,-2.6295 -1.1463,-0.4858 -2.0995,-0.6691 -2.8023,-0.7017 -0.6934,-0.0408 -1.0901,0.0243 -1.0901,0.0243 z"
           style="fill:#1b1918;fill-rule:evenodd"
           id="path54" />
        <path
           d="m 350.4267,373.1548 c 0,0 0.1582,0.0938 0.4374,0.269 0.2815,0.1751 0.6737,0.436 1.1546,0.7459 0.9824,0.5913 2.242,1.464 3.6016,2.263 0.6561,0.4278 1.3357,0.8398 2.0074,1.1984 0.6741,0.3589 1.2912,0.7136 1.8926,0.9336 0.5939,0.2324 1.1463,0.3669 1.6171,0.3589 0.4652,-0.008 0.8537,-0.1632 1.131,-0.5258 -2.8379,-4.0283 -6.0253,-5.3126 -8.2206,-5.6098 -1.1231,-0.1347 -2.0235,-0.0491 -2.6406,0.0692 -0.6329,0.1384 -0.9805,0.2976 -0.9805,0.2976 z"
           style="fill:#1b1918;fill-rule:evenodd"
           id="path55" />
        <path
           d="m 341.2334,364.6542 c 0,0 0.6288,0.2242 1.6055,0.5176 0.4921,0.1389 1.0587,0.3222 1.6699,0.5299 0.6018,0.2043 1.2833,0.3753 1.9494,0.5876 0.6657,0.2118 1.3472,0.4035 2.0115,0.5505 0.6643,0.1426 1.2755,0.2971 1.8495,0.342 1.1426,0.0936 2.0647,-0.1017 2.4143,-0.8846 -3.2522,-2.817 -6.3146,-3.135 -8.3205,-2.8743 -2.0602,0.3388 -3.1796,1.2313 -3.1796,1.2313 z"
           style="fill:#1b1918;fill-rule:evenodd"
           id="path56" />
        <path
           d="m 330.599,358.8527 c 0,0 0.6033,0.0367 1.5232,0.0409 0.4569,0.0206 0.9921,0.0531 1.5726,0.0651 0.5777,0.0165 1.2106,0 1.8337,0.0284 0.6287,0.008 1.2657,0.005 1.8787,-0.0404 0.6134,-0.0408 1.1819,-0.0696 1.6972,-0.1797 1.0254,-0.2117 1.7971,-0.6317 1.967,-1.4183 -0.8458,-0.3795 -1.6541,-0.6527 -2.4064,-0.8443 -0.7635,-0.1632 -1.4824,-0.2159 -2.1426,-0.2242 -0.6518,-0.016 -1.2633,0.0734 -1.8202,0.2118 -0.5566,0.1306 -1.0524,0.2979 -1.488,0.4813 -0.873,0.3589 -1.5355,0.8847 -1.9689,1.2437 -0.4314,0.3708 -0.6463,0.6357 -0.6463,0.6357 z"
           style="fill:#1b1918;fill-rule:evenodd"
           id="path57" />
        <path
           d="m 322.3175,341.2331 c 0.0921,0.0557 0.59,0.3588 1.2821,0.82 0.7511,0.5636 1.7503,1.2926 2.6549,2.1766 0.4517,0.4439 0.8892,0.9037 1.2802,1.3539 0.3882,0.4571 0.7137,0.9462 0.97,1.3799 0.5105,0.8975 0.7059,1.6718 0.3814,2.1931 -0.6609,-0.4307 -1.2458,-0.8777 -1.7716,-1.3443 -0.5371,-0.4405 -1.0165,-0.881 -1.442,-1.3312 -0.4236,-0.46 -0.802,-0.8941 -1.1403,-1.3053 -0.3353,-0.418 -0.6239,-0.8357 -0.8754,-1.2275 -0.4936,-0.8006 -0.8442,-1.4416 -1.058,-1.9405 -0.191,-0.436 -0.2781,-0.7209 -0.294,-0.7747 z"
           style="fill:#1b1918;fill-rule:evenodd"
           id="path58" />
        <path
           d="m 319.672,352.6063 c 0,0 0.4779,0.0292 1.2103,0.0326 0.3614,0.0161 0.7851,0.0419 1.2462,0.0516 0.4592,0.0131 0.9651,0 1.4584,0.0228 0.4981,0.006 1.0075,0.003 1.4913,-0.0325 0.4888,-0.0322 0.9405,-0.055 1.3499,-0.1422 0.8117,-0.1688 1.4281,-0.5023 1.5629,-1.1277 -0.6719,-0.3011 -1.3129,-0.5183 -1.9102,-0.6702 -0.6082,-0.1294 -1.1792,-0.1717 -1.7039,-0.1781 -0.5183,-0.0132 -1.0038,0.058 -1.4479,0.1683 -0.4405,0.1034 -0.8331,0.2366 -1.1822,0.3822 -0.6939,0.2851 -1.2182,0.7028 -1.5629,0.988 -0.3428,0.2945 -0.5119,0.5052 -0.5119,0.5052 z"
           style="fill:#1b1918;fill-rule:evenodd"
           id="path59" />
        <path
           d="m 308.6158,344.9295 c 0,0 0.6871,-0.11 1.7858,-0.2395 0.5494,-0.0813 1.1964,-0.0939 1.9136,-0.1168 0.3611,-0.003 0.7371,-0.016 1.1215,-0.0131 0.3881,0.0263 0.784,0.052 1.1856,0.0812 0.4053,0.0323 0.8181,0.0614 1.2294,0.1165 0.4095,0.0681 0.8237,0.1426 1.2335,0.2234 0.8207,0.1426 1.6185,0.3952 2.3603,0.6639 0.7493,0.253 1.4259,0.6062 2.0078,0.9688 0.2935,0.1783 0.5603,0.3724 0.8009,0.5637 0.2343,0.2006 0.436,0.421 0.6096,0.6381 -0.5134,0.0614 -1.1201,0.0614 -1.7735,-0.003 -0.6579,-0.0809 -1.3641,-0.2365 -2.1137,-0.3854 -0.3709,-0.0745 -0.7493,-0.1719 -1.1358,-0.2755 -0.3817,-0.0936 -0.771,-0.1879 -1.162,-0.2815 -0.3915,-0.1002 -0.7837,-0.2073 -1.1718,-0.3241 -0.388,-0.0905 -0.7758,-0.1845 -1.1609,-0.275 -0.3802,-0.1037 -0.7541,-0.2044 -1.1171,-0.3016 -0.3645,-0.0775 -0.7185,-0.1617 -1.0598,-0.2366 -0.6812,-0.1617 -1.3005,-0.3334 -1.8267,-0.4243 -1.052,-0.2168 -1.7267,-0.3788 -1.7267,-0.3788 z"
           style="fill:#1b1918;fill-rule:evenodd"
           id="path60" />
      </g>
    </g>
    <path
       d="m 387.8888,464.6279 c 2.0503,0 3.7125,1.6621 3.7125,3.7124 0,2.0502 -1.6622,3.7123 -3.7125,3.7123 -2.0501,0 -3.7123,-1.6621 -3.7123,-3.7123 0,-2.0503 1.6622,-3.7124 3.7123,-3.7124 z"
       style="fill:#1b1918;fill-rule:evenodd"
       id="path61" />
    <path
       d="m 207.6072,464.6279 c 2.0503,0 3.7124,1.6621 3.7124,3.7124 0,2.0502 -1.6621,3.7123 -3.7124,3.7123 -2.0503,0 -3.7124,-1.6621 -3.7124,-3.7123 0,-2.0503 1.6621,-3.7124 3.7124,-3.7124 z"
       style="fill:#1b1918;fill-rule:evenodd"
       id="path62" />
  </g>
</svg>
