<?xml version="1.0" encoding="UTF-8" standalone="no"?>
<!-- Created with Inkscape (http://www.inkscape.org/) -->

<svg
   version="1.1"
   id="svg2"
   width="1822"
   height="1822"
   viewBox="0 0 1822 1822"
   sodipodi:docname="unlamNuevoFeoLogo.svg"
   inkscape:version="1.2.2 (b0a8486541, 2022-12-01)"
   xmlns:inkscape="http://www.inkscape.org/namespaces/inkscape"
   xmlns:sodipodi="http://sodipodi.sourceforge.net/DTD/sodipodi-0.dtd"
   xmlns="http://www.w3.org/2000/svg"
   xmlns:svg="http://www.w3.org/2000/svg">
  <defs
     id="defs6" />
  <sodipodi:namedview
     id="namedview4"
     pagecolor="#ffffff"
     bordercolor="#999999"
     borderopacity="1"
     inkscape:showpageshadow="0"
     inkscape:pageopacity="0"
     inkscape:pagecheckerboard="0"
     inkscape:deskcolor="#d1d1d1"
     showgrid="false"
     inkscape:zoom="0.36139457"
     inkscape:cx="392.92234"
     inkscape:cy="787.22821"
     inkscape:window-width="1920"
     inkscape:window-height="1060"
     inkscape:window-x="0"
     inkscape:window-y="1"
     inkscape:window-maximized="1"
     inkscape:current-layer="g8" />
  <g
     inkscape:groupmode="layer"
     inkscape:label="Image"
     id="g8">
    <path
       style="fill:#000000"
       d="M 867,1795.9164 C 618.51121,1783.3414 389.51599,1669.0723 229.89581,1478 152.46409,1385.3109 94.284338,1276.443 60.488846,1161 43.197068,1101.9325 33.158356,1047.7947 27.389788,982.5 l -1.501893,-17 -0.573914,-40.57929 -0.573913,-40.57928 1.175457,-21.42072 C 34.679622,703.20999 84.863917,552.26222 173.33576,419.5 239.57541,320.09975 326.094,234.41593 426.5,168.77842 526.47928,103.41986 636.68743,59.685521 754.5,38.616885 c 49.0335,-8.768751 88.82288,-12.471762 143,-13.308343 l 37,-0.571339 20.5,1.176513 c 65.0971,3.735982 115.8688,11.418895 175.5,26.557129 128.0201,32.499754 246.5134,93.331795 349.5,179.426205 37.4061,31.27063 82.0718,76.32931 114.0991,115.10295 33.7262,40.83036 65.3973,87.12635 91.3274,133.5 9.4075,16.82447 31.1598,61.02978 39.1199,79.5 27.9456,64.84354 48.5393,134.87522 59.938,203.82755 6.6432,40.18533 9.809,71.94566 11.6673,117.05114 l 1.1692,28.37869 -1.171,30.12131 c -1.3202,33.95947 -3.0635,56.11934 -6.6712,84.80011 -24.603,195.5933 -115.8904,379.2834 -257.6292,518.4058 -58.8798,57.793 -122.3974,105.1349 -194.7464,145.1513 -95.5132,52.8286 -205.4237,88.5318 -314.6031,102.1951 -49.872,6.2412 -106.99599,8.44 -155.5,5.9854 z m 85,-18.928 c 49.1489,-2.5013 97.8743,-8.8453 142.2283,-18.5179 145.5011,-31.7305 276.5858,-97.9868 389.7717,-197.0087 17.9162,-15.6741 62.438,-60.3244 78.2362,-78.4618 70.8903,-81.387 124.3053,-170.6172 160.7297,-268.5 28.3886,-76.2883 44.899,-150.2746 51.9949,-233 0.5662,-6.6 1.5626,-25.38143 2.2143,-41.73652 l 1.1849,-29.73652 -1.1843,-28.76348 C 1774.4438,814.91218 1767.0903,761.83247 1752.3411,702 1718.5097,564.75744 1652.5711,440.41268 1556.1436,332.01759 1542.3869,316.55346 1509.7559,283.74245 1493.0641,268.5899 1364.7857,152.14127 1205.0488,76.975017 1034,52.571299 994.15222,46.886175 969.37889,45.017164 924.5,44.310128 l -36,-0.567155 -22,1.168368 C 770.34493,50.01791 678.30295,69.998826 591,104.71821 456.09657,158.36776 338.08896,243.96903 244.16295,356.30955 185.09491,426.95808 136.35906,509.42776 102.42215,596.16004 95.098865,614.87609 83.898964,648.03501 77.988283,668.5 61.774861,724.63695 52.13946,776.80779 46.314052,840 l -1.797618,19.5 -0.0032,51 -0.0032,51 1.799951,20 c 4.771493,53.018 12.559527,99.179 24.632373,146 26.496723,102.7599 70.993932,198.513 132.441622,285 45.20718,63.6286 100.37193,122.5396 160.04694,170.9157 53.3666,43.2621 103.06278,75.1056 164.96449,105.7031 99.13276,49.0006 205.39918,77.9415 317.10461,86.3611 11,0.8291 23.825,1.6437 28.5,1.8102 21.17718,0.7544 60.21663,0.6034 78,-0.3017 z m -17,-21.1259 c 0,-0.6256 4.275,-17.4039 9.5,-37.285 5.225,-19.8811 9.5,-37.5731 9.5,-39.3155 v -3.168 l -3.75,-1.0414 c -2.0625,-0.5728 -4.3125,-1.044 -5,-1.047 -1.36336,-0.01 -1.70453,-1.6084 -0.5,-2.3482 0.4125,-0.2533 5.7,-0.7799 11.75,-1.17 l 11,-0.7094 18.87261,40.1551 c 10.37993,22.0852 18.70489,40.2981 18.49999,40.4729 -0.2049,0.1748 -2.9722,0.5737 -6.14944,0.8865 l -5.77683,0.5685 -5.9017,-12.4305 -5.9017,-12.4305 h -2.32146 c -3.14349,0 -29.24022,2.2503 -29.63887,2.5579 -0.17457,0.1347 -1.82313,5.8946 -3.66347,12.7997 -1.84033,6.9051 -3.63656,13.0248 -3.99161,13.5993 -0.87435,1.4147 -6.52752,1.3342 -6.52752,-0.093 z m 30.5,-33.4279 c 5.5,-0.3789 10.54419,-0.9768 11.20931,-1.3287 l 1.20932,-0.6399 -8.54477,-17.3142 c -4.69961,-9.5228 -8.68966,-17.1652 -8.86676,-16.983 -0.50592,0.5204 -9.5071,35.3275 -9.5071,36.7634 v 1.2846 l 2.25,-0.5467 c 1.2375,-0.3007 6.75,-0.8567 12.25,-1.2355 z m -85.12158,32.5817 -2.12158,-0.8568 -0.68678,-2.8298 c -0.37772,-1.5563 -2.01941,-7.1834 -3.64818,-12.5046 l -2.96141,-9.6749 -2.73023,-0.5186 c -1.50163,-0.2853 -8.80524,-0.8068 -16.23024,-1.1591 l -13.5,-0.6404 -4.75283,11.3339 c -2.61406,6.2337 -5.13487,11.9276 -5.60179,12.6532 l -0.84895,1.3192 -3.49919,-0.3192 -3.49918,-0.3192 14.85014,-34 c 8.16758,-18.7 15.37608,-35.7019 16.01888,-37.7821 l 1.16873,-3.7821 -1.21198,-1.2179 c -0.66659,-0.6698 -2.62748,-1.6989 -4.35754,-2.2868 -1.73005,-0.5879 -3.34031,-1.6532 -3.57835,-2.3673 l -0.4328,-1.2984 11.37243,0.7288 c 6.25484,0.4008 11.55766,0.9013 11.78405,1.1122 0.2264,0.211 2.77419,8.3733 5.66177,18.1386 2.88757,9.7652 8.43984,28.5369 12.33837,41.7149 3.89853,13.1779 7.08824,24.3154 7.08824,24.75 0,1.0432 -7.91676,0.8989 -10.62158,-0.1936 z m -11.6366,-33.2663 c -0.25968,-0.6875 -2.82314,-8.675 -5.69657,-17.75 -2.87344,-9.075 -5.5452,-16.8386 -5.93726,-17.2524 -0.39206,-0.4139 -4.12378,7.104 -8.29273,16.7064 l -7.5799,17.4587 4.13232,0.5523 c 3.71208,0.4961 6.54362,0.6868 19.98931,1.3459 l 3.85699,0.1891 z m -91.98172,24.6922 c -11.43271,-2.771 -18.08621,-7.8976 -22.63748,-17.4422 l -2.62262,-5.5 0.0686,-12.5 0.0686,-12.5 1.79136,-7 c 3.82457,-14.9451 10.48046,-24.7802 19.50149,-28.8166 l 4.56987,-2.0447 8.17836,0.032 8.17836,0.032 7.29526,2.3458 7.29526,2.3457 4.10441,4.1044 4.10441,4.1044 1.12091,4.416 c 0.61649,2.4289 0.92248,4.6145 0.67996,4.857 -0.24252,0.2425 -3.43642,0.032 -7.09755,-0.4677 l -6.65661,-0.9087 -1.27742,-4.3568 c -1.72189,-5.8727 -4.69466,-8.7684 -10.40923,-10.1393 l -4.77574,-1.1457 -3.87019,1.0911 c -7.74949,2.1847 -13.15117,9.2444 -16.50736,21.5742 l -2.17122,7.9765 -0.0958,14.5 -0.0958,14.5 2.16317,4.6808 2.16317,4.6809 4.11958,2.9842 4.11958,2.9842 6.90902,1.2347 6.90902,1.2347 5.30823,-1.1213 c 2.91953,-0.6167 6.3538,-1.4202 7.63172,-1.7856 l 2.32349,-0.6643 -0.32349,3.3466 -0.32349,3.3465 -2.5,0.6896 c -4.33525,1.1959 -21.26106,0.7803 -27.2399,-0.6688 z m 248.8362,-0.6209 c -0.2627,-1.2767 -2.3327,-15.5963 -4.5999,-31.8213 -2.2673,-16.225 -4.5945,-32.2 -5.1717,-35.5 l -1.0494,-6 -1.9984,-1.75 -1.9985,-1.75 h -3.8302 c -3.2871,0 -5.9272,-1.3639 -4.7983,-2.4789 0.1925,-0.1902 8.3879,-1.5102 18.2119,-2.9334 19.5012,-2.8252 27.8152,-3.172 35.6678,-1.4879 l 5.1281,1.0997 3.3374,2.9303 3.3374,2.9303 1.5837,4.6481 c 1.9449,5.7078 2.0318,12.2838 0.2198,16.6206 -1.562,3.7383 -6.6386,8.3468 -11.386,10.3362 -1.7875,0.749 -3.25,1.5165 -3.25,1.7055 0,0.189 6.3125,8.6205 14.0279,18.7366 l 14.0278,18.3929 -3.2778,0.6301 c -1.8029,0.3465 -4.9186,0.8731 -6.9238,1.1702 l -3.6459,0.5402 -10.3541,-13.5574 c -5.6948,-7.4565 -11.8798,-15.4081 -13.7445,-17.6702 l -3.3903,-4.1129 -3.6097,0.3489 c -1.9853,0.1918 -3.7799,0.5121 -3.9879,0.7116 -0.2081,0.1996 0.8111,8.3676 2.265,18.1512 1.4539,9.7836 2.6367,18.3304 2.6284,18.993 -0.01,0.6626 -1.7026,1.4804 -3.7651,1.8174 -2.0625,0.337 -4.9709,0.8395 -6.463,1.1166 l -2.7131,0.504 z m 23.8151,-48.159 c 2.1513,-1.1893 4.8513,-3.4355 6,-4.9917 l 2.0886,-2.8293 -0.1029,-5.6722 -0.103,-5.6722 -2.1568,-4.2279 -2.1569,-4.2278 -2.9406,-1.5206 -2.9405,-1.5206 h -5.9845 c -7.1895,0 -10.7228,1.1895 -11.5828,3.8993 -0.614,1.9344 0.4254,11.8422 2.589,24.6786 l 1.0244,6.0779 6.1773,-0.9155 c 3.3975,-0.5036 7.9374,-1.8887 10.0887,-3.078 z m -337.43507,34.9689 -4.52367,-1.1312 0.36076,-2 c 0.19842,-1.1 3.47157,-16.6059 7.27367,-34.4576 3.8021,-17.8517 6.91291,-34.1928 6.91291,-36.3137 v -3.8562 l -4.97643,-2.1862 c -2.73704,-1.2025 -4.98704,-2.8068 -5,-3.5651 l -0.0236,-1.3789 4.75,0.6073 c 2.6125,0.3339 8.4625,0.9066 13,1.2726 4.5375,0.3659 8.26724,0.9382 8.2883,1.2716 0.0211,0.3334 -3.89284,19.1687 -8.69757,41.8562 l -8.73587,41.25 -2.05243,-0.1188 c -1.12884,-0.065 -4.08808,-0.6278 -6.5761,-1.25 z m 401.66377,-5.2632 -4.86,-1.4926 -4.8124,-4.8125 c -5.7543,-5.7542 -10.0171,-13.8456 -13.5747,-25.7663 l -2.6252,-8.7966 -0.1339,-10.5 -0.1339,-10.5 1.8221,-4.7221 1.822,-4.7221 4.8475,-4.3584 4.8475,-4.3583 5.6471,-2.161 c 3.1059,-1.1886 8.5246,-2.6207 12.0415,-3.1825 l 6.3944,-1.0215 4.7889,1.0615 c 5.9334,1.3152 11.2308,4.7461 13.5637,8.7845 l 1.7748,3.0722 -3.7748,1.0626 c -2.0761,0.5845 -5.3497,1.3227 -7.2747,1.6406 l -3.5,0.578 -2.2677,-3.0702 c -1.2473,-1.6887 -3.6777,-3.7994 -5.4009,-4.6905 l -3.1331,-1.6202 -3.9409,0.6302 c -2.1675,0.3466 -5.6522,1.5032 -7.7438,2.5702 l -3.8028,1.9401 -2.2451,4.6377 -2.245,4.6377 0.5426,9.6457 c 0.9399,16.7057 6.7099,34.4899 13.8158,42.5831 4.0871,4.655 9.9534,7.5109 15.4894,7.5407 4.6438,0.025 13.0609,-2.2553 15.8488,-4.2939 l 1.8825,-1.3765 -2.2537,-9.4038 c -1.2395,-5.1721 -3.1215,-12.4259 -4.1821,-16.1196 l -1.9283,-6.7159 -2.1904,-1.5341 c -1.2047,-0.8438 -4.0886,-1.5342 -6.4088,-1.5342 -2.3202,0 -4.4966,-0.45 -4.8365,-1 -0.3399,-0.55 -0.4087,-1 -0.1529,-1 0.2559,0 5.9322,-1.4002 12.6141,-3.1116 6.6819,-1.7114 12.2878,-2.9489 12.4577,-2.75 0.3205,0.3752 10.5811,41.4215 10.5811,42.3282 0,1.3073 -19.0592,9.8861 -25.7852,11.6064 -8.8626,2.2666 -14.8872,2.349 -21.5747,0.295 z m -455.60625,-9.8619 c -12.35638,-4.0166 -22.62273,-7.7728 -22.81412,-8.3469 -0.19139,-0.5742 4.37949,-15.8074 10.15751,-33.8516 5.77802,-18.0442 10.81191,-34.07 11.18643,-35.613 l 0.68094,-2.8053 -2.22108,-2.3643 c -1.2216,-1.3003 -3.52663,-2.905 -5.12231,-3.5659 -2.84689,-1.1792 -3.63839,-2.3925 -2.15122,-3.2975 0.71829,-0.4371 24.37165,4.1267 25.08499,4.8401 0.19003,0.19 -4.87148,16.6924 -11.24781,36.6719 -6.37632,19.9795 -11.59194,36.8773 -11.59025,37.5507 0.002,0.6734 1.24057,1.8631 2.75307,2.6438 4.65458,2.4027 19.64897,6.6319 23.51265,6.6319 h 3.65944 l 2.02752,-2.1763 c 1.11513,-1.1969 2.28799,-2.9969 2.60634,-4 0.55159,-1.7379 3.44405,-2.6425 3.44405,-1.0771 0,2.5298 -5.3715,16.2365 -6.33212,16.1579 -0.64233,-0.053 -11.27765,-3.3818 -23.63403,-7.3984 z M 1178.1637,1673.75 c -6.7101,-18.8375 -13.0411,-35.375 -14.069,-36.75 l -1.8687,-2.5 -5.7184,0.3161 -5.7183,0.3161 0.4114,-1.2344 c 0.3269,-0.9806 53.5308,-20.8493 55.9327,-20.8877 0.3483,-0.01 0.8553,0.7774 1.1265,1.7399 0.2712,0.9625 1.6403,4.7522 3.0423,8.4215 l 2.5491,6.6716 -1.3602,0.5219 -1.3602,0.522 -1.9957,-3.3825 -1.9957,-3.3824 -3.8682,-1.159 -3.8681,-1.1589 -7.9516,2.7244 c -10.1395,3.4739 -13.4516,5.1758 -13.4516,6.9117 0,0.764 2.0791,7.2774 4.6202,14.4744 l 4.6202,13.0853 h 1.2944 c 0.7119,0 4.9356,-1.3905 9.3861,-3.0899 l 8.0917,-3.09 1.4937,-2.1325 c 0.8215,-1.173 1.4937,-3.8325 1.4937,-5.9101 V 1641 h 1.5 c 0.825,0 1.5,0.1832 1.5,0.4071 0,0.2239 1.8,5.4963 4,11.7164 2.2,6.2201 4,11.6619 4,12.0929 0,1.9582 -3.0976,0.4956 -4.4373,-2.0952 -2.5999,-5.0276 -5.6208,-5.267 -17.299,-1.3712 -4.5339,1.5125 -8.248,3.2588 -8.2536,3.8807 -0.011,1.1887 5.5811,17.1759 9.1356,26.1193 l 2.0866,5.25 h 2.2646 c 1.2455,0 6.7057,-1.5883 12.1338,-3.5295 l 9.8693,-3.5295 2.3666,-2.6618 2.3667,-2.6619 -0.5696,-4.8087 -0.5695,-4.8086 h 1.3708 1.3708 l 2.6853,8.0634 c 1.477,4.4349 2.4922,8.2567 2.256,8.4928 -0.4832,0.4833 -44.9601,16.4316 -45.8452,16.439 -0.3124,0 -6.0582,-15.4077 -12.7682,-34.2452 z M 597,1693.323 c -6.80461,-1.0155 -12.71337,-2.9569 -26,-8.5425 -7.975,-3.3527 -14.66636,-6.2287 -14.86968,-6.3912 -0.42965,-0.3432 2.79114,-8.0475 16.88481,-40.3893 5.63237,-12.925 10.82199,-25.364 11.53248,-27.6421 l 1.2918,-4.1422 -1.53642,-2.1935 c -0.84503,-1.2065 -2.80395,-2.9644 -4.35317,-3.9065 l -2.81674,-1.713 0.72735,-1.1769 0.72735,-1.1768 20.03429,8.8092 c 26.35307,11.5877 32.01308,15.5392 34.34259,23.976 l 0.99477,3.6027 -1.0724,4.0316 c -1.43718,5.4028 -4.48153,10.6319 -7.47935,12.8468 -1.35133,0.9984 -5.14214,2.3146 -8.42402,2.9249 l -5.96707,1.1097 3.42538,3.4254 c 1.88396,1.884 4.18608,5.0285 5.11584,6.9878 l 1.69046,3.5623 -0.52934,5.8377 -0.52935,5.8377 -2.65003,4.5219 c -4.17633,7.1264 -12.34378,11.0234 -20.53955,9.8003 z m -0.3151,-8.3896 c 4.2002,-1.5914 7.30538,-4.8515 9.93768,-10.4334 5.34642,-11.3373 1.4136,-18.8363 -13.40162,-25.5539 -3.57367,-1.6203 -7.03488,-2.9461 -7.69157,-2.9461 -1.5252,0 -13.82978,28.2017 -13.36272,30.6269 0.4089,2.1233 6.41509,5.7783 12.83333,7.8096 5.55948,1.7595 8.07063,1.8663 11.6849,0.4969 z m 15.32587,-40.439 c 1.6013,-0.828 4.08772,-3.5127 5.52538,-5.9659 l 2.61394,-4.4603 0.17275,-4.4637 0.17275,-4.4637 -2.09365,-2.8204 c -1.15151,-1.5512 -4.94483,-4.3049 -8.42959,-6.1193 l -6.33594,-3.2989 -2.54422,0.2989 -2.54423,0.2989 -5.73775,12.9862 -5.73775,12.9863 0.84759,0.8476 c 1.69715,1.6971 13.679,5.5771 17.37961,5.6278 2.08981,0.029 5.10981,-0.6254 6.71111,-1.4535 z m 644.13623,25.2499 c -2.645,-5.6344 -9.2482,-19.6943 -14.6739,-31.2443 -5.4257,-11.55 -10.9458,-22.7485 -12.267,-24.8854 l -2.4022,-3.8855 -6.4019,0.5978 -6.402,0.5978 v -1.0001 c 0,-1.4346 22.9901,-12.0418 24.3582,-11.2383 1.6075,0.944 30.2993,20.7297 47.9839,33.0896 8.1632,5.7052 15.0334,10.182 15.267,9.9483 0.2337,-0.2337 -5.6548,-13.4034 -13.0855,-29.2661 -7.4307,-15.8626 -13.7521,-29.6027 -14.0476,-30.5336 l -0.5371,-1.6924 2.7806,-0.8103 c 1.5293,-0.4456 3.133,-0.8354 3.5638,-0.866 0.7065,-0.05 34.2059,69.6023 35.411,73.6271 l 0.5039,1.683 -5.0413,2.5546 -5.0413,2.5546 -15.5556,-10.7375 c -8.5555,-5.9057 -23.769,-16.4262 -33.8078,-23.3788 -10.0387,-6.9527 -18.3658,-12.5391 -18.5046,-12.4143 -0.1388,0.1248 5.4174,12.3383 12.347,27.1412 6.9296,14.8029 13.6298,29.2177 14.8893,32.033 l 2.2899,5.1187 -3.4089,1.6256 -3.4089,1.6256 z m -745.53842,-13.8375 c -5.96271,-2.0508 -15.12943,-7.3498 -19.49093,-11.2671 -3.11319,-2.7961 -7.09549,-11.3168 -7.10788,-15.2082 -0.019,-5.9514 3.08789,-13.1647 15.47562,-35.9304 6.88304,-12.6494 12.51461,-23.6955 12.51461,-24.547 0,-0.8515 -1.8,-3.3059 -4,-5.4541 -4.07922,-3.9833 -4.87432,-5.5 -2.88318,-5.5 0.95989,0 22.7477,8.8072 23.73972,9.5962 0.19609,0.1559 -6.25487,12.2076 -14.33547,26.7814 -8.0806,14.5738 -15.58184,29.3383 -16.66941,32.8101 l -1.9774,6.3123 0.57117,2.9165 c 0.31414,1.6041 1.75227,4.465 3.19584,6.3576 l 2.62467,3.4411 5.11703,2.3826 5.11703,2.3827 4.34563,0.01 4.34563,0.01 3.02516,-2.1541 c 4.01698,-2.8603 9.75823,-11.9226 24.75661,-39.0768 l 12.47302,-22.5822 3.78898,1.933 3.78898,1.933 -1.50803,2.9162 c -5.09479,9.8522 -25.88734,46.7034 -28.35885,50.2611 -6.04703,8.7046 -13.43946,13.8138 -19.87501,13.7363 -1.53017,-0.018 -5.43326,-0.9453 -8.67354,-2.0597 z M 1349.8817,1622.25 c -24.2636,-40.9049 -35.4341,-59.25 -36.0777,-59.25 -1.7241,0 -11.9095,7.2314 -13.4092,9.5203 l -1.6153,2.4652 0.5289,3.2572 c 0.291,1.7915 0.6781,4.1089 0.8603,5.1497 0.1822,1.0408 -0.1794,2.0735 -0.8036,2.2949 -1.0242,0.3634 -9.9664,-14.4201 -9.1909,-15.1943 0.4004,-0.3997 35.6053,-21.5243 45.5455,-27.3295 7.5333,-4.3995 12.8469,-8.6184 22.5587,-17.9111 3.1781,-3.0409 5.9356,-5.3543 6.1279,-5.1407 0.1923,0.2136 6.0947,8.2633 13.1165,17.8883 7.0217,9.625 16.4487,22.45 20.9488,28.5 4.5001,6.05 10.0582,13.5659 12.3513,16.7021 l 4.1694,5.702 -3.7462,2.7466 c -2.0603,1.5106 -4.4759,3.3497 -5.3679,4.0869 l -1.6218,1.3403 -14.8782,-20.1696 c -8.183,-11.0933 -18.2859,-24.7233 -22.4508,-30.289 l -7.5726,-10.1193 -3.9355,0.068 c -2.1645,0.038 -5.1597,0.8706 -6.656,1.851 l -2.7204,1.7825 2.8305,4.1491 c 1.5568,2.2819 3.3937,5.2187 4.0818,6.5262 l 1.2513,2.3771 -1.1595,0.7166 -1.1595,0.7166 -3.3437,-3.3437 -3.3438,-3.3438 h -2.8356 c -2.6791,0 -10.7726,3.5553 -14.624,6.4239 l -1.7596,1.3106 20.0931,33.7159 c 11.0512,18.5438 19.943,33.8244 19.7596,33.9569 -0.9616,0.6949 -10.8998,6.5927 -11.1091,6.5927 -0.1351,0 -2.3143,-3.4875 -4.8427,-7.75 z M 889,1628.3345 c -134.19112,-4.08 -264.09845,-45.4813 -375.5,-119.6716 -27.00555,-17.9849 -43.33614,-30.3543 -69.41292,-52.5757 -18.00856,-15.3461 -24.98166,-21.8065 -42.10142,-39.0056 C 348.3136,1363.1608 304.589,1302.6768 269.99531,1234.5 c -23.69084,-46.6896 -41.68205,-94.5706 -54.48355,-145 -10.58031,-41.6794 -15.8947,-72.9204 -20.15799,-118.5 l -1.7304,-18.5 -0.0617,-39.5 -0.0617,-39.5 1.29723,-16 c 8.07219,-99.56172 33.79303,-190.45361 78.10327,-276 C 325.12102,480.68184 398.75766,395.4361 492,327.85862 c 58.29737,-42.25107 126.52816,-76.82838 196.17397,-99.41504 64.68308,-20.97721 123.55661,-31.45387 194.58479,-34.62672 l 27.25876,-1.21766 27.74124,1.20087 c 67.46224,2.92032 126.51974,13.03049 188.24124,32.22539 63.4434,19.73039 131.5568,52.59808 186,89.75313 58.721,40.07446 109.4305,86.44825 155.6223,142.31658 18.8614,22.81255 46.7807,63.19291 63.8895,92.40483 9.883,16.87444 27.6084,51.39924 34.912,68 35.432,80.53598 55.375,162.49915 60.6593,249.3022 l 1.175,19.30221 -0.5689,36.19779 c -0.3129,19.90879 -1.0586,41.3728 -1.6571,47.6978 -4.7699,50.405 -12.2879,91.7709 -24.6051,135.3846 -29.5036,104.4687 -83.7198,202.728 -156.7653,284.1154 -12.8199,14.2839 -46.0353,47.1345 -60.4014,59.7379 -84.1103,73.7905 -184.8281,127.2412 -292.4837,155.2207 -51.1262,13.2876 -97.77185,20.1413 -153.2766,22.5211 -21.66501,0.929 -28.90775,0.9809 -49.5,0.3548 z m 87,-22.2467 c 55.6551,-5.4775 101.5947,-15.1032 154,-32.2675 90.0817,-29.5044 175.7528,-79.2419 247,-143.3993 16.1376,-14.5318 46.7584,-45.5702 60.2044,-61.0256 38.8501,-44.6557 70.5179,-91.8314 97.2646,-144.8954 23.0422,-45.7146 40.0325,-91.0249 52.6723,-140.4687 11.735,-45.9047 18.1093,-88.53149 20.9396,-140.0313 l 1.1817,-21.5 -0.6349,-26 c -1.5055,-61.66031 -9.1493,-114.05527 -25.1361,-172.29855 C 1557.537,629.64336 1511.2061,541.16706 1447.4983,464.5 1412.8911,422.85307 1369.3587,381.6244 1327,350.37853 1271.8721,309.71347 1216.1317,279.39626 1154.5,256.55588 1088.1161,231.95434 1025.3944,218.70642 952.6307,213.91756 l -17.86929,-1.17605 -35.63071,0.57079 C 879.53382,213.62623 858.325,214.36864 852,214.9621 785.56881,221.19517 726.8424,234.27695 669,255.72683 564.25701,294.569 473.03831,355.78731 396.57625,438.55471 331.69444,508.78689 280.83657,594.21579 249.86146,685 227.71283,749.9149 215.88603,814.17038 213.0191,885.16609 l -0.99606,24.66609 0.99393,25.33391 c 0.54665,13.93365 1.68213,32.53391 2.52328,41.33391 10.91775,114.22 48.73393,222.0667 111.33059,317.5 63.7337,97.1668 152.85812,178.4373 256.01874,233.4575 84.15712,44.8848 180.77618,72.9034 274.11042,79.4895 8.525,0.6015 17.3,1.2652 19.5,1.4748 2.2,0.2096 20.875,0.2241 41.5,0.032 l 37.5,-0.3487 20.5,-2.0176 z M 832,1492.5117 c -4.675,-0.7848 -9.01002,-1.446 -9.63337,-1.4693 -1.39398,-0.052 -2.3505,-3.3881 -1.69271,-5.9035 l 0.48668,-1.861 6.6697,1.4431 6.6697,1.4431 8.31191,-0.4752 8.31191,-0.4753 6.18809,-3.0716 6.18809,-3.0715 2.26964,-3.3758 c 3.62403,-5.3902 6.36164,-14.4428 7.53461,-24.9149 0.59881,-5.3461 0.81954,-9.9893 0.49051,-10.3184 -0.32903,-0.329 -2.67804,0.9893 -5.22002,2.9297 -5.75479,4.3927 -9.98815,5.5962 -19.70991,5.6033 l -7.63516,0.01 -5.04322,-1.6288 c -6.63226,-2.142 -11.63107,-6.39 -14.97088,-12.7224 L 818.5,1429.5 v -12.5 -12.5 l 3,-5.4644 3,-5.4645 4.29413,-3.2599 c 5.0634,-3.8439 12.199,-6.192 21.2393,-6.989 l 6.53343,-0.576 7.03206,1.1861 7.03205,1.1862 5.23916,2.9922 5.23916,2.9922 2.98123,4.6985 c 4.2732,6.7348 6.75396,15.7281 8.08194,29.2989 l 1.15931,11.8471 -1.19454,11.0138 c -0.657,6.0575 -2.08916,13.9101 -3.18258,17.4502 -3.94696,12.7788 -13.31458,22.8132 -24.41336,26.1513 -2.77271,0.8339 -9.31629,1.7096 -14.54129,1.9461 l -9.5,0.4299 z m 34.05627,-54.7114 c 1.68148,-1.2432 4.1567,-3.7018 5.50049,-5.4636 l 2.44324,-3.2033 -0.0349,-4.8167 c -0.053,-7.3204 -2.5491,-19.8259 -4.94514,-24.7754 l -2.14019,-4.4211 -4.52621,-2.1911 -4.52621,-2.1911 -5.55676,0.5735 -5.55677,0.5735 -3.33448,3.2319 -3.33449,3.2319 -1.73766,5.0756 -1.73766,5.0756 -0.0131,8.5 -0.0131,8.5 2.63424,5.6653 2.63425,5.6653 2.68018,1.7561 c 5.74026,3.7612 15.91526,3.3901 21.5643,-0.7864 z M 944,1493.3598 c -1.925,-0.2461 -6.38524,-1.3886 -9.91163,-2.5389 l -6.41164,-2.0915 -4.14763,-4.1477 -4.14764,-4.1476 -1.44073,-4.9671 -1.44073,-4.967 0.0691,-8 0.0691,-8 2.31618,-5.2782 2.31618,-5.2783 3.00716,-2.1413 c 1.65394,-1.1777 5.36977,-3.1015 8.25741,-4.2751 l 5.25024,-2.1339 -4.75971,-1.6905 -4.7597,-1.6905 -4.05708,-4.4014 c -2.2314,-2.4208 -4.53874,-6.136 -5.12742,-8.2561 -1.38568,-4.9904 -1.36738,-13.7847 0.0392,-18.8514 l 1.10954,-3.9967 4.13488,-4.105 4.13488,-4.1049 6,-2.2898 6,-2.2898 11,-0.1086 11,-0.1085 5.68356,1.7586 c 7.10634,2.1989 13.51854,7.0375 16.19561,12.2211 l 2.05529,3.9797 0.39972,6.2773 c 0.4859,7.6311 -1.15694,14.6768 -4.42144,18.9624 l -2.43686,3.1991 -5.98657,2.8733 -5.98656,2.8732 5.11811,2.3131 c 10.02387,4.5302 14.18834,10.2604 15.47279,21.2899 0.69928,6.0047 -0.75567,15.1841 -3.23473,20.4084 -2.0961,4.4172 -9.23535,9.7191 -15.85892,11.7776 -5.21599,1.6211 -19.46665,2.6975 -25.5,1.9261 z m 14.6849,-8.4234 c 1.54831,-0.585 4.0691,-2.26 5.60177,-3.7222 l 2.78666,-2.6586 1.5925,-5.4781 1.59251,-5.478 -0.53652,-7.8276 -0.53652,-7.8277 -2.34265,-4.7221 -2.34265,-4.7221 -3.5,-1.7484 -3.5,-1.7485 h -5.5 -5.5 l -3.20966,1.957 c -1.76532,1.0764 -4.22885,3.8872 -5.47452,6.2463 l -2.26486,4.2892 -0.0255,10.5 -0.0255,10.5 2.20685,4.7796 2.20685,4.7795 4.29315,1.9485 c 4.79738,2.1773 10.24805,2.527 14.47805,0.9288 z m 3.30092,-55.7703 c 1.3828,-1.0297 3.27721,-3.8508 4.2098,-6.2692 l 1.69561,-4.3969 0.0379,-8 0.0379,-8 -2.24862,-4 -2.24862,-4 -3.48493,-1.8054 -3.48493,-1.8054 -5.29147,0.3911 -5.29147,0.3911 -2.70853,1.9854 c -1.48969,1.092 -3.49533,3.5284 -4.45698,5.4143 l -1.74844,3.4289 -0.002,7.5719 -0.002,7.5718 1.59348,4.6766 1.59348,4.6766 2.65652,1.8848 c 3.63717,2.5805 5.8279,3.0653 11.64234,2.5761 l 4.98582,-0.4194 2.51418,-1.8723 z M 1033,1493.3743 c -1.375,-0.1943 -6.2125,-0.8547 -10.75,-1.4674 l -8.25,-1.1141 -0.1111,-1.3964 c -0.3523,-4.4271 -0.2385,-5.406 0.6389,-5.4951 0.5347,-0.054 4.241,0.4605 8.2362,1.1439 l 7.2641,1.2425 6.7764,-0.5681 c 15.9766,-1.3394 23.4652,-7.8514 27.8456,-24.2144 1.5077,-5.632 2.9884,-21.5052 2.0061,-21.5052 -0.3514,0 -2.6784,1.5568 -5.1711,3.4595 -5.6559,4.3173 -9.9326,5.5278 -19.5536,5.5349 -13.9787,0.01 -22.4596,-4.3793 -27.7159,-14.3456 L 1011.5,1429.5 v -12 -12 l 2.8136,-5.7296 c 3.3038,-6.7279 8.0714,-10.9769 15.6864,-13.9801 l 5.5,-2.169 12,-0.052 12,-0.052 5.908,2.7584 c 3.2494,1.5171 7.2311,4.1429 8.8482,5.8351 3.8553,4.0342 7.4241,11.9755 9.4647,21.0611 l 1.6459,7.3282 -0.06,16.5 -0.06,16.5 -2.0576,7.6541 c -1.1316,4.2098 -3.1738,9.8348 -4.5381,12.5 -3.106,6.0677 -9.4732,12.7048 -14.7908,15.4176 -7.4432,3.7972 -21.031,5.6917 -30.8595,4.3026 z m 25.481,-54.9538 c 1.3814,-0.9051 3.8632,-3.4836 5.5153,-5.7301 L 1067,1428.606 v -4.6925 c 0,-2.5809 -0.7069,-8.4548 -1.5709,-13.053 l -1.571,-8.3605 -2.4209,-4.1642 -2.4209,-4.1642 -4.4901,-1.7147 -4.4901,-1.7148 -5.0746,0.4876 -5.0746,0.4876 -3.421,3.3158 -3.421,3.3157 -1.7126,5.0756 -1.7126,5.0756 0.012,8.5 0.012,8.5 2.3134,5.2782 2.3135,5.2783 3.0272,2.1556 c 1.665,1.1856 4.6417,2.4308 6.6148,2.7672 4.5264,0.7717 11.3015,-0.4183 14.5684,-2.5588 z m -303.70106,9.1065 -0.27994,-44.473 -2.15343,-2.1527 -2.15343,-2.1526 -3.84657,-0.067 c -2.11561,-0.037 -5.5689,0.2715 -7.67396,0.6855 l -3.82739,0.7528 0.32739,-2.3099 0.32739,-2.3098 15.5,-6.2901 15.5,-6.2901 3.5,0.2901 3.5,0.2901 0.25861,54.25 0.25861,54.25 h -9.47867 -9.47867 l -0.27994,-44.473 z M 564.5,1459.8354 c -26.96448,-3.0438 -58.97079,-12.6676 -88.93065,-26.7399 l -10.93065,-5.1342 0.93065,-0.928 c 1.46282,-1.4586 19.84378,-5.8186 31.76659,-7.535 5.95976,-0.858 18.25998,-1.96 27.33381,-2.4489 l 16.49788,-0.8889 19.66618,0.9264 c 26.22561,1.2355 42.12345,3.2108 73.41619,9.122 l 16.75,3.1641 v 2.4978 c 0,3.8421 -3.73928,10.6931 -7.76599,14.2286 -4.45794,3.9141 -15.71214,9.3179 -23.65836,11.3597 -13.4685,3.4608 -36.61939,4.4596 -55.07565,2.3763 z m 649.7497,0.1655 c -16.0406,-2.2578 -29.6591,-7.8366 -37.0897,-15.1937 -4.1954,-4.1539 -7.824,-11.6345 -6.8609,-14.1443 0.2982,-0.7769 1.8153,-1.6392 3.3715,-1.9162 1.5562,-0.2769 11.6044,-2.0967 22.3294,-4.0438 25.8248,-4.6884 42.1874,-6.5987 65.5871,-7.6571 l 19.366,-0.8759 15.7735,0.8651 c 8.6754,0.4758 20.8615,1.5837 27.0804,2.462 11.2767,1.5927 28.7311,5.5855 31.714,7.2548 l 1.5728,0.8802 -11.7969,5.6368 c -24.1749,11.5514 -51.1764,20.3172 -76.5855,24.8629 l -11.2114,2.0057 -18.5,0.3717 c -10.175,0.2044 -21.3126,-0.024 -24.7503,-0.5082 z M 664,1428.92 c -34.50799,-6.9847 -41.08367,-9.1072 -66.5,-21.4648 -46.48915,-22.6033 -86.84836,-52.3529 -127,-93.6142 C 429.90438,1272.1235 397.48989,1225.2786 369.93092,1168.5 333.8653,1094.1956 313.31481,1014.531 307.89089,928 l -1.15962,-18.5 0.57423,-30.5 c 0.72106,-38.29924 3.1805,-65.26449 9.21199,-101 17.58466,-104.1861 60.03407,-197.76842 121.11253,-267 10.62214,-12.04005 31.5974,-32.89891 44.36998,-44.12376 10.23946,-8.99868 28.15892,-22.85096 42,-32.46726 33.7398,-23.44123 69.39708,-42.53138 110.61125,-59.2189 C 648.74493,369.46738 675.24101,360 677.12327,360 c 0.4822,0 0.87673,0.43844 0.87673,0.97432 0,1.41528 -4.74944,3.65776 -16.15553,7.62796 C 639.37738,376.42256 600.92272,394.24276 578,407.45649 512.2416,445.3627 454.51635,499.74761 411.31083,564.5 c -11.97641,17.94912 -19.62146,31.03876 -29.78672,51 -19.26614,37.83239 -32.68055,73.59269 -43.51393,116 -10.62665,41.59803 -16.19851,77.78747 -19.09152,124 l -1.18945,19 0.59608,27.5 c 0.32784,15.125 1.07384,32.9 1.65778,39.5 6.04578,68.3334 22.06473,133.8407 47.10247,192.6192 5.41203,12.7052 23.4786,49.8808 24.24106,49.8808 0.17384,0 -1.8259,-6.4119 -4.44387,-14.2486 -2.61796,-7.8368 -5.79903,-19.4243 -7.06903,-25.75 l -2.3091,-11.5014 -0.002,-22.5 -0.002,-22.5 1.81237,-8.5 c 2.57586,-12.0807 8.04537,-27.9601 12.73623,-36.9765 4.5497,-8.7451 8.54524,-14.5417 9.1922,-13.3357 0.23964,0.4467 0.52709,5.0872 0.63877,10.3122 0.21551,10.0817 1.26809,29.6918 3.64997,68 0.80364,12.925 1.46325,31.4479 1.46581,41.162 l 0.005,17.6621 -1.4386,7.5189 c -1.62845,8.5111 -3.42656,12.5238 -7.1656,15.9908 l -2.58594,2.3978 1.73938,3.3842 c 3.17083,6.1693 18.61429,30.2105 26.80274,41.7246 8.16057,11.4749 28.35734,37.1596 29.21984,37.1596 0.25775,0 -0.9281,-2.3625 -2.63521,-5.25 -9.20578,-15.5711 -17.6101,-37.5434 -21.63674,-56.5672 l -2.68446,-12.6828 -0.0369,-19.5 -0.0369,-19.5 1.80149,-8.9637 c 1.96876,-9.796 6.85296,-25.5777 9.14103,-29.5363 l 1.44501,-2.5 0.0354,2.3247 c 0.0345,2.2638 14.4262,59.5469 23.53479,93.6753 2.49544,9.35 5.70006,23.2648 7.12138,30.9217 l 2.58422,13.9218 -0.41805,11.0782 -0.41805,11.0783 -1.92887,3.8742 -1.92887,3.8742 14.03996,13.6258 c 16.6445,16.1535 47.42961,42.1258 49.93193,42.1258 0.34921,0 -1.73175,-2.6887 -4.62436,-5.9748 -16.39427,-18.6249 -30.99422,-48.4684 -36.21431,-74.0252 -0.84255,-4.125 -2.06357,-12.45 -2.71336,-18.5 l -1.18145,-11 0.67924,-10.5 c 0.66548,-10.2871 2.77919,-24.5413 3.78889,-25.551 0.28043,-0.2804 1.52766,1.8663 2.7716,4.7706 4.83704,11.293 16.50413,35.6764 32.34586,67.6008 18.42517,37.1305 25.90133,54.0462 28.80719,65.1796 l 1.95753,7.5 -0.27137,9 -0.27137,9 9.47146,5.7786 c 13.69538,8.3557 57.97145,30.0096 57.97145,28.3519 0,-0.1943 -3.3394,-2.911 -7.42089,-6.0372 -10.17736,-7.7952 -24.83901,-23.3297 -32.20295,-34.1201 -11.54439,-16.9159 -19.20301,-34.5998 -24.0037,-55.425 l -2.43161,-10.5482 -0.62326,-14.25 c -0.3428,-7.8375 -0.38483,-14.25 -0.0934,-14.25 0.29141,0 6.16084,7.5375 13.04316,16.75 6.88232,9.2125 16.72517,21.9852 21.87299,28.3838 48.44545,60.2165 48.60259,60.4211 55.58847,72.3947 5.16496,8.8526 8.2712,17.9872 8.2712,24.3233 v 4.9149 l 2.25,0.6406 c 1.2375,0.3523 8.943,2.4103 17.12332,4.5733 8.18033,2.163 15.08292,4.1423 15.33908,4.3985 0.50719,0.5072 -1.66338,11.4422 -2.622,13.2092 l -0.59134,1.0883 z m 467.5792,-2.5443 c -0.9152,-3.6433 -1.4674,-6.8208 -1.2271,-7.0611 0.2403,-0.2403 7.1218,-2.1886 15.2924,-4.3296 8.1705,-2.141 15.868,-4.191 17.1055,-4.5555 l 2.25,-0.6628 0.024,-3.6333 c 0.092,-13.732 10.4444,-31.9759 35.6277,-62.7886 20.5165,-25.1028 43.3302,-53.9078 52.3402,-66.0859 l 10.4922,-14.1815 0.7618,2.0594 c 0.9864,2.6665 -0.6847,24.0681 -2.6832,34.3632 -3.801,19.5808 -14.2012,43.4421 -26.3331,60.4161 -7.9062,11.0618 -21.9631,25.595 -31.4649,32.5311 -3.7042,2.704 -6.5812,5.0701 -6.3933,5.258 1.1816,1.1815 37.6771,-16.6629 55.1282,-26.9549 l 12,-7.077 0.096,-11.0867 0.096,-11.0866 2.721,-8 c 4.3082,-12.667 10.1679,-25.4765 29.2769,-64 9.8215,-19.8 21.2889,-43.568 25.4831,-52.8179 4.1942,-9.2498 7.8366,-16.4498 8.0942,-16 0.2575,0.4499 1.0905,3.9679 1.8509,7.8179 l 1.3826,7 -0.035,18.5 -0.035,18.5 -1.7314,9 c -5.4825,28.4996 -17.9678,54.9028 -37.1163,78.4917 l -6.0815,7.4917 6.5,-4.9591 c 14.6365,-11.1667 30.3129,-24.7688 44.1627,-38.319 l 14.6628,-14.3456 -2.1628,-4.6798 -2.1627,-4.6799 0.035,-12.5 0.035,-12.5 2.3183,-11 c 2.3911,-11.3454 5.9671,-25.6329 13.1404,-52.5 6.0582,-22.691 15.7637,-61.84 16.548,-66.75 0.3734,-2.3375 1.0288,-4.25 1.4565,-4.25 1.2455,0 6.981,16.6496 9.3012,27 l 2.1295,9.5 -0.023,22 -0.023,22 -2.2698,10.5 c -3.4692,16.0484 -8.8211,31.0602 -16.6668,46.75 -3.9192,7.8375 -7.0213,14.25 -6.8937,14.25 1.2563,0 24.7985,-30.6569 34.6163,-45.0775 8.0933,-11.8878 21.7953,-34.2797 21.7953,-35.6181 0,-0.5469 -0.9479,-1.8517 -2.1064,-2.8994 -2.8077,-2.5392 -5.3186,-7.7005 -7.0078,-14.405 l -1.3858,-5.5 0.097,-24.5 c 0.053,-13.475 0.8327,-35.3 1.7325,-48.5 0.8998,-13.2 2.1007,-33.8693 2.6687,-45.9319 0.568,-12.0625 1.1971,-22.0962 1.398,-22.2972 0.201,-0.2009 2.1655,2.485 4.3656,5.9686 11.637,18.4258 18.2257,41.1209 19.8171,68.2605 l 0.645,11 -1.1581,11.5 c -0.637,6.325 -2.0796,16 -3.2057,21.5 -2.1374,10.4387 -8.0454,29.9481 -10.5515,34.8429 -0.8006,1.5636 -1.2581,3.0405 -1.0166,3.2819 0.6534,0.6534 14.6674,-27.153 21.4822,-42.6248 25.8751,-58.7444 42.0759,-120.2434 49.2777,-187.0605 l 2.0952,-19.4395 0.5507,-33 0.5506,-33 -1.1313,-18.5 c -5.9355,-97.06745 -33.0274,-188.61657 -78.4208,-265 -32.7309,-55.07636 -79.7239,-107.40269 -131.4171,-146.33213 -12.2555,-9.2294 -35.0208,-24.24105 -48.7139,-32.12247 -22.5993,-13.00748 -59.2246,-29.96392 -84.2682,-39.01368 -7.2618,-2.62415 -13.9691,-5.6173 -14.905,-6.65145 L 1142.69,360 h 1.6348 c 0.8991,0 3.3313,0.64049 5.405,1.42331 2.0736,0.78282 10.2952,3.75935 18.2702,6.6145 29.4241,10.5342 60.7956,24.96271 88.4419,40.67663 51.6447,29.3543 94.6618,64.41205 131.3102,107.0143 41.0599,47.73041 73.0348,105.99808 95.0843,173.27126 15.707,47.92198 25.1548,96.14115 29.6842,151.5 l 1.5546,19 0.01,31.5 0.01,31.5 -1.5568,18.82818 c -6.1914,74.88092 -23.4811,143.40312 -53.0312,210.17182 -20.9561,47.3504 -50.4734,95.014 -82.9842,134 -19.7955,23.7381 -44.1238,48.0899 -66.0151,66.0788 -17.7773,14.6082 -44.348,32.9864 -63.4353,43.8761 -16.2047,9.2452 -40.1937,20.3849 -52.7018,24.4728 -10.8932,3.5602 -54.039,13.0723 -59.2943,13.0723 h -1.8255 l -1.6639,-6.6243 z M 493.5,1395.5373 c -34.02495,-7.2134 -74.51575,-28.8257 -110.14548,-58.7912 -4.04499,-3.4019 -7.35452,-6.606 -7.35452,-7.1202 v -0.9348 l 12.85517,0.6149 c 16.43639,0.7862 30.45762,2.884 47.818,7.1545 18.47487,4.5447 27.48644,7.4626 48.61543,15.7414 19.54251,7.6572 61.7136,28.2384 61.70766,30.1158 -0.008,2.6291 -4.25849,7.8927 -8.59253,10.6412 -5.94375,3.7694 -12.2047,5.0566 -24.20295,4.9757 l -9.70078,-0.065 -11,-2.332 z m 797.178,1.0259 c -6.813,-1.9678 -12.3044,-5.9105 -14.6582,-10.5245 -1.1109,-2.1775 -2.0198,-4.1384 -2.0198,-4.3577 0,-0.9007 45.3526,-22.9666 56,-27.2462 38.8356,-15.6096 71.5192,-23.6236 102.3072,-25.0856 l 14.1928,-0.674 -1.499,1.8149 c -2.1807,2.6402 -19.0189,16.0799 -29.8258,23.8059 -26.8161,19.1714 -58.1302,34.329 -84.1752,40.7453 l -8.5,2.094 -13.5,0.4103 -13.5,0.4104 z M 423,1310.6306 C 402.09807,1304.326 375.8512,1286.6538 350.12891,1261.566 333.03419,1244.8929 304.88426,1211 308.13105,1211 c 2.2404,0 15.49361,4.274 25.36895,8.1812 19.80743,7.8368 47.5963,23.8289 68.91704,39.6608 13.63094,10.1217 24.5474,19.1431 40.3305,33.329 l 13.24753,11.9069 -1.58037,2.4119 c -0.8692,1.3266 -3.48517,3.3341 -5.81326,4.4611 l -4.23289,2.0491 -6.93427,-0.054 -6.93428,-0.054 -7.5,-2.2622 z m 950.5,0.9578 c -3.4506,-1.5337 -7.884,-5.9924 -7.3572,-7.3993 0.4721,-1.2606 23.2351,-21.9236 33.3653,-30.2872 25.5221,-21.071 56.3449,-40.7739 80.3747,-51.378 9.7808,-4.3161 24.8777,-9.6767 30.9923,-11.0047 l 3.3751,-0.7331 -0.8068,1.357 c -4.3282,7.2792 -25.0305,32.0103 -37.5907,44.906 -26.8473,27.5645 -57.9082,48.5628 -80.563,54.4636 -7.0189,1.8283 -17.7626,1.8655 -21.7897,0.076 z M 364.33398,1205.903 c -4.76908,-1.3808 -14.83943,-7.3373 -21.89043,-12.9479 -7.87745,-6.2683 -23.38359,-22.5193 -31.74137,-33.2661 -8.3091,-10.6842 -18.6926,-26.3514 -26.96681,-40.689 -7.78503,-13.4899 -20.03207,-38.6099 -19.54149,-40.0816 0.44996,-1.3499 16.71997,8.9232 27.07571,17.096 27.60567,21.7864 55.71054,53.4281 81.35025,91.5878 l 9.82323,14.6199 -2.7773,2.389 -2.7773,2.3889 -4.69423,-0.09 c -2.58183,-0.05 -6.11895,-0.5027 -7.86026,-1.0068 z M 1442.25,1205.0779 c -1.7875,-1.1267 -3.25,-2.3267 -3.25,-2.6666 0,-0.9826 18.5725,-27.9284 26.8197,-38.9113 22.7629,-30.3135 51.3785,-59.1052 75.1803,-75.6428 6.5304,-4.5374 15.3831,-9.8572 16.4033,-9.8572 0.8877,0 -0.8926,4.0501 -8.6795,19.7457 -25.3116,51.0183 -58.7167,92.2795 -85.3079,105.3703 l -6.2045,3.0545 -5.8557,0.4779 -5.8557,0.478 z M 316.30164,1080.9999 c -19.71149,-11.3049 -43.84023,-53.1305 -60.1658,-104.29361 -4.85987,-15.23045 -10.50063,-37.67483 -9.6758,-38.49966 0.79322,-0.79322 9.31725,7.63277 16.98876,16.79337 23.22229,27.72986 43.06863,62.9793 61.15974,108.627 3.5153,8.8698 6.39146,16.8092 6.39146,17.643 0,1.8349 -2.09057,2.7332 -6.33179,2.7206 l -3.16821,-0.01 -5.19836,-2.9813 z m 1174.78216,2.0731 -1.4162,-0.8964 2.2757,-6.3383 c 7.8024,-21.7323 24.4149,-57.9052 34.8528,-75.89052 8.0584,-13.88536 17.7411,-28.2646 26.0527,-38.68952 9.0182,-11.31111 18.6923,-21.94229 21.177,-23.27205 l 1.7279,-0.92475 -2.4003,10.21927 c -6.4476,27.45062 -16.7851,56.71107 -28.3407,80.21927 -9.6881,19.7091 -20.0699,35.5883 -29.414,44.9897 l -7.0987,7.1422 -4.7391,2.1841 c -4.9294,2.2717 -10.2418,2.7985 -12.6771,1.257 z M 346.09302,1069.9981 c -0.58999,-2.751 -1.80059,-10.5135 -2.69023,-17.25 l -1.61752,-12.2481 0.50974,-16.5 0.50974,-16.5 2.14326,-10.79947 c 4.02649,-20.28871 10.79016,-37.03998 21.07382,-52.19259 5.09463,-7.50676 15.24717,-18.20094 15.77521,-16.61682 0.28253,0.84759 -2.60685,22.35698 -11.36559,84.60888 -2.82096,20.0497 -6.59247,38.1578 -9.68302,46.4911 -3.32591,8.9679 -8.86752,16.0089 -12.59982,16.0089 -0.54059,0 -1.4656,-2.2508 -2.05559,-5.0019 z m 1123.77778,3.3153 c -5.8749,-3.6424 -10.5975,-14.8061 -14.7271,-34.8138 -1.1353,-5.5002 -4.5391,-28.0002 -7.564,-49.99999 -3.0249,-21.99978 -6.203,-44.67693 -7.0624,-50.39365 -0.8594,-5.71673 -1.3206,-10.63597 -1.0249,-10.93165 0.8786,-0.87864 7.2684,5.77529 13.6697,14.23472 6.5857,8.70316 15.498,26.26596 18.7532,36.95566 1.1498,3.77558 3.0287,11.20058 4.1755,16.5 l 2.085,9.63531 0.5177,20 0.5177,20 -1.6428,11.5 c -2.0962,14.6742 -2.8879,18.2799 -4.0941,18.647 -0.5359,0.1631 -2.1575,-0.437 -3.6035,-1.3336 z M 532.5,1014.8909 c -15.24943,-2.1992 -27.25298,-7.8059 -35.72312,-16.68597 -6.65333,-6.97532 -11.04724,-15.29973 -13.96529,-26.45769 l -2.15683,-8.24724 -0.60004,-65 -0.60004,-65 -1.20241,-2.74954 c -1.71214,-3.91512 -6.12134,-6.23027 -15.54369,-8.16157 -4.51472,-0.92538 -9.22108,-1.89502 -10.45858,-2.15475 L 450,819.9619 v -2.93564 -2.93563 l 3.25,-0.54057 C 456.5103,813.00779 510.43453,807 512.04154,807 h 0.85621 l 0.3848,77.25 0.3848,77.25 1.5773,7 c 0.86752,3.85 2.58184,9.6734 3.8096,12.94089 l 2.23229,5.94089 4.66584,4.66584 4.66584,4.66584 5.94089,2.28923 5.94089,2.28921 11.5,0.4516 11.5,0.4515 6.97769,-1.6359 c 16.7158,-3.91905 22.68722,-11.44549 27.22971,-34.32057 L 601.24409,958.5 601.70922,884.25 602.17434,810 H 612.58717 623 v 66.32632 66.32632 l -1.09772,10.92368 c -1.25238,12.46275 -4.57377,26.38689 -8.21124,34.42368 -7.12073,15.7328 -18.02383,22.93 -40.19104,26.5302 l -9,1.4618 -13,-0.118 c -7.15,-0.065 -15.7,-0.5073 -19,-0.9831 z m 512.3364,-0.8097 c -7.4356,-2.378 -11.5693,-5.0192 -17.0859,-10.9169 -5.4632,-5.84059 -7.5028,-9.58534 -8.7219,-16.01366 l -0.9195,-4.84811 0.8391,-5.93578 c 3.4127,-24.14386 26.688,-37.86519 69.4305,-40.93091 l 8.8788,-0.63682 -0.5308,-18.64951 -0.5307,-18.64951 -1.4811,-5.3638 -1.481,-5.3638 -3.1167,-3.11676 -3.1168,-3.11675 -7.3734,-0.37234 -7.3733,-0.37234 -4.4787,1.98113 -4.4787,1.98113 -2.2002,4.545 c -1.2101,2.49975 -2.7265,8.40454 -3.3697,13.12176 L 1056.5568,910 H 1039.2784 1022 v -1.45451 c 0,-2.84245 4.7496,-14.48011 7.9365,-19.44657 6.089,-9.48885 14.4546,-14.80355 27.7287,-17.61604 l 6.8348,-1.44815 h 12.5 12.5 l 6.7845,1.43762 c 3.7315,0.7907 9.1184,2.69538 11.971,4.23264 l 5.1864,2.79501 3.6854,4.89317 c 4.4759,5.94289 7.7017,15.36236 8.9359,26.09342 0.5069,4.40738 0.925,29.50091 0.9292,55.76341 l 0.01,47.75 h -15 -15 v -8.5902 -8.59019 l -8.6553,8.09799 -8.6553,8.098 -6.4501,1.9922 -6.45,1.9922 -8.1446,-0.054 -8.1447,-0.054 -5.6636,-1.8112 z m 32.5476,-15.29732 4.116,-1.21611 5.0962,-5.06488 5.0962,-5.06487 2.3237,-5.96901 2.3237,-5.96901 0.4391,-14.75 0.4391,-14.75 -3.859,0.008 c -10.8279,0.0212 -27.4553,4.67594 -33.6898,9.43121 -1.9627,1.49701 -4.5953,4.8232 -5.8503,7.39154 l -2.2818,4.6697 -0.019,8.5 -0.018,8.5 1.4118,3.5 c 1.7171,4.25656 4.5919,7.6473 8.5882,10.1293 l 3,1.86322 4.384,0.004 c 2.4112,0.002 6.2362,-0.54351 8.5,-1.21238 z M 676.00922,1011.75 c 0.005,-0.6875 -0.11296,-40.625 -0.26231,-88.75 l -0.27153,-87.5 -1.98769,-5.5 -1.98769,-5.5 -3.68004,-1.79894 c -2.02403,-0.98941 -7.76153,-2.76848 -12.75,-3.95347 L 646,816.59304 V 813.29652 810 l 31.25,0.0166 31.25,0.0166 26.16941,45.73342 c 14.39318,25.15337 35.54318,62.08693 47,82.07457 l 20.83059,36.34115 0.60853,-75.84115 c 0.33469,-41.71264 0.67219,-78.65366 0.75,-82.09116 L 804,810 h 9 9 V 911.5 1013 l -14.25,-0.028 -14.25,-0.028 -6.63867,-11.7218 C 783.21006,994.77481 775.16367,980.725 768.98046,970 c -6.18322,-10.725 -16.42133,-28.5 -22.75138,-39.5 -6.33004,-11 -17.60277,-30.575 -25.05049,-43.5 -7.44773,-12.925 -16.31194,-28.33228 -19.69824,-34.2384 l -6.1569,-10.73839 -0.66173,34.65179 C 694.29778,895.73348 694,934.20326 694,962.16339 V 1013 h -9 -9 l 0.009,-1.25 z M 875.78544,923.25 875.5,833.5 l -1.76693,-3.23307 c -2.25941,-4.13421 -5.8219,-5.93648 -15.4716,-7.82709 -4.26881,-0.83637 -8.77397,-1.73606 -10.01147,-1.99931 L 846,819.9619 v -2.89305 -2.89305 l 3.75,-0.60088 C 853.62698,812.9537 906.44518,807 908.07935,807 H 909 v 90.875 c 0,49.98125 0.28735,92.31173 0.63855,94.06773 l 0.63854,3.19272 2.56483,1.68228 2.56482,1.68227 21.98897,0.33692 21.98897,0.33691 7.82124,-1.14361 c 16.52839,-2.41677 20.61737,-6.5982 22.63734,-23.14915 L 990.5,969.5 l 3.75,-0.31037 3.75,-0.31036 -0.005,12.31036 c -0.003,6.77071 -0.29572,16.69787 -0.65083,22.06037 l -0.64565,9.75 h -60.31373 -60.31373 l -0.28545,-89.75 z m 298.99016,-0.5 -0.2756,-90.25 -2.1643,-4.68335 -2.1643,-4.68334 -6.3357,-1.94776 c -3.4846,-1.07126 -8.8827,-2.5138 -11.9957,-3.20564 l -5.66,-1.25788 -0.4107,-2.14876 c -0.226,-1.18181 -0.229,-2.69427 -0.01,-3.36101 L 1146.1634,810 h 33.3448 33.3448 l 1.9614,5.25 c 1.0788,2.8875 14.2042,39.675 29.1674,81.75 14.9633,42.075 27.535,77.09223 27.9372,77.81606 l 0.7311,1.31605 4.6797,-12.98345 c 2.5737,-7.1409 7.5572,-21.23313 11.0743,-31.31606 3.5171,-10.08293 14.6409,-41.6201 24.7195,-70.0826 L 1331.4484,810 h 19.7645 19.7646 l 0.2596,99.75 c 0.1428,54.8625 0.095,100.5375 -0.107,101.5 l -0.3667,1.75 h -14.3833 -14.3834 l -0.082,-89.25 -0.082,-89.25 -1.539,3.5 c -0.8464,1.925 -10.2142,28.025 -20.8174,58 -10.6031,29.975 -24.2167,68.45 -30.2525,85.5 l -10.9741,31 -10.4787,0.2823 -10.4788,0.2824 -1.6134,-4.2824 C 1254.7914,1006.427 1251.408,996.85 1248.16,987.5 1228.1488,929.89365 1195.6204,838.35229 1194.8766,837.55 L 1194,836.6 v 88.2 88.2 h -9.4744 -9.4744 z M 298.43629,949.58746 C 291.63927,946.62734 282.5931,932.90826 275.62981,915 c -5.25482,-13.51438 -8.62823,-25.01141 -12.14586,-41.39478 -4.63843,-21.60347 -6.20869,-34.34526 -8.85523,-71.85522 -0.18432,-2.6125 -0.1133,-4.75 0.15783,-4.75 1.85926,0 13.50841,20.08606 19.87348,34.26687 9.86007,21.96734 18.13986,47.15804 23.90625,72.73313 3.19201,14.1572 8.41868,45.21533 7.78239,46.24486 -0.70931,1.14768 -4.48858,0.83368 -7.91238,-0.6574 z M 1515.4391,944.75 c 2.1177,-18.97611 9.8423,-53.51474 17.1027,-76.47068 4.6218,-14.61326 12.9673,-35.3829 19.1513,-47.66271 4.5109,-8.95753 14.3639,-24.89296 14.9988,-24.258 0.932,0.93193 -1.8422,34.20981 -4.2551,51.04305 C 1554.0984,905.57288 1534.3591,951 1517.4205,951 h -2.6788 z m -1191.14922,-11 0.59556,-14.25 2.10821,-11 c 4.09171,-21.34921 9.85624,-36.81222 19.58909,-52.54654 6.58813,-10.65051 18.07121,-23.20331 26.91726,-29.42478 5.54161,-3.89745 9.5,-6.01431 9.5,-5.08041 0,0.21203 -1.84553,5.48541 -4.10118,11.71862 -2.25565,6.23321 -7.60665,21.68311 -11.89111,34.33311 -11.59468,34.23361 -16.69097,47.87228 -22.16557,59.31931 l -4.93526,10.31931 -5.26004,5.43069 L 329.38681,948 h -2.84625 -2.84624 z m 1162.63792,9.27303 -5.1065,-5.1065 -5.3089,-11.20826 c -5.6998,-12.03342 -11.2119,-26.84154 -23.5287,-63.20827 -4.2843,-12.65 -9.406,-27.43475 -11.3815,-32.855 l -3.5919,-9.85501 1.5148,0.58126 c 2.5993,0.99745 12.7613,8.20764 17.5996,12.48736 2.5436,2.24993 7.1458,7.38226 10.2271,11.40519 18.5515,24.22067 29.1606,56.68255 29.7242,90.95062 l 0.1856,11.28558 -2.6136,0.31477 -2.6137,0.31477 z M 327.49111,817.98561 c -1.58768,-2.56891 6.02213,-28.42499 12.4398,-42.26712 12.63575,-27.25376 33.7851,-48.31248 55.93581,-55.69612 3.5017,-1.16725 6.55805,-1.93093 6.7919,-1.69708 0.64504,0.64503 -41.68785,70.60229 -48.17695,79.61485 C 345.02772,811.07052 335.93209,819 330.32462,819 c -1.21362,0 -2.4887,-0.45648 -2.83351,-1.01439 z m 1156.45469,-1.80719 c -9.8088,-6.2253 -17.8331,-17.53854 -46.9394,-66.17842 -10.0383,-16.775 -18.4589,-30.85554 -18.7127,-31.29008 -1.3388,-2.29304 14.2786,3.59489 22.3746,8.43547 7.8378,4.68617 20.6062,16.88373 27.5032,26.27367 10.2164,13.90894 18.7776,32.79832 23.8251,52.56753 1.1019,4.31565 2.0034,9.00916 2.0034,10.43002 V 819 h -2.8042 c -1.5423,0 -4.8048,-1.26971 -7.25,-2.82158 z M 301.57519,811.93187 c -8.08754,-7.10095 -13.9458,-26.57226 -16.64495,-55.32341 l -1.21026,-12.89154 0.60991,-25.10846 c 0.58256,-23.98258 1.11337,-30.8214 3.80632,-49.03901 l 1.19283,-8.06945 2.42812,5.5 c 5.94146,13.45814 12.82423,42.79335 15.71986,67 1.94067,16.22341 3.09212,55.33241 2.06831,70.25 L 308.80754,815 h -1.86897 c -1.02794,0 -3.44146,-1.38066 -5.36338,-3.06813 z m 1209.91301,-15.39414 -0.7287,-18.46228 1.1422,-19.16087 c 1.6796,-28.17441 4.5661,-47.75921 10.1076,-68.57836 3.2032,-12.03427 7.685,-25.28556 9.0408,-26.73086 l 0.8392,-0.89465 0.54,2.39465 c 1.4613,6.48055 3.5655,26.39655 4.6419,43.93553 l 1.1992,19.5409 -1.1851,17.90177 c -0.6519,9.84597 -2.0432,22.87757 -3.0919,28.95911 -4.0918,23.72775 -12.0494,39.34736 -20.135,39.52189 l -1.6416,0.0354 -0.7286,-18.46227 z M 357.25,694.39049 c -2.0946,-0.93362 -1.45945,-3.15371 3.87124,-13.53146 15.97519,-31.10041 39.8696,-51.88783 65.94922,-57.37385 C 430.95362,622.66833 435.93883,622 438.14871,622 h 4.01796 l -0.33334,0.97887 c -0.66675,1.958 -44.59242,47.43735 -53.95426,55.86265 -5.29151,4.76216 -12.15472,10.17634 -15.25157,12.03149 l -5.63064,3.37302 -4.24843,0.35081 c -2.33664,0.19295 -4.81093,0.10009 -5.49843,-0.20635 z m 1094.1489,-1.98034 c -2.6944,-1.42441 -7.2382,-4.38623 -10.0973,-6.58182 C 1434.1754,680.356 1379,624.3155 1379,622.54992 c 0,-0.45418 3.4257,-0.51535 7.6127,-0.13594 21.1323,1.91496 41.5942,13.93996 57.7498,33.93818 7.6264,9.44046 14.7014,20.8887 19.0805,30.87485 l 2.5114,5.727 -1.9114,1.023 c -3.173,1.69812 -7.4769,1.16478 -12.6441,-1.56686 z M 333.75537,681.26589 c -3.76121,-3.92677 -5.45931,-8.61021 -6.83019,-18.83797 L 325.72852,653.5 326.36744,640 c 1.27549,-26.95069 6.7784,-54.35054 17.32222,-86.25 1.95428,-5.9125 3.88206,-10.75 4.28396,-10.75 1.1196,0 2.89669,11.91265 4.2144,28.25106 l 1.18968,14.75107 -1.22131,18.11402 c -0.67173,9.96272 -2.5766,26.17021 -4.23307,36.01666 -3.39815,20.19946 -8.89418,43.06686 -10.471,43.5668 -0.57623,0.1827 -2.23985,-0.91247 -3.69695,-2.43372 z M 1482.5502,682.75 c -2.8661,-9.25755 -8.0746,-34.47511 -10.6886,-51.75 l -2.0427,-13.5 -0.5106,-24 -0.5105,-24 1.6297,-12.3899 c 0.8963,-6.81444 1.9984,-13.04868 2.449,-13.85387 l 0.8193,-1.46398 4.0799,12.35387 c 7.8859,23.87793 13.0316,45.99735 15.7775,67.82216 l 1.6946,13.46828 -0.5177,16.03172 -0.5177,16.03172 -1.6938,5.41452 c -2.2994,7.35038 -8.7632,13.72805 -9.9684,9.83548 z M 410.89459,582.11572 l -2.32699,-1.88427 2.79265,-4.02979 c 8.1847,-11.81053 23.53314,-25.10128 36.56807,-31.66556 3.6618,-1.84406 10.01344,-4.39188 14.11475,-5.66184 l 7.45693,-2.30902 11,10e-4 11,10e-4 4.321,1.27382 4.321,1.27383 -13.321,8.58441 C 441.87575,576.66367 427.75054,584 416.92928,584 h -3.70771 z M 1395.5,582.5921 c -9.667,-3.07921 -22.3424,-10.35546 -62.8993,-36.10716 l -10.8994,-6.92055 3.009,-1.22777 c 1.6549,-0.67528 6.3355,-1.52923 10.4015,-1.89767 l 7.3925,-0.6699 7.2002,1.11716 c 16.0757,2.49422 32.5276,10.85116 45.7948,23.26205 6.0129,5.62475 17.5007,18.87615 17.5007,20.18738 0,0.33715 -1.3277,1.29956 -2.9503,2.13868 -3.5205,1.82051 -9.0632,1.86538 -14.5497,0.11778 z M 390.67417,564.19246 C 388.09186,561.33903 387,556.42717 387,547.66369 387,525.96005 399.98516,488.15485 418.82769,455 l 7.67231,-13.5 0.31911,8 c 0.75144,18.83829 -6.08495,52.15562 -15.84384,77.21549 -4.41837,11.34592 -15.07536,34.76574 -16.9519,37.25352 l -1.61445,2.14033 z M 1422.0519,553.75 c -11.6634,-24.61224 -19.031,-45.85252 -23.5741,-67.96274 -2.8769,-14.00152 -4.752,-31.06553 -4.3033,-39.16228 l 0.3255,-5.87503 6.6616,11.87503 c 17.8854,31.88239 28.7785,60.17103 32.35,84.01073 l 1.6277,10.86429 -0.6612,5.5 c -0.6508,5.41296 -3.9971,13 -5.7337,13 -0.488,0 -3.4996,-5.5125 -6.6925,-12.25 z M 490.5,492.26724 c -2.8693,-0.71842 -7.5,-4.18952 -7.5,-5.62188 0,-2.93859 18.40506,-14.48297 29.58701,-18.55813 14.54305,-5.30009 27.56657,-6.06033 41.84159,-2.44246 5.98212,1.51611 14.96583,5.56638 15.97758,7.20343 0.30124,0.48742 -1.80441,1.57054 -4.67923,2.40692 -2.87482,0.83638 -13.42378,4.06616 -23.44213,7.17729 -29.00982,9.00879 -43.83718,11.82476 -51.78482,9.83483 z m 819.5,-1.21183 c -12.1784,-2.58449 -59,-16.89687 -59,-18.03505 0,-1.25357 7.5619,-4.85554 15,-7.145 l 7.5,-2.30851 10,0.0595 10,0.0595 7,1.74604 c 9.3918,2.34265 23.4744,9.2319 31.824,15.56841 l 6.8239,5.17873 -1.8239,2.0485 c -4.503,5.05726 -12.7816,5.91405 -27.324,2.82787 z M 468.03518,465.06574 c -0.56935,-1.06384 -1.03064,-4.77634 -1.0251,-8.25 l 0.0101,-6.31574 3.47642,-9.95097 c 4.46991,-12.79478 14.52589,-30.38799 26.40328,-46.19327 10.21211,-13.58928 24.31506,-29.21098 24.86949,-27.54769 0.59029,1.77088 -4.59068,20.80467 -8.22338,30.21093 -5.34086,13.82923 -12.91616,28.27891 -22.0087,41.981 -8.49627,12.80352 -20.26008,28 -21.6752,28 -0.43544,0 -1.25755,-0.87042 -1.8269,-1.93426 z m 878.35582,-3.71279 c -23.8828,-28.0394 -41.4475,-63.06025 -46.8195,-93.34948 l -0.6201,-3.49653 1.8935,1.99653 c 27.1746,28.65249 46.7787,59.30002 52.3388,81.82229 l 2.0831,8.43828 -0.6461,3.44424 c -0.3554,1.89434 -1.2308,4.24376 -1.9453,5.22094 l -1.2991,1.77669 z M 592.14762,427.972 c -9.95524,-1.44796 -16.67904,-5.13103 -18.41559,-10.08745 l -0.56599,-1.61544 9.16698,-3.14284 c 16.81191,-5.76385 30.91999,-6.20565 45.66698,-1.43007 8.62127,2.79185 13.28009,5.3369 20.96643,11.45365 l 5.46643,4.35015 -8.96643,0.64411 c -12.35,0.88718 -46.80041,0.77597 -53.31881,-0.17211 z m 583.89148,0.14325 -8.4609,-0.61525 5.4609,-4.62979 c 6.5574,-5.5594 15.3222,-10.10452 24.0409,-12.4668 l 6.42,-1.73947 9.5,-0.0142 c 10.5561,-0.0157 18.1668,1.35409 28.25,5.08461 l 6.75,2.49733 v 1.30622 c 0,0.71842 -1.7873,2.83606 -3.9717,4.70586 l -3.9717,3.39965 -5.2783,1.32937 -5.2783,1.32937 -22.5,0.21416 c -12.375,0.11778 -26.3074,-0.0627 -30.9609,-0.4011 z M 563.59996,392.3999 c -1.9908,-5.18796 1.18056,-14.78215 8.39537,-25.39811 5.77221,-8.4933 19.18015,-22.33562 30.48188,-31.46939 10.17173,-8.22052 24.40957,-17.97895 25.15062,-17.2379 0.78881,0.78881 -5.09529,13.04609 -10.78322,22.46275 -8.92842,14.78146 -22.68821,30.02459 -39.06389,43.27508 -5.34561,4.32543 -10.58812,8.32941 -11.65004,8.89773 l -1.93076,1.03331 z M 1251.5,390.32501 c -16.3228,-11.83537 -33.7604,-29.45891 -43.1659,-43.62619 -5.4972,-8.28027 -15.6771,-27.68912 -14.92,-28.44622 0.2804,-0.28044 2.8895,1.0023 5.7979,2.85053 11.0336,7.01161 21.7114,15.78552 33.9318,27.88166 l 12.6438,12.51521 4.4405,7 c 2.4422,3.85 5.19,8.92161 6.1062,11.27024 1.6739,4.29133 2.316,14.25126 0.9157,14.20497 -0.4125,-0.0136 -3,-1.65623 -5.75,-3.6502 z M 687.3264,378.95562 c -5.52581,-1.09262 -10.00509,-3.48673 -11.4,-6.09314 l -1.13289,-2.11683 1.35324,-0.87736 c 3.48581,-2.25997 15.17243,-5.10594 22.85325,-5.56531 l 8.5,-0.50835 6.77132,1.59324 c 3.72423,0.87628 8.67423,2.55175 11,3.72326 4.8993,2.46783 12.72868,8.59163 12.72868,9.95582 L 738,380 714.75,379.89043 c -12.7875,-0.0603 -25.12812,-0.48092 -27.4236,-0.93481 z M 1083,379.15946 c 0,-0.54446 2.6924,-3.01387 5.9832,-5.48757 l 5.9832,-4.49763 6.7668,-2.33713 6.7668,-2.33713 11,0.0178 11,0.0178 6.5,2.2475 c 3.575,1.23612 7.175,2.67779 8,3.2037 l 1.5,0.95621 -1.0574,1.77846 c -0.5815,0.97816 -3.2815,2.90347 -6,4.27847 l -4.9426,2.5 -25.75,0.32469 -25.75,0.32469 v -0.98992 z m -415.7988,-32.57217 0.44887,-5.41271 3.42496,-5.68018 c 7.21073,-11.95874 20.56505,-25.20017 37.90157,-37.58116 4.66213,-3.32949 8.62445,-5.61008 8.80515,-5.06798 0.49446,1.48336 -6.39524,14.66802 -12.09959,23.15474 -2.77263,4.125 -9.34787,11.78854 -14.61165,17.0301 C 681.76448,342.29684 669.84982,352 667.77709,352 h -1.02475 z m 478.3335,0.16222 c -10.3709,-7.78905 -23.7179,-21.7193 -30.4428,-31.77313 -5.6322,-8.42023 -12.6812,-21.72037 -11.9169,-22.48476 0.562,-0.56199 9.8232,5.53493 17.3769,11.43976 10.0024,7.81893 24.4001,22.74722 28.3084,29.35143 1.8481,3.12302 4.0129,7.57263 4.8106,9.88801 1.3775,3.9982 1.1359,8.84029 -0.44,8.81957 -0.402,-0.005 -3.8653,-2.36369 -7.6962,-5.24088 z m -428.83322,-4.55312 -1.79852,-0.7566 2.29852,-2.11415 c 4.3189,-3.97248 14.88787,-10.18499 21.59689,-12.6948 14.90872,-5.57726 27.767,-8.1338 46.20163,-9.18602 l 11.5,-0.6564 12,1.183 c 6.6,0.65066 12.36121,1.53197 12.80269,1.95848 0.44148,0.42651 -3.02913,1.53647 -7.71246,2.46657 -4.68334,0.9301 -21.01955,4.84836 -36.30269,8.70726 -40.43326,10.20914 -55.93821,13.04793 -60.58606,11.09266 z M 1094.5,342.34412 c -7.8924,-0.93711 -17.4043,-3.04824 -46.5,-10.32052 -17.325,-4.33026 -35.4612,-8.64833 -40.3027,-9.59571 -4.8415,-0.94738 -8.44147,-2.0685 -7.99999,-2.49138 0.44149,-0.42288 6.87769,-1.30428 14.30269,-1.95868 l 13.5,-1.18981 10,0.66176 c 27.5222,1.82129 51.8276,9.42807 64.3267,20.13206 l 4.3267,3.70532 -1.3267,0.84111 c -1.3157,0.8341 -4.5504,0.90172 -10.3267,0.21585 z m -675.42562,1256.02008 -5.22821,-3.5209 0.54203,-1.4126 c 0.29812,-0.7768 7.00008,-10.7541 14.89323,-22.1716 20.7092,-29.956 24.72236,-36.0239 26.26149,-39.7076 l 1.37404,-3.2885 -3.59271,-4.1973 -3.5927,-4.1973 0.88423,-0.8363 0.88422,-0.8363 18.36971,12.7858 c 10.10335,7.0322 19.42431,14.0757 20.71327,15.6521 1.28895,1.5765 3.08566,5.0472 3.99267,7.7127 l 1.64913,4.8464 -0.66405,4.1536 c -0.87832,5.4938 -4.40243,11.3312 -9.90031,16.399 l -4.48087,4.1303 -3.50545,0.6576 -3.50545,0.6576 -5.36521,-1.5597 c -2.95086,-0.8578 -9.13563,-3.8258 -13.74393,-6.5954 -4.60831,-2.7697 -8.69429,-5.0358 -9.07998,-5.0358 -0.38569,0 -4.66587,5.7375 -9.51152,12.75 -4.84565,7.0125 -9.56518,13.7366 -10.48785,14.9425 l -1.67757,2.1925 z m 54.90217,-26.181 c 3.92934,-2.9103 8.8634,-9.8751 10.00853,-14.1278 l 1.03952,-3.8605 -1.07592,-2.8474 c -1.30157,-3.4447 -5.3014,-7.7775 -9.68353,-10.4897 l -3.23485,-2.0022 -1.89669,0.602 c -1.45618,0.4622 -15.36718,19.1869 -19.44255,26.1704 l -0.65825,1.1279 4.10452,2.7163 c 8.62817,5.7098 15.5709,6.613 20.83922,2.711 z m -100.91235,-9.3105 -19.08083,-15.9253 17.75831,-21.1179 C 397.03198,1495.7546 403,1488.1037 403,1485.7565 c 0,-1.1372 -1.125,-3.5427 -2.5,-5.3454 -2.57953,-3.3819 -3.27146,-5.8349 -1.47719,-5.2368 0.56255,0.1875 11.13321,8.8044 23.49036,19.1486 l 22.46754,18.8077 -5.60299,6.9347 c -3.08165,3.8141 -5.92731,6.9347 -6.32369,6.9347 -1.79778,0 -1.76863,-1.486 0.0995,-5.07 l 2.01818,-3.8719 -0.63371,-2.7791 c -0.34853,-1.5284 -1.62466,-3.9083 -2.83583,-5.2885 C 428.29801,1506.1112 417.04388,1497 415.65629,1497 c -1.44398,0 -6.97414,5.6323 -15.17566,15.4561 l -5.80741,6.956 5.91339,5.3861 c 3.25237,2.9623 7.414,6.0415 9.24808,6.8427 l 3.33469,1.4567 3.5253,-2.08 3.52529,-2.0799 1.43607,1.1918 1.43608,1.1918 -3.36887,3.5894 c -1.85287,1.9741 -5.62956,6.3585 -8.39263,9.7431 l -5.02378,6.1539 -1.21127,-0.7486 -1.21126,-0.7486 1.74756,-3.6647 1.74757,-3.6647 -0.93972,-2.6675 c -0.51685,-1.4672 -4.22593,-5.5368 -8.2424,-9.0436 l -7.30269,-6.376 -10.50215,12.6653 -10.50216,12.6652 0.30484,2.0927 0.30484,2.0927 8,6.7538 c 4.4,3.7146 9.22876,7.2733 10.73059,7.9083 3.32826,1.4073 7.12698,0.5704 9.87216,-2.1748 l 2.05189,-2.0518 1.57248,0.6034 1.57247,0.6034 -1.93931,2.2239 c -1.06662,1.2231 -3.80139,4.3159 -6.07727,6.8729 l -4.13797,4.649 z m 1047.3725,-14.0961 c -10.944,-12.2521 -22.5657,-25.0891 -25.826,-28.5266 l -5.9277,-6.25 h -2.5915 c -1.4253,0 -4.1141,0.932 -5.975,2.0665 l -3.3835,2.0628 -0.9303,-0.9303 -0.9302,-0.9302 9.6457,-8.7118 c 5.3052,-4.7915 10.1714,-8.5148 10.8138,-8.2741 0.6424,0.2407 7.018,2.3274 14.168,4.6372 7.15,2.3098 23.2779,7.5814 35.8398,11.7147 12.562,4.1333 22.9875,7.3676 23.1678,7.1872 0.1804,-0.1803 -9.7224,-11.6418 -22.0062,-25.4698 l -22.3341,-25.142 2.7387,-2.6238 2.7387,-2.6239 7.4836,8.2669 c 4.116,4.5468 16.7813,18.6855 28.1452,31.4194 l 20.6617,23.1525 -4.4925,4.1411 c -2.471,2.2776 -4.8189,3.952 -5.2177,3.7208 -2.2605,-1.3103 -75.5117,-24.7135 -75.9574,-24.2678 -0.5715,0.5715 0.8888,2.2507 37.9931,43.6879 l 7.6891,8.5869 -2.8074,2.6897 -2.8074,2.6896 -19.8983,-22.2766 z m -872.99557,18.804 -1.94113,-1.4194 2.47577,-2.8306 c 6.82489,-7.803 11.60345,-12.3306 13.01413,-12.3306 0.8608,0 2.56522,0.7005 3.78759,1.5567 L 567,1554.1134 v 2.3852 2.3851 l -8.594,5.0582 c -4.7267,2.7819 -8.69069,5.0581 -8.80887,5.0581 -0.11818,0 -1.08838,-0.6387 -2.156,-1.4194 z m -215.71868,-40.3548 -4.69005,-4.7616 6.15107,-21.722 6.15107,-21.722 -2.9099,-2.5004 -2.90991,-2.5005 -10.00736,9.8287 c -5.50405,5.4058 -11.80455,11.4625 -14.00109,13.4593 l -3.99373,3.6307 -4.25627,-4.1772 C 298.91532,1494.4633 297,1492.1193 297,1491.5519 c 0,-0.5675 12.16219,-12.9613 27.02708,-27.5418 l 27.02709,-26.5101 -0.0271,-2.5179 c -0.0149,-1.3848 -1.1508,-4.1715 -2.52423,-6.1927 l -2.49714,-3.6749 1.16463,-0.7198 1.16463,-0.7198 11.72355,12.0541 c 13.61765,14.0016 19.12246,20.7212 22.60466,27.593 l 2.50349,4.9404 v 4.2573 c 0,2.3415 -0.67381,5.545 -1.49734,7.1188 -2.16503,4.1375 -7.45519,9.2116 -12.04503,11.5532 l -3.98152,2.0312 -4.32459,-0.5928 c -2.37852,-0.326 -6.18419,-1.5414 -8.45704,-2.7009 l -4.13245,-2.1083 -0.76784,1.2424 c -0.42231,0.6833 -3.33426,10.2861 -6.47101,21.3396 -3.13674,11.0534 -6.01236,20.4318 -6.39026,20.8408 -0.3779,0.4091 -2.79761,-1.3989 -5.37714,-4.0179 z m 29.46049,-45.2599 3.68295,-1.0229 4.49335,-4.9977 c 2.47134,-2.7487 4.77249,-6.2686 5.11366,-7.8219 l 0.62031,-2.8243 -1.41761,-4.1146 c -1.73343,-5.0313 -6.23835,-10.5862 -9.89468,-12.2008 l -2.71909,-1.2007 -3.78091,3.0349 c -2.07951,1.6692 -7.25324,6.5556 -11.4972,10.8585 l -7.71627,7.8236 2.71627,3.0453 c 3.57496,4.008 8.98855,7.9451 12.71628,9.2481 3.89471,1.3615 3.43912,1.3512 7.68294,0.1725 z m 1123.24826,1.2841 c -9.1873,-18.0125 -17.7907,-34.2125 -19.1186,-36 -2.8118,-3.7849 -4.3658,-3.9983 -8.8654,-1.2174 l -3.2888,2.0326 -0.6412,-1.0373 c -0.7357,-1.1904 13.3726,-17.0265 15.1696,-17.0274 0.6527,-3e-4 15.5027,6.015 33,13.3672 17.4973,7.3522 35.4132,14.8415 39.8132,16.6429 4.4,1.8013 8.3356,3.569 8.7459,3.9282 0.4102,0.3591 -1.2426,2.6044 -3.6729,4.9895 l -4.4187,4.3367 -12.7091,-5.3274 -12.7091,-5.3273 -7.3866,7.9448 c -4.0626,4.3697 -8.9235,9.755 -10.802,11.9673 l -3.4153,4.0223 6.112,12.0534 6.1121,12.0533 -1.9281,2.6429 c -1.0605,1.4536 -2.2353,2.657 -2.6105,2.6743 -0.3753,0.017 -8.1992,-14.7061 -17.3865,-32.7186 z m 23.8521,-23.5134 c -10.5662,-4.5761 -33.8425,-13.3442 -34.0467,-12.8253 -0.1449,0.368 3.5879,8.1677 8.2951,17.3326 l 8.5585,16.6635 9.4882,-10.1992 9.4883,-10.1992 z m -1308.19837,-153.8584 -5.41508,-2.1411 -4.27393,-4.3976 -4.27394,-4.3975 -2.16032,-5.721 -2.16033,-5.721 0.46648,-6.0294 0.46647,-6.0294 2.08506,-4.0871 c 3.03977,-5.9584 6.77448,-10.0306 12.03606,-13.1237 L 201.5,1251.5 h 9 9 l 3.54757,1.7679 c 5.26445,2.6234 10.95536,8.5804 13.59638,14.2321 l 2.33651,5 -0.0122,7 -0.0122,7 -2.03462,4.5 c -2.6628,5.8894 -7.23953,10.5738 -13.42146,13.7372 l -5,2.5586 -6.5,0.3617 -6.5,0.3618 -5.41507,-2.1411 z m 1404.05457,1.0341 c -7.6696,-2.3434 -14.7343,-8.5685 -18.0586,-15.9123 l -2.037,-4.5 -0.012,-7 -0.012,-7 2.3387,-5 c 2.9477,-6.3022 7.7329,-11.0775 14.1418,-14.1126 l 5,-2.3679 6.0719,-0.01 c 11.7035,-0.019 21.1199,5.5016 26.0799,15.2898 l 2.5718,5.0753 0.5146,5.6741 0.5145,5.6742 -1.6841,5.0702 c -0.9262,2.7886 -3.1749,7.0227 -4.997,9.4091 l -3.3131,4.3389 -5.2797,2.8736 -5.2796,2.8736 -6.5996,0.3252 c -3.6298,0.1789 -8.1118,-0.1367 -9.9601,-0.7015 z M 99.350209,1118.75 c -2.759209,-7.8375 -4.971407,-14.3329 -4.915997,-14.4341 0.05541,-0.1013 14.942878,-3.5834 33.083268,-7.7381 34.47239,-7.8951 42.53859,-10.263 48.57999,-14.261 l 3.64041,-2.4091 1.77212,-3.9299 1.77213,-3.9298 -0.55311,-6.0997 -0.5531,-6.0997 -2.83796,-5.6743 -2.83796,-5.6743 -3.5,-1.8166 -3.5,-1.8166 -9,0.4778 -9,0.4778 -30.5,7.0689 c -16.775,3.8879 -31.460223,7.2983 -32.633829,7.5787 l -2.13383,0.5098 -1.161198,-4.6115 c -0.638658,-2.5364 -0.929478,-4.8433 -0.646266,-5.1265 0.283212,-0.2832 8.740974,-2.4133 18.795023,-4.7335 10.05406,-2.3203 24.8051,-5.7261 32.7801,-7.5686 l 14.5,-3.3499 9.5,-0.045 9.5,-0.045 4.76999,2.3489 4.77,2.3489 2.83269,4.1511 c 5.71696,8.3778 9.80033,24.2924 8.86881,34.5653 -0.91071,10.0435 -5.6444,16.6445 -15.45147,21.5466 l -5.20999,2.6043 -27.79001,6.394 c -30.3882,6.9918 -30.993,7.1604 -33.54002,9.3479 l -1.75,1.503 v 6.345 6.345 h -1.31652 -1.31653 l -5.016741,-14.25 z M 1623.3891,1105.8045 c 0.3515,-1.7576 1.0989,-4.903 1.6608,-6.99 l 1.0218,-3.7944 2.2141,-0.4845 c 1.2178,-0.2664 8.2892,-1.1953 15.7142,-2.0641 7.425,-0.8688 13.7818,-1.8928 14.1262,-2.2756 0.3445,-0.3827 2.44,-8.5709 4.6567,-18.1959 l 4.0305,-17.5 -1.1567,-1.0895 c -0.6362,-0.5992 -6.7103,-4.6396 -13.4979,-8.9787 l -12.3413,-7.8891 0.637,-3.9838 c 0.3504,-2.1911 0.7839,-4.1306 0.9633,-4.31 0.1794,-0.1794 15.3462,9.4937 33.7042,21.4959 18.3579,12.0021 36.1888,23.526 39.6241,25.6087 l 6.2462,3.7866 2.2538,-0.32 2.2539,-0.3201 2.5313,-4.6942 2.5313,-4.6942 1.1398,0.7045 1.1398,0.7044 -2.9966,12.982 c -1.6482,7.14 -3.0752,13.035 -3.1711,13.0999 -0.2667,0.1804 -102.0503,12.4497 -103.0495,12.4219 -0.4812,-0.013 -0.5874,-1.4623 -0.2359,-3.2198 z m 66.3609,-19.4475 c 11.1375,-1.531 20.25,-3.0649 20.25,-3.4086 0,-0.5983 -35.1557,-23.9112 -36.6036,-24.2731 -0.7059,-0.1764 -7.2574,26.2532 -7.3479,29.6421 l -0.049,1.8174 1.75,-0.4971 c 0.9625,-0.2733 10.8625,-1.7496 22,-3.2807 z M 79.94602,1025.75 c -0.02969,-0.1375 -0.61441,-6.9411 -1.29938,-15.1191 l -1.245399,-14.86905 5.04938,-3.74935 C 85.227779,989.95035 101.45,978.70613 118.5,967.02533 c 17.05,-11.68079 31.675,-21.9169 32.5,-22.7469 l 1.5,-1.5091 -9.5,0.67086 c -5.225,0.36897 -22.775,1.72162 -39,3.00588 -16.225,1.28426 -29.8375,2.13272 -30.25,1.88546 C 73.3375,948.08427 73,946.12891 73,943.9863 v -3.89567 l 3.25,-0.51999 c 6.793265,-1.0869 93.99568,-7.65829 94.53036,-7.12361 0.30866,0.30865 0.59684,3.53645 0.64042,7.17288 l 0.0792,6.61169 -37.71515,26.14935 C 113.04151,986.7631 95.491512,999.13857 94.784846,999.88201 L 93.5,1001.2337 l 4.5,-0.579 c 2.475,-0.3185 20.84786,-1.80295 40.82857,-3.29878 l 36.32857,-2.71969 0.93195,1.43188 c 0.51257,0.78754 0.81471,2.78189 0.67143,4.43189 l -0.26052,3 -40,3.2236 c -22,1.7729 -42.388085,3.7234 -45.306855,4.3344 l -5.306855,1.1109 -0.858084,2.2569 c -0.471947,1.2413 -1.172457,4.3533 -1.556689,6.9156 L 82.772912,1026 h -1.386456 c -0.762551,0 -1.410747,-0.1125 -1.440436,-0.25 z m 1623.44538,-21 c -45.7953,-32.42749 -48.3646,-34.22686 -49.3546,-34.56421 -1.2057,-0.41086 -1.7298,3.22071 -3.076,21.31421 l -1.1161,15 1.3277,3.8334 1.3276,3.8333 2.5,1.3553 c 1.375,0.7454 3.7375,1.6164 5.25,1.9357 l 2.75,0.5804 v 2.0483 2.0484 l -1.75,-0.5144 c -0.9625,-0.283 -5.4724,-0.8222 -10.022,-1.1985 -4.5496,-0.3762 -8.4635,-0.9939 -8.6975,-1.3726 -0.4259,-0.689 4.0833,-58.75752 5.0242,-64.70055 l 0.4989,-3.15125 4.2232,0.55981 4.2232,0.5598 25,17.67594 c 13.75,9.72176 31.1388,22.02541 38.6418,27.34144 7.503,5.31601 14.0555,9.66551 14.5612,9.66551 0.5057,0 1.4374,-6.6375 2.0705,-14.75 l 1.151,-14.75 -0.8734,-3.82311 c -1.1694,-5.11829 -3.603,-7.58161 -8.2198,-8.31986 L 1725,964.74438 v -2.00135 -2.00136 l 6.25,0.65648 c 3.4375,0.36107 8.173,0.92187 10.5234,1.24622 l 4.2733,0.58972 -0.4965,3.13296 c -0.2731,1.72312 -1.4913,15.84545 -2.7072,31.38295 l -2.2107,28.25 h -3.6155 -3.6154 z M 1650,924.10583 v -6.89416 l 31.75,-19.79348 c 47.7417,-29.76297 49.2701,-30.73146 48.9701,-31.03142 -0.153,-0.15301 -12.8651,0.13137 -28.2491,0.63195 -15.3841,0.50059 -33.9335,0.92616 -41.221,0.94572 L 1648,868 v -4.29982 -4.29983 l 41.75,-1.25338 c 22.9625,-0.68936 43.4298,-1.69472 45.483,-2.23414 l 3.733,-0.98076 1.0771,-2.01257 c 0.5924,-1.10692 1.3993,-3.90024 1.7932,-6.20739 l 0.7161,-4.19481 1.7238,-0.33197 1.7238,-0.33198 0.011,11.32333 c 0.01,6.22782 0.2837,12.97224 0.6169,14.9876 l 0.606,3.66427 -6.867,4.49535 c -3.7768,2.47243 -19.3406,12.18716 -34.5862,21.58828 -15.2456,9.40111 -29.8706,18.48727 -32.5,20.19145 l -4.7807,3.09852 31,-0.61941 c 17.05,-0.34068 34.9375,-0.89421 39.75,-1.23006 l 8.75,-0.61065 v 4.62899 c 0,2.54594 -0.1125,4.64978 -0.25,4.6752 -1.1854,0.21918 -83.1691,2.89381 -89.5,2.91985 L 1650,931 Z M 74.652215,911.25 c -0.332996,-2.6125 -0.910148,-9.63238 -1.282561,-15.59973 l -0.677114,-10.84972 7.40373,0.588 c 4.072052,0.3234 24.27873,1.06009 44.90373,1.63709 20.625,0.577 39.9244,1.29739 42.88756,1.60087 l 5.38757,0.55178 -0.57952,6.91242 c -0.31873,3.80183 -0.78703,7.24921 -1.04067,7.66085 -0.25364,0.41164 -19.63914,0.11798 -43.07888,-0.65259 l -42.617715,-1.40102 -2.467541,1.12429 -2.467541,1.12428 -1.675582,6.02674 C 78.426111,913.28797 77.12885,916 76.46488,916 h -1.207219 z m -2.139525,-45 c 0.294978,-2.0625 1.17785,-8.20957 1.961937,-13.66016 0.784087,-5.45058 1.907774,-10.20814 2.497082,-10.57236 0.589308,-0.36421 15.349254,-3.71764 32.799881,-7.45207 42.32317,-9.05715 49.43646,-10.69069 48.89793,-11.22922 -0.25068,-0.25068 -17.25214,-8.94135 -37.78101,-19.31259 l -37.325233,-18.85681 0.309139,-4.3334 c 0.170027,-2.38336 0.447061,-4.47466 0.615632,-4.64733 0.263434,-0.26983 38.151372,19.14833 63.011952,32.29462 4.4,2.32672 12.98797,6.77078 19.08438,9.87569 l 11.08438,5.64529 -0.84464,6.17609 c -0.46455,3.39685 -0.97031,6.30177 -1.12391,6.45537 -0.15361,0.15361 -5.43649,1.3832 -11.73975,2.73243 C 112.93648,850.28737 89.774823,855.45061 85.5,856.85609 l -5,1.64391 -2.874742,5.75 C 76.044149,867.4125 74.126331,870 73.36344,870 H 71.976365 Z M 1645.6359,838.36043 c -0.3497,-2.55177 -0.6359,-5.81958 -0.6359,-7.2618 v -2.62224 l 13.5563,-6.80319 c 7.456,-3.74176 13.7744,-7.37143 14.0409,-8.06595 0.2665,-0.69452 -0.5463,-9.31158 -1.8063,-19.14903 L 1668.5,776.57194 1653,773.15433 c -8.525,-1.87969 -15.8306,-3.92088 -16.2347,-4.53597 -0.4041,-0.6151 -0.7416,-2.58943 -0.75,-4.38741 l -0.015,-3.26905 2.25,0.50872 c 5.1107,1.15553 48.4599,10.93791 64.25,14.49894 9.35,2.10864 19.025,4.1314 21.5,4.49502 l 4.5,0.66113 1.8515,-1.37367 1.8515,-1.37366 0.5286,-4.68919 0.5285,-4.68919 h 1.2615 c 1.5668,0 1.9855,1.78362 3.5826,15.26034 l 1.2751,10.76034 -0.9396,0.86623 C 1737.0781,797.14208 1648.2409,843 1647.1709,843 c -0.4945,0 -1.1852,-2.08781 -1.535,-4.63957 z m 54.9345,-39.08944 c 10.7555,-5.90095 18.9711,-10.92381 18.2569,-11.1619 -3.3353,-1.11177 -42.3736,-9.79002 -42.7172,-9.49609 -0.739,0.63212 3.2607,31.387 4.082,31.387 0.4524,0 9.6227,-4.82805 20.3783,-10.72901 z M 148,764.9367 c -42.67724,-9.99715 -49.300302,-11.32913 -52.428503,-10.544 l -2.555018,0.64127 -2.525085,4.98301 L 87.966308,765 h -1.550542 -1.550541 l 0.592797,-1.86774 c 0.326039,-1.02726 3.868741,-16.08963 7.872673,-33.47195 4.003931,-17.38232 7.576445,-31.90078 7.938915,-32.26325 0.73893,-0.73893 17.69782,2.34674 19.70059,3.58452 2.25029,1.39076 0.0508,3.01842 -4.07888,3.01842 -8.39786,0 -11.43467,3.60391 -14.88665,17.66661 -2.37275,9.6661 -2.522055,13.65911 -0.57128,15.27811 1.30208,1.08063 29.11068,8.05528 32.11716,8.05528 h 1.27028 l 2.08958,-9.07553 c 3.22676,-14.0145 2.72384,-17.51089 -2.94005,-20.4398 L 131,713.94864 v -1.97432 c 0,-1.08588 0.3375,-1.95617 0.75,-1.93398 0.4125,0.0222 7.05,1.48896 14.75,3.2595 l 14,3.21917 v 1.49049 1.4905 l -4.68823,0.53911 c -5.1129,0.58795 -8.03818,2.63288 -9.70338,6.78318 -1.33393,3.32466 -5.08726,19.53218 -4.6293,19.99013 0.92214,0.92215 35.15484,8.25099 37.32121,7.99006 l 2.51132,-0.30248 1.28676,-3.73532 c 0.70772,-2.05442 2.30075,-8.6109 3.54008,-14.56996 l 2.25333,-10.83465 -1.3075,-3.15657 -1.30749,-3.15657 -4.83637,-2.29863 -4.83638,-2.29863 0.88763,-1.43621 0.88763,-1.43621 9.56034,2.30478 9.56035,2.30478 0.007,1.15659 c 0.004,0.63613 -2.78517,13.4191 -6.19789,28.4066 l -6.20494,27.25 -1.55212,-0.10796 C 182.19845,772.83266 166.425,769.25276 148,764.9367 Z m 1560.6667,-27.60337 c -1.2509,-1.2509 -0.6681,-2.09011 2.3076,-3.32269 1.6359,-0.6776 4.1109,-2.36856 5.5,-3.75769 L 1719,727.72727 v -3.96929 c 0,-4.27914 -2.6494,-15.73495 -3.9503,-17.08083 -0.4375,-0.45257 -20.1431,4.60993 -43.7902,11.25 C 1647.6123,724.56722 1627.8219,730 1627.2807,730 c -1.2085,0 -4.6947,-12.47874 -3.9953,-14.30123 0.2772,-0.7225 2.4639,-1.78337 4.8593,-2.35749 2.3954,-0.57412 16.7303,-4.53335 31.8553,-8.79829 15.125,-4.26494 32.2204,-9.05014 37.9899,-10.63377 5.7694,-1.58363 11.0319,-3.08735 11.6945,-3.34159 l 1.2046,-0.46225 -1.8184,-6.35843 c -2.3627,-8.262 -4.5251,-12.34342 -7.611,-14.36538 l -2.4988,-1.63726 -4.423,0.49854 -4.4231,0.49854 -0.5809,-1.51382 c -0.3195,-0.83261 -0.4578,-1.63404 -0.3073,-1.78098 0.9204,-0.89895 19.3893,-5.20075 19.9068,-4.63674 0.3483,0.37958 3.8767,12.39015 7.8409,26.69015 3.9642,14.3 8.2917,29.80555 9.6167,34.45677 1.325,4.65122 2.4091,8.93584 2.4091,9.52138 0,0.58554 -4.0334,2.2925 -8.9632,3.79324 -9.6749,2.94527 -10.3622,3.06991 -11.3701,2.06194 z M 161.5,682.42607 l -40,-13.40195 -3.5,0.23794 -3.5,0.23794 -3,4.6957 c -2.8737,4.49801 -5.50324,6.19821 -5.4971,3.5543 0.006,-2.63664 12.98016,-39.77657 16.0192,-45.85712 4.50631,-9.01631 10.21884,-16.3048 14.29545,-18.23928 L 139.80226,612 h 5.56136 5.56135 l 5.45979,2.04277 5.45979,2.04277 3.51118,3.88645 c 4.01379,4.44279 5.6307,9.25392 5.63869,16.77801 0.003,2.8875 0.3657,5.25 0.80584,5.25 0.44014,0 12.45705,-2.23309 26.70424,-4.96242 14.24719,-2.72934 25.98608,-4.86684 26.08643,-4.75 0.19709,0.22948 -4.65524,15.01877 -5.08841,15.50883 -0.19322,0.21859 -50.23397,10.19853 -51.15852,10.20286 -0.0858,4e-4 -0.83732,2.0003 -1.67005,4.44422 l -1.51405,4.4435 21.42005,7.13966 c 11.78103,3.92681 21.42657,7.43974 21.43454,7.80651 0.0483,2.22432 -4.56557,14.15183 -5.44687,14.08085 C 201.98043,695.86672 183.5,689.79715 161.5,682.42607 Z M 160.95982,658.39466 163,651.78933 v -6.24678 -6.24678 l -2.25889,-3.39789 -2.2589,-3.39788 -4.4911,-2.19534 c -8.82273,-4.31272 -16.62362,-4.16765 -22.06423,0.41032 -3.63744,3.06071 -7.63846,10.62915 -8.5142,16.10571 l -0.63738,3.98597 2.76715,1.84667 c 1.52193,1.01567 9.55999,4.17372 17.86235,7.01788 8.30236,2.84417 15.18962,5.20667 15.30502,5.25 0.1154,0.0433 1.1279,-2.89361 2.25,-6.52655 z M 1611.2409,677.75 c -1.2327,-3.4375 -2.2412,-6.5344 -2.2411,-6.88201 10e-5,-0.3476 5.2877,-5.25995 11.7502,-10.91633 6.4625,-5.65637 11.75,-10.54911 11.75,-10.87274 0,-0.32363 -2.925,-8.39353 -6.5,-17.93312 l -6.5,-17.3447 -16.1032,0.69943 -16.1031,0.69942 -1.5443,-3.84997 -1.5443,-3.84998 1.1474,-0.61645 c 0.6311,-0.33905 21.5813,-0.89651 46.556,-1.23881 l 45.4084,-0.62236 2.4454,-1.60228 2.4454,-1.60229 -0.6758,-5.4089 L 1680.8561,591 h 1.4523 1.4522 l 4.0341,10.75 c 2.2187,5.9125 4.3272,11.48914 4.6854,12.39254 l 0.6514,1.64254 -19.3157,16.87521 c -42.3784,37.02382 -58.9904,51.27269 -59.8247,51.31432 -0.28,0.014 -1.5176,-2.78711 -2.7502,-6.22461 z m 44.0841,-48.44813 c 8.8962,-8.08397 16.3492,-15.13144 16.562,-15.66104 l 0.387,-0.96292 -12.294,0.66105 C 1653.2183,613.70253 1643.0013,614 1637.2756,614 h -10.4104 l 0.6923,2.25 c 1.5632,5.08093 10.6211,27.75 11.0881,27.75 0.2774,0 7.7831,-6.61416 16.6794,-14.69813 z m -1433.24324,-10.70321 -4.41825,-2.31097 1.71108,-0.95757 c 3.76234,-2.10551 14.4585,-13.60746 17.00479,-18.28583 1.48849,-2.73484 2.96643,-7.16851 3.28432,-9.85258 l 0.57798,-4.88015 -1.75096,-3.68988 -1.75097,-3.68989 -4.11988,-2.36785 c -2.26593,-1.30232 -5.52789,-2.66077 -7.24881,-3.01876 l -3.12893,-0.65091 -5.37107,1.84047 -5.37106,1.84047 -12.28935,8.7789 c -6.75914,4.8284 -14.18414,9.6391 -16.5,10.69044 l -4.21065,1.91153 -5.38398,0.022 c -2.96119,0.0121 -7.1271,-0.50029 -9.25758,-1.1386 -5.17565,-1.55066 -11.70423,-7.2902 -13.97231,-12.28363 l -1.84221,-4.05581 -0.022,-5.5685 c -0.026,-6.59665 2.08111,-14.20876 6.18292,-22.33612 C 157.88253,541.30846 163.99797,532 165.10765,532 c 0.62582,0 6.08864,2.25798 8.67391,3.58524 0.15486,0.0795 -2.39056,2.94405 -5.6565,6.36565 -3.26594,3.4216 -7.33015,8.83289 -9.03157,12.02508 L 156,559.77995 v 3.70574 c 0,4.86656 2.44951,8.83663 7.04608,11.42005 4.39976,2.4728 9.61957,2.67863 14.64804,0.5776 1.99644,-0.83417 9.29449,-5.49737 16.21789,-10.36267 15.65639,-11.00228 18.02192,-12.21366 25.10435,-12.85587 l 5.69205,-0.51614 3.8958,1.27023 c 5.54567,1.80817 12.03678,6.50284 15.38836,11.12955 l 2.87883,3.97411 0.70281,5.62511 0.70281,5.6251 -1.20855,6.56362 c -0.66471,3.60999 -2.91082,10.16362 -4.99137,14.56362 -4.17372,8.82672 -12.36667,20.52549 -14.32503,20.45481 -0.68864,-0.0248 -3.24028,-1.08512 -5.67031,-2.35615 z M 1575.0955,586.51515 c -1.7025,-3.01667 -3.0955,-5.87257 -3.0955,-6.34646 0,-0.47388 16.4353,-10.21529 36.5228,-21.64757 20.0876,-11.43228 36.7194,-21.10399 36.9596,-21.49269 0.2403,-0.3887 -3.9325,0.0884 -9.2728,1.06021 -35.6091,6.48009 -77.9575,13.91147 -79.2755,13.91142 -1.3096,-5e-5 -5.9341,-6.49945 -5.9341,-8.33997 0,-0.31219 13.068,-15.72047 29.0399,-34.24062 15.9719,-18.52016 28.8608,-33.85213 28.6419,-34.07104 -0.219,-0.21892 -16.6843,8.83813 -36.5896,20.12677 -19.9053,11.28864 -36.3575,20.5248 -36.5603,20.5248 -0.6156,0 -4.7868,-7.07907 -4.396,-7.46056 0.2003,-0.19545 17.2099,-9.98521 37.7992,-21.75502 l 37.4351,-21.39966 1.9207,-2.57256 1.9207,-2.57256 -1.6725,-5.75313 -1.6725,-5.75313 1.05,-1.05002 c 0.5776,-0.57752 1.225,-0.85503 1.4389,-0.61669 1.2737,1.41947 15.6445,27.59899 15.6445,28.4999 0,0.60198 -12.3326,15.45826 -27.4059,33.01397 -15.0732,17.5557 -27.0263,32.06011 -26.5623,32.23202 0.4639,0.1719 12.0091,-1.70463 25.6559,-4.17007 47.0424,-8.49875 56.0121,-9.97162 57.4099,-9.42702 1.3926,0.54255 10.4339,15.60041 9.7563,16.24854 -0.6031,0.57688 -84.8656,48.53599 -85.276,48.53599 -0.2129,0 -1.7799,-2.46818 -3.4824,-5.48485 z M 229,528.99163 C 208.925,517.4702 191.01333,507.74769 189.1963,507.38605 l -3.30371,-0.65753 -4.47579,4.80625 -4.47579,4.80624 -1.0077,-1.0077 -1.0077,-1.0077 5.61518,-12.9128 c 3.08834,-7.10205 5.9502,-13.26043 6.35969,-13.68531 0.40948,-0.42487 15.11189,7.48275 32.67202,17.5725 17.56012,10.08974 36.97146,21.21786 43.13631,24.72914 l 11.20881,6.38416 -3.66925,6.79335 c -2.01808,3.73634 -3.91204,6.77978 -4.20881,6.76319 C 265.7428,549.95326 249.075,540.51306 229,528.99163 Z m 26,-38.99638 C 222.86606,466.58676 214.50982,461 211.63115,461 c -0.89396,0 -3.42341,1.6244 -5.62099,3.60978 l -3.9956,3.60979 -1.6199,-0.62162 -1.61991,-0.62162 0.96384,-1.23816 c 0.53011,-0.68099 6.90752,-9.43831 14.17202,-19.4607 14.99583,-20.68883 21.44691,-27.59039 30.10103,-32.20299 l 6.0517,-3.22552 5.35128,-0.5523 5.35127,-0.5523 5.36706,1.23722 c 10.49511,2.41935 26.43135,12.38214 37.04918,23.16188 6.80177,6.90549 10.16669,12.50728 11.8243,19.68462 l 1.23052,5.32809 -0.67151,5.17191 c -0.98152,7.55971 -7.11209,19.36102 -18.01143,34.67192 -5.28562,7.425 -9.93507,13.59943 -10.33211,13.72096 C 286.82485,512.8425 272.325,502.61592 255,489.99525 Z m 40.52633,0.40628 c 1.81284,-1.97916 4.75871,-6.56952 6.54639,-10.2008 l 3.25031,-6.60233 0.036,-5.5492 0.036,-5.5492 -2.33109,-4.5 c -4.81216,-9.28956 -23.92518,-24.82854 -39.50919,-32.12118 l -6.83879,-3.20026 -5.60797,-0.0368 -5.60798,-0.0368 -4,2.10988 c -4.40054,2.32115 -8.59624,6.45737 -13.37479,13.18518 L 225,442.30008 v 2.78301 2.78301 l 4.25,3.42843 c 5.79964,4.67851 52.12567,38.35394 56.07382,40.76132 4.51253,2.75151 6.4555,2.43646 10.20251,-1.65432 z m 1194.23497,-37.75302 -4.6201,-5.3515 1.7582,-2.8985 c 0.967,-1.59418 4.5833,-7.94662 8.0361,-14.11652 l 6.2778,-11.21802 -8.8704,-10.28198 c -4.8788,-5.6551 -10.2142,-11.96948 -11.8567,-14.03196 -1.6424,-2.06248 -3.4909,-3.74998 -4.1078,-3.75 -0.6169,-2e-5 -7.5919,2.48797 -15.5,5.52886 l -14.3784,5.52889 -2.8369,-3.14196 c -1.5603,-1.72808 -2.4603,-3.46948 -2,-3.86979 0.4603,-0.40031 15.6869,-6.25849 33.8369,-13.01818 18.15,-6.75969 37.5196,-14.05583 43.0435,-16.21365 l 10.0436,-3.92332 1.2373,-1.98136 1.2374,-1.98136 -2.0532,-4.64173 -2.0533,-4.64173 0.9,-0.90003 0.9001,-0.90004 8.6223,9.95741 c 4.7423,5.47657 8.6223,10.28168 8.6223,10.67802 0,0.60334 -22.9714,41.84956 -35.9333,64.51994 -2.044,3.575 -6.116,10.8875 -9.0489,16.25 -2.9328,5.3625 -5.6258,9.75 -5.9844,9.75 -0.3586,0 -2.731,-2.40817 -5.2721,-5.35149 z m 27.1148,-62.52044 c 5.0673,-9.55457 9.0585,-17.52676 8.8693,-17.71598 -0.4572,-0.45719 -40.0122,14.45474 -41.0227,15.46523 -0.4326,0.43261 3.8403,6.19382 9.4954,12.80268 l 10.2819,12.01612 1.5814,-2.59806 c 0.8697,-1.42893 5.7273,-10.41543 10.7947,-19.96999 z m -1202.73428,12.15551 -21.01515,-42.02099 -1.64512,-0.6313 c -2.82248,-1.08308 -4.46747,-0.71296 -8.24761,1.85571 l -3.65994,2.487 -0.92932,-0.92932 -0.92931,-0.92931 9.31742,-10.09748 c 5.12459,-5.55361 9.80113,-9.9065 10.39232,-9.67309 1.68864,0.66671 82.40539,35.54956 88.82489,38.3869 3.1625,1.39778 5.75,2.83439 5.75,3.19246 0,0.35806 -2.19009,2.80819 -4.86687,5.44472 l -4.86688,4.79369 -14.15818,-6.08129 C 360.32107,384.73658 353.58892,382 353.14774,382 c -0.44119,0 -6.51621,6.04836 -13.50007,13.44079 l -12.69792,13.44079 7.25806,14.55704 7.25806,14.55705 -3.15445,3.15445 -3.15445,3.15445 z M 334.75,391.07524 c 5.6375,-6.00811 10.25,-11.36388 10.25,-11.90171 0,-0.53783 -1.2375,-1.43422 -2.75,-1.99198 -1.5125,-0.55775 -10.58072,-4.20855 -20.15161,-8.11288 -9.57089,-3.90433 -17.57312,-6.92727 -17.78275,-6.71764 -0.53119,0.53119 18.74764,39.64908 19.54035,39.64851 0.35421,-2.5e-4 5.25651,-4.91619 10.89401,-10.9243 z M 1418,374.43241 c -9.075,-8.52534 -18.7109,-17.70155 -21.4132,-20.39158 l -4.9131,-4.89096 22.4131,-23.68589 c 32.1599,-33.98605 36.8041,-39.18093 37.4975,-41.94397 l 0.6194,-2.46776 -3.1723,-5.15566 -3.1723,-5.15567 0.9339,-0.93394 0.934,-0.93394 12.1142,9.17017 12.1142,9.17016 -23.8198,25.14332 c -13.1009,13.82882 -27.0408,28.62636 -30.9777,32.88342 L 1410,352.98023 v 2.42658 2.42659 l 9.2138,8.59757 c 5.0675,4.72866 11.08,9.50102 13.361,10.60524 l 4.1473,2.00767 1.8889,-0.66982 c 1.039,-0.36841 3.3896,-1.78021 5.2236,-3.13735 l 3.3346,-2.46753 1.0441,1.04416 1.0442,1.04416 -6.8573,7.57125 c -3.7714,4.16419 -7.0919,7.55618 -7.3787,7.53776 -0.2868,-0.0184 -7.9465,-7.00876 -17.0215,-15.5341 z M 393.78366,362.25376 C 388.61633,356.33919 376.46688,342.23682 366.78488,330.91515 348.90018,310.00163 343.99897,305 341.39003,305 c -0.80108,0 -3.63675,1.10481 -6.30148,2.45513 -4.42021,2.23989 -6.08855,2.3844 -6.08855,0.52739 0,-0.92862 31.22735,-27.76599 37.60234,-32.31616 6.6085,-4.71683 14.72402,-8.40073 21.22082,-9.63282 L 393,265.05177 l 5.23096,0.99203 c 7.25855,1.37656 14.65791,6.10741 23.84583,15.24606 8.99566,8.94743 16.76598,20.02303 19.92914,28.40647 l 2.18978,5.80367 -0.42023,7.53831 -0.42023,7.53831 -2.92762,5.42154 C 438.81743,338.98 434.8,344.316 431.5,347.85595 c -5.35288,5.74208 -24.16908,22.68976 -27.1606,24.46345 l -1.16059,0.68812 z m 23.91421,-10.14986 c 4.96859,-3.59923 10.77242,-10.59188 12.78092,-15.39888 1.81627,-4.34696 1.96562,-11.1183 0.3486,-15.8058 -0.64493,-1.86957 -3.00743,-6.53183 -5.25,-10.36057 L 421.5,303.5773 l -11,-11.13907 -11,-11.13907 -5.44634,-2.64958 -5.44635,-2.64958 -4.05365,0.01 -4.05366,0.01 -5,2.35688 c -6.85493,3.23124 -14.97941,9.95255 -16.51684,13.66423 l -1.27373,3.07506 2.35858,3.19214 c 3.3731,4.56521 46.06523,53.95077 47.90036,55.41035 2.47728,1.97032 5.4655,1.47452 9.7295,-1.6143 z M 1315.9481,293.10459 C 1304.0945,285.62207 1293.1994,278.6 1291.7368,277.5 l -2.6593,-2 6.3731,-10 c 20.8459,-32.70966 36.333,-57.3751 38.2542,-60.92551 1.2127,-2.24097 2.2252,-5.18246 2.25,-6.53664 l 0.045,-2.46215 -4.0485,-4.12514 -4.0485,-4.12514 1.2985,-1.03952 1.2985,-1.03952 28,17.90874 c 15.4,9.8498 28.6087,18.2756 29.3526,18.72399 l 1.3527,0.81526 -5.2333,8.40281 c -6.298,10.1125 -5.5779,9.26803 -7.3299,8.59573 l -1.4441,-0.55417 1.5644,-4.35038 1.5643,-4.35038 -0.6843,-2.72671 c -0.3764,-1.49968 -1.9124,-4.05268 -3.4134,-5.67332 C 1370.9771,218.52669 1355.4096,209 1352.9238,209 c -0.9603,0 -2.7996,1.25207 -4.0872,2.78239 -3.036,3.60806 -17.2189,26.18523 -16.7191,26.61432 0.2104,0.18058 4.408,2.86519 9.328,5.96581 L 1350.3911,250 h 3.2277 3.2277 l 2.9786,-2.50629 2.9786,-2.50628 1.6556,0.63533 c 0.9106,0.34943 1.4274,1.23 1.1485,1.95682 -0.2789,0.72682 -3.7922,6.51598 -7.8074,12.86479 l -7.3004,11.5433 -1.5,-0.28215 -1.5,-0.28215 0.3404,-1.96168 c 0.1873,-1.07893 0.5673,-3.59934 0.8445,-5.60091 l 0.504,-3.63922 -1.1783,-2.20179 c -0.6481,-1.21099 -5.2883,-4.85963 -10.3115,-8.1081 l -9.133,-5.9063 -1.1711,1.24731 c -2.4739,2.635 -18.3302,28.64095 -18.937,31.05856 l -0.6387,2.54487 2.3403,2.01912 c 1.2872,1.11052 6.314,4.58742 11.1707,7.72645 l 8.8302,5.70733 4.6698,0.44204 4.6697,0.44203 3.6835,-3.69667 c 3.3126,-3.32453 5.8165,-3.9516 5.8165,-1.45669 0,1.05873 -9.6681,15.66257 -10.77,16.26821 -0.4015,0.22069 -10.4284,-5.72081 -22.2819,-13.20334 z M 493.9759,248.34966 472.5,210.69931 l -2.63018,-1.95544 -2.63018,-1.95545 -5.75313,1.67248 -5.75313,1.67248 -1.05002,-1.05002 c -0.57752,-0.57752 -0.85503,-1.23531 -0.61669,-1.46177 0.23833,-0.22646 6.05833,-3.62142 12.93333,-7.54436 l 12.5,-7.13262 1.7573,0.43598 c 0.96652,0.2398 18.89272,10.41356 39.83601,22.60836 20.94329,12.1948 38.23998,22.0111 38.43708,21.81399 0.19711,-0.19711 -8.15884,-15.4209 -18.56877,-33.83066 -10.40994,-18.40975 -18.93491,-33.95143 -18.94439,-34.53707 -0.0158,-0.977 6.91623,-4.89843 7.4741,-4.22807 0.13404,0.16107 6.11175,10.6637 13.2838,23.33917 7.17205,12.67547 18.03726,31.75738 24.14491,42.40424 6.10765,10.64686 10.98672,19.46577 10.84239,19.59758 -0.14434,0.13181 -2.72253,1.68327 -5.72933,3.4477 l -5.4669,3.20805 -5.0331,-2.57672 C 558.7649,253.20996 540.075,242.41121 520,230.62993 c -20.075,-11.78128 -36.65548,-21.27464 -36.84551,-21.09637 -0.19004,0.17827 8.69746,16.34271 19.75,35.92097 C 513.95702,265.03279 523,281.22036 523,281.42691 523,281.7618 516.20561,286 515.66874,286 c -0.11932,0 -9.8811,-16.94265 -21.69284,-37.65034 z m 754.5241,3.1751 c -3.3,-0.75615 -8.925,-2.57797 -12.5,-4.04847 -7.2804,-2.99464 -26.4878,-12.65004 -29.3984,-14.77833 l -1.8918,-1.38336 14.3951,-27.87299 c 19.23,-37.23465 24.7309,-48.39865 25.4972,-51.74606 l 0.642,-2.80445 -4.7328,-4.53482 -4.7328,-4.53482 0.9671,-0.96704 0.967,-0.96705 21.1291,10.96041 c 11.621,6.02822 23.333,12.57823 26.0266,14.55557 9.4493,6.93642 15.3913,15.04582 17.1983,23.47164 l 1.121,5.22687 -1.1554,6.69907 c -2.3947,13.88511 -12.2426,33.10498 -22.1432,43.21615 l -5.0675,5.17527 -5.1607,2.31542 c -2.8385,1.27347 -7.4108,2.5576 -10.1608,2.85361 l -5,0.53821 z m 11.1407,-11.05433 c 6.2859,-3.68377 13.4978,-13.23807 20.3335,-26.93742 8.5549,-17.14503 10.9062,-28.11677 7.6753,-35.81513 -2.0174,-4.8069 -9.3476,-11.42362 -16.4262,-14.82739 l -6.2768,-3.01817 -2.6606,0.31384 -2.6606,0.31384 -2.6335,4.5 c -1.4485,2.475 -9.542,18 -17.9857,34.5 l -15.3521,30 0.6488,2.57794 0.6489,2.57793 4.9734,2.70682 c 7.7766,4.23261 12.0681,5.49082 18.987,5.56685 l 6.4122,0.0705 4.3164,-2.52957 z m -670.08423,-43.19573 -0.7355,-45.76742 -1.40774,-3.3692 -1.40775,-3.36921 -5.50274,0.68752 L 575,146.14391 v -1.37556 -1.37556 l 10.75,-4.14679 c 5.9125,-2.28073 11.47063,-4.41659 12.3514,-4.74636 l 1.60139,-0.59957 24.39861,28.22112 c 13.41923,15.52161 28.6736,33.13122 33.8986,39.13246 5.225,6.00124 9.62123,11.23792 9.76941,11.63706 0.14817,0.39915 -2.73167,1.78519 -6.39964,3.0801 l -6.66905,2.35437 -4.10036,-4.45277 c -2.2552,-2.44902 -7.13125,-7.87954 -10.83566,-12.06782 l -6.7353,-7.61506 -17.63822,6.65524 -17.63822,6.65523 0.52268,16.31309 0.52267,16.31309 -2.14915,0.80338 c -1.18204,0.44186 -3.09597,1.09794 -4.25318,1.45796 l -2.10401,0.65459 z m 23.18419,-2.44358 c 7.56764,-2.84288 14.15202,-5.50806 14.63196,-5.92262 0.47995,-0.41456 -2.22005,-4.07467 -6,-8.13358 -3.77994,-4.05891 -10.63789,-11.54096 -15.23988,-16.62678 -4.602,-5.08582 -8.59279,-9.02143 -8.86843,-8.74579 -0.56483,0.56483 0.76132,44.59765 1.34316,44.59765 0.20562,0 6.56555,-2.32599 14.13319,-5.16888 z m 500.87534,5.62338 c -14.2362,-4.06401 -26.1243,-7.62948 -26.4181,-7.92328 -0.7338,-0.73375 0.1089,-3.9653 11.6734,-44.7692 5.5708,-19.65589 10.1231,-37.43089 10.1163,-39.5 l -0.012,-3.76202 -3.2611,-2.11073 c -1.7936,-1.1609 -4.263,-2.428724 -5.4876,-2.817387 C 1099.0019,99.183221 1098,98.220549 1098,97.432612 V 96 l 2.25,-0.01836 c 1.2375,-0.0101 8.2332,0.961424 15.546,2.15894 l 13.296,2.1773 -0.4157,1.09106 c -0.2286,0.60008 -3.4514,11.89106 -7.1618,25.09106 -3.7104,13.2 -8.7353,30.975 -11.1663,39.5 -2.4311,8.525 -4.6839,17.36725 -5.0063,19.64945 l -0.5862,4.14945 2.2652,1.21229 c 1.2459,0.66676 6.8124,2.51201 12.37,4.10055 L 1129.4958,198 h 5.2012 5.2012 l 2.403,-3.25 c 1.3217,-1.7875 2.6805,-4.0375 3.0195,-5 0.7026,-1.99418 3.6728,-2.39644 3.6919,-0.5 0.01,0.6875 -1.1889,5.1875 -2.6576,10 l -2.6702,8.75 -2.0924,-0.0782 c -1.1508,-0.043 -13.7402,-3.40329 -27.9764,-7.4673 z m -421.54468,0.38042 c -11.96116,-3.4352 -21.84641,-16.65363 -28.71737,-38.40049 L 660.5311,153.5 660.51555,140 660.5,126.5 l 2.81809,-5.73885 2.81809,-5.73884 4.18191,-3.39058 c 5.78411,-4.68958 11.5399,-7.42147 20.4228,-9.69334 9.19379,-2.351376 16.3582,-2.4647 22.54511,-0.35661 l 4.64227,1.58178 4.03586,4.03587 C 724.18386,109.41915 726,111.8383 726,112.5753 v 1.34001 l -6.85781,2.04234 C 715.37039,117.08094 711.93721,118 711.5129,118 c -0.42432,0 -2.6258,-1.98601 -4.89219,-4.41336 l -4.12071,-4.41336 -3.96121,-0.73755 -3.96121,-0.73756 -4.52068,1.2091 c -6.15817,1.64706 -10.40112,5.12236 -13.20453,10.81554 L 674.5,124.5 l 0.11392,10 0.11393,10 2.63755,9 c 1.45065,4.95 4.92001,13.5819 7.70968,19.18201 l 5.07214,10.18201 4.79431,4.48452 4.79431,4.48451 3.88208,1.0779 c 5.39556,1.49813 10.10445,1.35603 16.45058,-0.49641 6.57045,-1.91793 12.85623,-5.4483 18.0416,-10.13298 l 3.86089,-3.48807 1.0145,2.66835 c 0.55798,1.4676 1.01451,3.45881 1.01451,4.42492 v 1.75656 l -7.47171,4.27499 c -4.10944,2.35124 -11.53446,5.58149 -16.50005,7.17833 L 710.9999,202 l -7.74995,-0.0902 c -4.26247,-0.0496 -9.29285,-0.5333 -11.17863,-1.07489 z M 1062,188.61856 l -5.5,-1.157 -2.2106,-12.98078 c -1.2158,-7.13943 -2.4598,-14.369 -2.7644,-16.06571 l -0.5537,-3.08493 -18.4848,-3.33257 c -10.1667,-1.83292 -18.6314,-3.14471 -18.8106,-2.91508 -0.1792,0.22963 -3.8551,6.56445 -8.1688,14.07739 l -7.84299,13.65987 -3.58205,-0.54011 c -1.97014,-0.29706 -3.87846,-0.81901 -4.24073,-1.15988 -0.36227,-0.34087 6.77871,-13.21976 15.86887,-28.61976 9.0901,-15.4 19.624,-33.37435 23.4087,-39.94299 L 1036,94.614014 v -2.863238 -2.863237 l -4.75,-2.073445 c -5.789,-2.52697 -5.8693,-2.594801 -4.589,-3.875085 l 1.0276,-1.027659 12.4057,2.209532 c 6.8231,1.215242 12.715,2.472688 13.0931,2.794324 0.378,0.321637 1.6274,6.209794 2.7763,13.084794 1.1489,6.875 5.0021,29.64598 8.5626,50.60217 3.5605,20.9562 6.4737,38.3937 6.4737,38.75 0,0.85778 -2.3429,0.66681 -9,-0.73361 z M 1049.7481,146.75 c -0.2562,-0.6875 -2.1688,-10.25 -4.2503,-21.25 -2.0814,-11 -4.096,-20.3536 -4.4769,-20.78578 -0.3808,-0.43218 -2.2735,1.81782 -4.2058,5 -8.7124,14.34728 -19.0281,32.40286 -18.6884,32.71005 0.5502,0.49749 26.9741,5.36806 29.7303,5.48 l 2.357,0.0957 -0.4659,-1.25 z M 765,185.05527 c 0,-2.19707 -14.1572,-79.83539 -15.0848,-82.72528 -1.43822,-4.480736 -3.01585,-5.438746 -9.61202,-5.836895 L 734.5,96.142811 l -0.28556,-1.375319 -0.28556,-1.375319 14.1819,-4.249741 c 7.80005,-2.337357 14.49395,-3.888096 14.87533,-3.446086 0.38138,0.44201 4.40749,21.728654 8.9469,47.303654 4.53942,25.575 8.46125,47.41666 8.71519,48.53703 l 0.46171,2.03702 -7.07351,1.21298 C 765.52461,186.24664 765,186.26221 765,185.05527 Z m 60.98743,-9.34387 c -13.18386,-3.00099 -21.4768,-12.70952 -26.10173,-30.55729 l -1.98342,-7.65411 -0.59259,-12.02722 -0.59259,-12.02723 1.20655,-6.97277 c 0.66361,-3.83503 2.37547,-9.586479 3.80414,-12.781 l 2.59759,-5.808219 4.44022,-3.908434 c 2.44211,-2.149638 6.9814,-4.905465 10.08731,-6.124059 l 5.64709,-2.215626 13,-0.06772 13,-0.06772 4.5,2.114418 c 12.4023,5.827477 19.56699,19.859242 22.08585,43.25426 l 1.13588,10.55 -0.69335,8.04066 c -1.66302,19.28582 -9.50694,30.77615 -23.94474,35.07598 -2.796,0.8327 -8.90864,1.7203 -13.58364,1.97244 l -8.5,0.45844 -5.51257,-1.2548 z m 24.31902,-8.15746 c 2.09354,-1.00947 4.92137,-3.29714 6.28407,-5.08373 l 2.47763,-3.24833 1.59294,-8.36094 1.59295,-8.36094 -0.59833,-12.5 c -0.67774,-14.15869 -1.84147,-21.627 -4.83052,-31 -2.8764,-9.019763 -5.34842,-12.712509 -10.17596,-15.20105 L 842.5,81.660072 l -6,0.01448 C 826.48981,81.698712 819.86523,85.930437 815.63961,95 l -2.09661,4.5 0.0201,18 0.0201,18 2.1333,8.5 c 2.80896,11.19208 5.34675,16.90947 9.22876,20.79148 3.98057,3.98057 7.89616,5.20515 15.55467,4.86463 l 6,-0.26678 3.80645,-1.83539 z m 112.9994,6.72683 -3.19416,-0.39916 -10.76729,-20.1908 C 920.31865,99.261769 915.04142,89.745928 914.61624,91.069439 c -0.25276,0.786808 -1.02239,19.079521 -1.71029,40.650471 -0.68789,21.57095 -1.54313,39.69304 -1.90053,40.27131 l -0.6498,1.05141 -3.81543,-0.79273 -3.81543,-0.79273 0.1854,-9.97858 c 0.10197,-5.48823 0.60653,-21.00359 1.12125,-34.47859 0.51471,-13.475 0.94321,-28.837647 0.95222,-34.139216 L 905,83.221568 l -1.75,-2.153745 -1.75,-2.153746 -4.99883,-1.272086 -4.99883,-1.272087 -0.31619,-1.641808 -0.31618,-1.641807 15.31501,0.581617 c 8.42326,0.319889 15.59252,0.862974 15.93168,1.206856 C 922.45583,75.218643 931.3995,91.925 941.9915,112 c 19.38503,36.74043 23.01815,43.35839 23.49775,42.8026 0.14362,-0.16643 0.78954,-16.5026 1.4354,-36.3026 0.64585,-19.8 1.3974,-37.4625 1.67012,-39.25 L 969.09063,76 h 4.32698 4.32699 l -0.34024,5.25 c -0.18713,2.8875 -0.8061,21 -1.37549,40.25 -0.56939,19.25 -1.30082,39.1625 -1.62539,44.25 l -0.59013,9.25 -3.65667,-0.16004 c -2.01118,-0.088 -5.09405,-0.33965 -6.85083,-0.55919 z"
       id="path359" />
  </g>
</svg>
